<svg width="18" height="18" viewBox="0 0 18 18" fill="none" xmlns="http://www.w3.org/2000/svg">
<g clip-path="url(#clip0_340_1784)">
<path d="M2.50575 5.81326C2.3631 5.8132 2.2258 5.75894 2.12165 5.66147C2.01749 5.564 1.95426 5.43059 1.94475 5.28826L1.75125 2.28826C1.74632 2.21439 1.756 2.14028 1.77972 2.07015C1.80343 2.00002 1.84073 1.93524 1.88948 1.87953C1.93824 1.82381 1.99748 1.77825 2.06384 1.74543C2.1302 1.71261 2.20238 1.69318 2.27625 1.68826C2.35012 1.68334 2.42423 1.69301 2.49436 1.71673C2.56449 1.74045 2.62926 1.77775 2.68498 1.8265C2.74069 1.87525 2.78626 1.93449 2.81908 2.00086C2.8519 2.06722 2.87132 2.13939 2.87625 2.21326L3.03525 4.68826H5.25C5.39918 4.68826 5.54226 4.74752 5.64775 4.85301C5.75324 4.9585 5.8125 5.10158 5.8125 5.25076C5.8125 5.39994 5.75324 5.54302 5.64775 5.64851C5.54226 5.754 5.39918 5.81326 5.25 5.81326H2.50575Z" fill="black" stroke="black" stroke-width="0.6"/>
<path d="M9 17.0625C6.86242 17.0602 4.81308 16.2099 3.30158 14.6985C1.79009 13.187 0.939882 11.1376 0.9375 9.00004C0.9375 8.85085 0.996763 8.70778 1.10225 8.60229C1.20774 8.4968 1.35082 8.43754 1.5 8.43754C1.64918 8.43754 1.79226 8.4968 1.89775 8.60229C2.00324 8.70778 2.0625 8.85085 2.0625 9.00004C2.06346 10.6822 2.67587 12.3066 3.78565 13.5706C4.89544 14.8347 6.4269 15.6523 8.09474 15.871C9.76258 16.0897 11.4531 15.6946 12.8512 14.7594C14.2494 13.8242 15.2599 12.4126 15.6946 10.7876C16.1292 9.16261 15.9583 7.43503 15.2136 5.9267C14.469 4.41838 13.2014 3.23217 11.6471 2.58908C10.0928 1.94598 8.35767 1.88985 6.76502 2.43114C5.17237 2.97244 3.83081 4.07424 2.99025 5.53129C2.91566 5.66058 2.79276 5.75494 2.64859 5.79362C2.50442 5.8323 2.35079 5.81213 2.2215 5.73753C2.09221 5.66294 1.99784 5.54004 1.95916 5.39588C1.92048 5.25171 1.94066 5.09808 2.01525 4.96879C2.72275 3.7429 3.74048 2.72484 4.96615 2.01694C6.19181 1.30905 7.58222 0.936255 8.99762 0.936035C10.413 0.935815 11.8036 1.30818 13.0294 2.01569C14.2553 2.7232 15.2734 3.74094 15.9813 4.96661C16.6891 6.19228 17.0619 7.58269 17.0621 8.9981C17.0623 10.4135 16.69 11.804 15.9824 13.0299C15.2749 14.2558 14.2572 15.2738 13.0315 15.9817C11.8058 16.6896 10.4154 17.0623 9 17.0625Z" fill="black" stroke="black" stroke-width="0.6"/>
<path d="M12 11.8125C11.8785 11.8124 11.7603 11.773 11.6632 11.7L8.66323 9.45C8.59337 9.3976 8.53667 9.32966 8.49762 9.25156C8.45856 9.17345 8.43823 9.08733 8.43823 9V5.25C8.43823 5.10082 8.4975 4.95774 8.60298 4.85225C8.70847 4.74676 8.85155 4.6875 9.00073 4.6875C9.14992 4.6875 9.29299 4.74676 9.39848 4.85225C9.50397 4.95774 9.56323 5.10082 9.56323 5.25V8.71875L12.3382 10.8C12.4327 10.8709 12.5025 10.9697 12.5377 11.0825C12.5729 11.1952 12.5717 11.3162 12.5342 11.4282C12.4968 11.5403 12.4251 11.6377 12.3292 11.7067C12.2333 11.7756 12.1181 11.8127 12 11.8125Z" fill="black" stroke="black" stroke-width="0.6"/>
</g>
<defs>
<clipPath id="clip0_340_1784">
<rect width="18" height="18" fill="white"/>
</clipPath>
</defs>
</svg>
