<svg width="21" height="21" viewBox="0 0 21 21" fill="none" xmlns="http://www.w3.org/2000/svg">
<mask id="mask0_2675_14984" style="mask-type:alpha" maskUnits="userSpaceOnUse" x="0" y="0" width="21" height="21">
<rect x="0.5" y="0.5" width="20" height="20" fill="#ED1C24"/>
</mask>
<g mask="url(#mask0_2675_14984)">
<path d="M5.5013 18L10.5013 13L15.5013 18H5.5013ZM2.16797 14.6667V4.66667C2.16797 4.20833 2.33116 3.81597 2.65755 3.48958C2.98394 3.16319 3.3763 3 3.83464 3H17.168C17.6263 3 18.0187 3.16319 18.3451 3.48958C18.6714 3.81597 18.8346 4.20833 18.8346 4.66667V14.6667C18.8346 15.125 18.6714 15.5174 18.3451 15.8438C18.0187 16.1701 17.6263 16.3333 17.168 16.3333H14.668V14.6667H17.168V4.66667H3.83464V14.6667H6.33464V16.3333H3.83464C3.3763 16.3333 2.98394 16.1701 2.65755 15.8438C2.33116 15.5174 2.16797 15.125 2.16797 14.6667Z" fill="#ED1C24"/>
</g>
</svg>
