<svg width="24" height="24" viewBox="0 0 24 24" fill="none" xmlns="http://www.w3.org/2000/svg">
<path d="M22 12.8C22.4418 12.8 22.8 12.4418 22.8 12C22.8 11.5582 22.4418 11.2 22 11.2V12.8ZM2.43431 11.4343C2.12189 11.7467 2.12189 12.2533 2.43431 12.5657L7.52548 17.6569C7.8379 17.9693 8.34443 17.9693 8.65685 17.6569C8.96927 17.3444 8.96927 16.8379 8.65685 16.5255L4.13137 12L8.65685 7.47452C8.96927 7.1621 8.96927 6.65557 8.65685 6.34315C8.34443 6.03073 7.8379 6.03073 7.52548 6.34315L2.43431 11.4343ZM22 11.2L3 11.2V12.8L22 12.8V11.2Z" fill="black"/>
</svg>
