<svg width="360" height="138" viewBox="0 0 360 138" fill="none" xmlns="http://www.w3.org/2000/svg">
<path d="M-20 3.94851C-7.55211 -1.15189 5.95586 4.66463 16.9278 11.0038C37.6594 22.9816 52.4035 40.7426 53.1267 65.3993C53.3946 74.5329 52.5919 82.9211 47.6301 90.8104C41.5507 100.477 32.9427 107.496 21.149 107.089C10.2633 106.714 -0.0670336 102.641 -5.96987 93.1927C-10.7955 85.4686 -12.5131 77.4815 -11.3451 68.3925C-9.366 52.9931 10.402 47.3195 23.4873 46.5243C48.0731 45.0302 70.7892 54.245 93.5772 62.4062C112.539 69.1971 129.524 77.9727 146.297 89.1001C163.182 100.302 180.354 110.541 199.077 118.421C216.451 125.733 234.205 131.245 252.768 134.486C265.772 136.756 277.657 136.8 290.181 132.348C306.846 126.424 322.469 113.558 334.853 101.103C342.311 93.6027 349.192 85.2228 355.23 76.5472C357.32 73.5448 360.128 69.0313 361 65.5215" stroke="#ED1C24" stroke-opacity="0.07" stroke-width="3" stroke-linecap="round"/>
<circle cx="332.203" cy="7.20346" r="4.47838" transform="rotate(-10.2425 332.203 7.20346)" fill="#FFE9E6"/>
</svg>
