<svg width="17" height="20" viewBox="0 0 17 20" fill="none" xmlns="http://www.w3.org/2000/svg">
<path d="M12.0391 2.87508C12.2251 2.66715 12.446 2.50221 12.689 2.38968C12.9321 2.27716 13.1926 2.21924 13.4557 2.21924C13.7188 2.21924 13.9794 2.27716 14.2224 2.38968C14.4655 2.50221 14.6864 2.66715 14.8724 2.87508C15.0584 3.083 15.206 3.32985 15.3067 3.60152C15.4074 3.87318 15.4592 4.16436 15.4592 4.45841C15.4592 4.75246 15.4074 5.04363 15.3067 5.3153C15.206 5.58697 15.0584 5.83382 14.8724 6.04174L5.3099 16.7292L1.41406 17.9167L2.47656 13.5626L12.0391 2.87508Z" stroke="#ED1C24" stroke-width="1.2" stroke-linecap="round" stroke-linejoin="round"/>
</svg>
