<svg width="24" height="24" viewBox="0 0 24 24" fill="none" xmlns="http://www.w3.org/2000/svg">
<path d="M12.1038 2C11.1376 2 10.1931 2.2865 9.3898 2.82327C8.58646 3.36004 7.96033 4.12297 7.5906 5.01559C7.22087 5.90821 7.12413 6.89042 7.31262 7.83802C7.5011 8.78561 7.96637 9.65604 8.64955 10.3392C9.33273 11.0224 10.2031 11.4876 11.1507 11.6761C12.0983 11.8646 13.0806 11.7679 13.9732 11.3982C14.8658 11.0284 15.6287 10.4023 16.1655 9.59896C16.7023 8.79563 16.9888 7.85116 16.9888 6.885C16.9874 5.58982 16.4723 4.34807 15.5565 3.43225C14.6407 2.51642 13.3989 2.00132 12.1038 2Z" fill="#ED1C24"/>
<path d="M12.1679 12.9356H12.0159C11.2931 12.935 10.5737 13.036 9.87891 13.2355L12.1069 16.6805L14.3319 13.2395C13.6284 13.0372 12.8999 12.9348 12.1679 12.9356Z" fill="#ED1C24"/>
<path d="M19.8285 19.4972C19.6372 18.2386 19.1374 17.0469 18.3737 16.0285C17.61 15.01 16.6061 14.1964 15.4515 13.6602L12.6875 17.9341V22.0002H20.2085L19.8285 19.4972Z" fill="#ED1C24"/>
<path d="M8.75309 13.6562C7.59874 14.1937 6.59517 15.0082 5.8317 16.0273C5.06822 17.0464 4.56853 18.2384 4.37709 19.4973L3.99609 21.9973H11.5171V17.9293L8.75309 13.6562Z" fill="#ED1C24"/>
</svg>
