<svg width="22" height="17" viewBox="0 0 22 17" fill="none" xmlns="http://www.w3.org/2000/svg">
<path d="M13.002 9.2207C12.1686 9.2207 11.4603 8.92904 10.877 8.3457C10.2936 7.76237 10.002 7.05404 10.002 6.2207C10.002 5.38737 10.2936 4.67904 10.877 4.0957C11.4603 3.51237 12.1686 3.2207 13.002 3.2207C13.8353 3.2207 14.5436 3.51237 15.127 4.0957C15.7103 4.67904 16.002 5.38737 16.002 6.2207C16.002 7.05404 15.7103 7.76237 15.127 8.3457C14.5436 8.92904 13.8353 9.2207 13.002 9.2207ZM6.00195 12.2207C5.45195 12.2207 4.98112 12.0249 4.58945 11.6332C4.19779 11.2415 4.00195 10.7707 4.00195 10.2207V2.2207C4.00195 1.6707 4.19779 1.19987 4.58945 0.808203C4.98112 0.416536 5.45195 0.220703 6.00195 0.220703H20.002C20.552 0.220703 21.0228 0.416536 21.4145 0.808203C21.8061 1.19987 22.002 1.6707 22.002 2.2207V10.2207C22.002 10.7707 21.8061 11.2415 21.4145 11.6332C21.0228 12.0249 20.552 12.2207 20.002 12.2207H6.00195ZM8.00195 10.2207H18.002C18.002 9.6707 18.1978 9.19987 18.5895 8.8082C18.9811 8.41654 19.452 8.2207 20.002 8.2207V4.2207C19.452 4.2207 18.9811 4.02487 18.5895 3.6332C18.1978 3.24154 18.002 2.7707 18.002 2.2207H8.00195C8.00195 2.7707 7.80612 3.24154 7.41445 3.6332C7.02279 4.02487 6.55195 4.2207 6.00195 4.2207V8.2207C6.55195 8.2207 7.02279 8.41654 7.41445 8.8082C7.80612 9.19987 8.00195 9.6707 8.00195 10.2207ZM19.002 16.2207H2.00195C1.45195 16.2207 0.98112 16.0249 0.589453 15.6332C0.197786 15.2415 0.00195312 14.7707 0.00195312 14.2207V3.2207H2.00195V14.2207H19.002V16.2207Z" fill="#ED1C24"/>
</svg>
