<svg width="188" height="45" viewBox="0 0 188 45" fill="none" xmlns="http://www.w3.org/2000/svg">
<g clip-path="url(#clip0_49_2732)">
<path d="M31.6158 44.6602C31.8435 44.7035 32.0767 44.7096 32.3064 44.6784C32.5772 44.6352 32.8393 44.549 33.0826 44.423C33.6758 44.1306 34.1879 43.6976 34.5736 43.1621C34.9594 42.6266 35.207 42.0051 35.2949 41.3521C35.3241 40.8315 35.2321 40.3112 35.026 39.8318C34.8969 39.5177 34.7296 39.2206 34.5279 38.947C34.1522 38.4428 33.6691 38.0274 33.1131 37.7308C32.6028 37.4815 32.1964 37.3659 31.9856 36.9038C31.68 36.2257 32.1017 35.3044 32.6487 34.7936C32.9084 34.5688 33.2114 34.399 33.5392 34.2944C33.867 34.1899 34.2127 34.1528 34.5554 34.1855C36.0007 34.295 37.553 35.6176 37.9441 36.9585C38.2466 37.5011 38.4407 38.0969 38.5156 38.7129C38.8425 41.5497 36.3521 43.6507 36.0282 43.9152L35.7654 44.3105C35.7891 44.3884 35.8387 44.4559 35.906 44.5021C36.0071 44.5539 36.1221 44.5727 36.2345 44.5558C36.347 44.5388 36.4512 44.4871 36.5324 44.4078L55.554 36.2136C56.0427 36.0056 56.4652 35.6693 56.7763 35.2406L56.7916 35.2223C57.0306 34.8829 57.195 34.4971 57.2741 34.0902C57.3531 33.6832 57.3451 33.2643 57.2506 32.8606C57.156 32.457 56.977 32.0777 56.7252 31.7475C56.4734 31.4173 56.1545 31.1436 55.7893 30.9443C52.4281 29.0865 47.3434 26.4139 43.3527 24.8632C36.9113 22.37 35.2154 22.3274 32.5417 24.4558C29.9841 26.4899 29.2599 20.199 31.9306 19.3933C35.1513 18.4051 39.2642 20.3055 46.3442 23.1332C49.736 24.4923 51.438 25.1582 52.532 25.6811C54.7687 26.7544 55.8566 27.5267 56.4402 27.0433C56.9719 26.6054 56.9047 25.7298 56.2599 25.0609C52.9873 21.6615 51.7069 21.619 50.6772 18.3048C50.4924 17.7257 50.3996 17.1215 50.4022 16.5139C50.4022 15.5622 50.7291 14.5163 51.5603 12.3848C54.3104 5.28214 52.6328 1.94059 50.1791 0.56018C48.1073 -0.607388 44.0677 2.36322 42.4024 5.06018C41.8615 5.93586 40.9509 6.24599 39.9181 6.22167L31.7136 6.26727C30.2499 6.23383 30.5158 6.16694 28.8871 6.2916C27.0812 6.2916 27.2218 6.47099 25.7764 6.37065L17.5597 6.23383C16.5238 6.25815 15.656 5.94802 15.1152 5.07234C13.4467 2.37538 9.40714 -0.607388 7.33539 0.572342C4.89084 1.95275 3.19494 5.2943 5.95422 12.397C6.78536 14.5254 7.10621 15.5744 7.11232 16.5261C7.11492 17.1336 7.02213 17.7379 6.83731 18.3169C5.80755 21.6311 4.52722 21.6615 1.25458 25.073C0.609833 25.7419 0.542608 26.6176 1.0743 27.0555C1.65793 27.5389 2.74575 26.7514 4.98251 25.6933C6.07645 25.1703 7.77846 24.5044 11.1703 23.1453C18.2625 20.3085 22.3632 18.4173 25.5839 19.4054C28.2515 20.2234 27.5273 26.5021 24.9728 24.468C22.2991 22.3396 20.6032 22.3821 14.1618 24.8754C10.1711 26.42 5.09557 29.0926 1.72516 30.9565C1.35994 31.1558 1.04105 31.4295 0.789275 31.7596C0.537499 32.0898 0.35849 32.4691 0.263922 32.8728C0.169354 33.2764 0.161351 33.6954 0.240433 34.1023C0.319516 34.5093 0.483909 34.895 0.722893 35.2345V35.2527C1.03401 35.6815 1.45654 36.0178 1.94517 36.2257L20.9668 44.42C21.0467 44.496 21.1482 44.5457 21.2575 44.5626C21.3667 44.5794 21.4786 44.5626 21.5779 44.5142C21.6452 44.4681 21.6948 44.4005 21.7185 44.3227L21.4557 43.9274C21.1318 43.6629 18.6414 41.5619 18.9684 38.725C19.047 38.1025 19.2474 37.5014 19.5581 36.9554C19.9492 35.6146 21.5015 34.2919 22.9469 34.1825C23.2895 34.1498 23.6353 34.1868 23.9631 34.2914C24.2909 34.3959 24.5939 34.5658 24.8536 34.7906C25.4006 35.3014 25.8161 36.2227 25.5167 36.9007C25.312 37.3629 24.9056 37.4784 24.3891 37.7277C23.8332 38.0244 23.3501 38.4397 22.9744 38.944C22.7735 39.2187 22.6073 39.5168 22.4793 39.8318C22.2732 40.3112 22.1812 40.8315 22.2104 41.3521C22.2969 42.0067 22.5439 42.6301 22.9297 43.1673C23.3155 43.7044 23.8283 44.1388 24.4228 44.4321C24.666 44.5581 24.9281 44.6444 25.1989 44.6875C25.4286 44.7187 25.6618 44.7126 25.8895 44.6693" fill="#ED1C24"/>
<path d="M22.3785 28.4682C22.3791 28.8845 22.2556 29.2916 22.0236 29.638C21.7916 29.9844 21.4616 30.2545 21.0753 30.4143C20.6889 30.574 20.2637 30.6161 19.8533 30.5352C19.4429 30.4544 19.0659 30.2542 18.7698 29.9601C18.4738 29.666 18.2721 29.2911 18.1903 28.8828C18.1084 28.4746 18.1501 28.0514 18.3101 27.6668C18.47 27.2821 18.7411 26.9533 19.0889 26.722C19.4367 26.4907 19.8456 26.3672 20.2639 26.3672C20.5415 26.3668 20.8164 26.4208 21.0729 26.5262C21.3294 26.6317 21.5626 26.7863 21.759 26.9815C21.9553 27.1766 22.1112 27.4084 22.2175 27.6635C22.3238 27.9186 22.3785 28.192 22.3785 28.4682Z" fill="black"/>
<path d="M37.6646 28.4682C37.6652 28.8846 37.5416 29.2918 37.3095 29.6383C37.0774 29.9848 36.7472 30.2549 36.3607 30.4146C35.9742 30.5742 35.5488 30.6161 35.1383 30.535C34.7278 30.4539 34.3508 30.2535 34.0549 29.959C33.759 29.6646 33.5575 29.2894 33.476 28.881C33.3945 28.4725 33.4367 28.0492 33.5971 27.6647C33.7575 27.2801 34.029 26.9515 34.3772 26.7205C34.7254 26.4896 35.1347 26.3666 35.5531 26.3672C36.1131 26.3672 36.6502 26.5885 37.0462 26.9826C37.4422 27.3766 37.6646 27.911 37.6646 28.4682Z" fill="black"/>
</g>
<path d="M87.5007 18.5095H76.2411V23.5074H86.4379V26.7818H76.2411V34.968H72.6507V15.235H87.5007V18.5095ZM97.4383 32.2106C98.1277 32.2106 98.8362 32.067 99.5638 31.7797C100.292 31.4925 100.866 31.1382 101.287 30.717L103.499 33.0148C102.867 33.685 101.977 34.2404 100.828 34.6808C99.6787 35.1021 98.5585 35.3127 97.467 35.3127C95.3032 35.3127 93.4649 34.5755 91.9521 33.101C90.4585 31.6265 89.7117 29.7595 89.7117 27.4999C89.7117 25.2978 90.4394 23.4595 91.8947 21.985C93.35 20.5106 95.1404 19.7733 97.266 19.7733C99.5447 19.7733 101.326 20.5776 102.609 22.1861C103.892 23.7946 104.533 25.9776 104.533 28.735H93.3309C93.5415 29.7691 94.0107 30.6116 94.7383 31.2627C95.4851 31.8946 96.3851 32.2106 97.4383 32.2106ZM97.4096 22.8755C96.433 22.8755 95.5713 23.1627 94.8245 23.7372C94.0968 24.3116 93.6085 25.0872 93.3596 26.0638H101.172C100.962 25.0872 100.531 24.3116 99.8798 23.7372C99.2479 23.1627 98.4245 22.8755 97.4096 22.8755ZM107.57 34.968V14.8904H111.075V34.968H107.57ZM116.729 17.8776C116.173 17.8776 115.695 17.6765 115.292 17.2744C114.909 16.8723 114.718 16.4031 114.718 15.867C114.718 15.3308 114.909 14.8712 115.292 14.4882C115.695 14.0861 116.173 13.885 116.729 13.885C117.265 13.885 117.724 14.0861 118.107 14.4882C118.509 14.8712 118.71 15.3308 118.71 15.867C118.71 16.4031 118.509 16.8723 118.107 17.2744C117.724 17.6765 117.265 17.8776 116.729 17.8776ZM114.948 34.968V20.118H118.452V34.968H114.948ZM135.94 34.968H132.062L128.443 29.9989L124.795 34.968H120.975L126.547 27.385L121.233 20.118H125.082L128.472 24.7425L131.861 20.118H135.681L130.367 27.3563L135.94 34.968ZM137.909 28.6201V25.5467H145.635V28.6201H137.909ZM149.145 34.968V15.235H152.707V34.968H149.145ZM162.143 34.968V18.5095H155.824V15.235H172.024V18.5095H165.705V34.968H162.143ZM180.461 35.3127C177.991 35.3127 175.827 34.5659 173.97 33.0723L175.55 30.6308C177.139 31.7797 178.795 32.3542 180.519 32.3542C181.227 32.3542 181.802 32.2201 182.242 31.9521C182.683 31.6648 182.903 31.2914 182.903 30.8318C182.903 30.468 182.75 30.1616 182.443 29.9127C182.156 29.6446 181.84 29.4531 181.495 29.3382C181.151 29.2042 180.624 29.0414 179.916 28.8499C178.116 28.3904 176.785 27.8542 175.923 27.2414C175.08 26.6095 174.65 25.6808 174.63 24.4553C174.63 23.0574 175.147 21.9276 176.182 21.0659C177.235 20.2042 178.585 19.7733 180.232 19.7733C182.223 19.7733 184.119 20.367 185.919 21.5542L184.454 24.1106C183.037 23.2106 181.629 22.7606 180.232 22.7606C179.6 22.7606 179.073 22.885 178.652 23.134C178.25 23.3638 178.049 23.6797 178.049 24.0818C178.049 24.5223 178.25 24.8574 178.652 25.0872C179.054 25.317 179.868 25.6138 181.093 25.9776C181.725 26.1499 182.233 26.3031 182.616 26.4372C182.999 26.5712 183.449 26.7723 183.966 27.0404C184.502 27.2893 184.913 27.567 185.201 27.8733C185.507 28.1606 185.766 28.5435 185.976 29.0223C186.187 29.501 186.292 30.0372 186.292 30.6308C186.292 32.0478 185.756 33.1872 184.684 34.0489C183.611 34.8914 182.204 35.3127 180.461 35.3127Z" fill="black"/>
<defs>
<clipPath id="clip0_49_2732">
<rect width="57.4468" height="45" fill="white"/>
</clipPath>
</defs>
</svg>
