<svg width="29" height="30" viewBox="0 0 29 30" fill="none" xmlns="http://www.w3.org/2000/svg">
<g clip-path="url(#clip0_565_2299)">
<path d="M28.9847 15.2807C28.9847 14.0516 28.886 13.1547 28.6725 12.2246H14.7888V17.7721H22.9383C22.774 19.1507 21.8868 21.2269 19.9151 22.622L19.8875 22.8077L24.2772 26.2455L24.5813 26.2762C27.3745 23.6685 28.9847 19.8317 28.9847 15.2807Z" fill="#4285F4"/>
<path d="M14.7888 29.8963C18.7814 29.8963 22.1331 28.5675 24.5813 26.2754L19.9151 22.6213C18.6664 23.5016 16.9904 24.1161 14.7888 24.1161C10.8784 24.1161 7.55951 21.5085 6.37641 17.9043L6.203 17.9192L1.63846 21.4902L1.57877 21.658C4.01044 26.5411 9.00528 29.8963 14.7888 29.8963Z" fill="#34A853"/>
<path d="M6.37642 17.9055C6.06425 16.9754 5.88358 15.9787 5.88358 14.949C5.88358 13.9191 6.06425 12.9226 6.36 11.9925L6.35173 11.7944L1.72999 8.16602L1.57877 8.23873C0.576565 10.2651 0.00149536 12.5406 0.00149536 14.949C0.00149536 17.3574 0.576565 19.6328 1.57877 21.6591L6.37642 17.9055Z" fill="#FBBC05"/>
<path d="M14.7888 5.78004C17.5655 5.78004 19.4385 6.99252 20.5066 8.00576L24.6799 3.8866C22.1168 1.47824 18.7814 0 14.7888 0C9.00528 0 4.01044 3.35508 1.57877 8.23821L6.35999 11.992C7.55951 8.38775 10.8784 5.78004 14.7888 5.78004Z" fill="#EB4335"/>
</g>
<defs>
<clipPath id="clip0_565_2299">
<rect width="29" height="30" fill="white"/>
</clipPath>
</defs>
</svg>
