<svg width="28" height="28" viewBox="0 0 28 28" fill="none" xmlns="http://www.w3.org/2000/svg">
<circle cx="14" cy="14" r="12.75" stroke="#1C1B1F" stroke-width="1.5"/>
<mask id="mask0_1071_26855" style="mask-type:alpha" maskUnits="userSpaceOnUse" x="5" y="6" width="18" height="18">
<rect x="5" y="6" width="18" height="18" fill="#D9D9D9"/>
</mask>
<g mask="url(#mask0_1071_26855)">
<path d="M15.2937 21.75L10.25 16.5V15H12.875C13.5375 15 14.1094 14.7844 14.5906 14.3531C15.0719 13.9219 15.3625 13.3875 15.4625 12.75H9.5V11.25H15.2375C15.025 10.8125 14.7094 10.4531 14.2906 10.1719C13.8719 9.89062 13.4 9.75 12.875 9.75H9.5V8.25H18.5V9.75H16.0625C16.2375 9.9625 16.3938 10.1937 16.5312 10.4437C16.6687 10.6937 16.775 10.9625 16.85 11.25H18.5V12.75H16.9813C16.8813 13.8125 16.4438 14.7031 15.6688 15.4219C14.8938 16.1406 13.9625 16.5 12.875 16.5H12.3313L17.375 21.75H15.2937Z" fill="#1C1B1F"/>
</g>
</svg>
