<svg width="256" height="785" viewBox="0 0 256 785" fill="none" xmlns="http://www.w3.org/2000/svg">
<path d="M162.577 114.958L114.984 117.37" stroke="#FFE8E8" stroke-miterlimit="10" stroke-linecap="round" stroke-linejoin="round"/>
<path d="M115.802 137.966L114.419 110.683C114.37 109.722 115.109 108.904 116.07 108.856L152.356 107.016" stroke="#FFE8E8" stroke-miterlimit="10" stroke-linecap="round" stroke-linejoin="round"/>
<path d="M155.814 106.841L160.619 106.597C161.579 106.549 162.398 107.288 162.446 108.249L164.171 142.264C164.219 143.225 163.48 144.043 162.519 144.092L117.971 146.35C117.01 146.399 116.192 145.659 116.143 144.699L115.97 141.284" stroke="#FFE8E8" stroke-miterlimit="10" stroke-linecap="round" stroke-linejoin="round"/>
<path d="M119.971 114.341C120.772 114.3 121.388 113.618 121.347 112.818C121.307 112.017 120.625 111.401 119.824 111.442C119.024 111.482 118.408 112.164 118.448 112.965C118.489 113.765 119.171 114.381 119.971 114.341Z" stroke="#FFE8E8" stroke-miterlimit="10" stroke-linecap="round" stroke-linejoin="round"/>
<path d="M126.011 114.035C126.811 113.994 127.427 113.312 127.387 112.512C127.346 111.711 126.664 111.095 125.864 111.136C125.063 111.176 124.447 111.858 124.488 112.659C124.528 113.459 125.21 114.075 126.011 114.035Z" stroke="#FFE8E8" stroke-miterlimit="10" stroke-linecap="round" stroke-linejoin="round"/>
<path d="M132.05 113.728C132.851 113.688 133.467 113.006 133.427 112.205C133.386 111.405 132.704 110.789 131.904 110.829C131.103 110.87 130.487 111.552 130.527 112.352C130.568 113.153 131.25 113.769 132.05 113.728Z" stroke="#FFE8E8" stroke-miterlimit="10" stroke-linecap="round" stroke-linejoin="round"/>
<path d="M123.599 141.962L123.096 141.987C121.725 142.057 120.671 143.232 120.741 144.612L120.799 145.756C120.811 146.004 121.021 146.195 121.267 146.183L131.198 145.679C131.445 145.667 131.634 145.456 131.622 145.208L131.564 144.063C131.494 142.683 130.326 141.621 128.955 141.69L128.484 141.714" stroke="#FFE8E8" stroke-miterlimit="10" stroke-linecap="round" stroke-linejoin="round"/>
<path d="M122.936 140.138L122.833 138.112C122.749 136.457 124.022 135.048 125.677 134.964C127.331 134.88 128.741 136.154 128.824 137.808L128.927 139.823C129.011 141.481 127.735 142.893 126.077 142.977C124.426 143.061 123.019 141.79 122.936 140.138Z" stroke="#FFE8E8" stroke-miterlimit="10" stroke-linecap="round" stroke-linejoin="round"/>
<path d="M123.007 138.659L128.706 138.37" stroke="#FFE8E8" stroke-miterlimit="10" stroke-linecap="round" stroke-linejoin="round"/>
<path d="M137.611 141.251L137.108 141.277C135.737 141.346 134.683 142.522 134.753 143.902L134.811 145.046C134.823 145.294 135.033 145.485 135.279 145.472L145.21 144.969C145.457 144.957 145.646 144.745 145.634 144.497L145.576 143.353C145.506 141.973 144.338 140.91 142.967 140.98L142.496 141.004" stroke="#FFE8E8" stroke-miterlimit="10" stroke-linecap="round" stroke-linejoin="round"/>
<path d="M136.948 139.428L136.845 137.401C136.761 135.747 138.034 134.338 139.689 134.254C141.343 134.17 142.753 135.443 142.836 137.098L142.939 139.113C143.023 140.771 141.747 142.182 140.089 142.267C138.438 142.35 137.032 141.079 136.948 139.428Z" stroke="#FFE8E8" stroke-miterlimit="10" stroke-linecap="round" stroke-linejoin="round"/>
<path d="M137.019 137.949L142.718 137.66" stroke="#FFE8E8" stroke-miterlimit="10" stroke-linecap="round" stroke-linejoin="round"/>
<path d="M151.623 140.541L151.12 140.567C149.749 140.636 148.695 141.811 148.765 143.191L148.823 144.336C148.835 144.584 149.045 144.775 149.291 144.762L159.222 144.259C159.469 144.246 159.658 144.035 159.646 143.787L159.588 142.643C159.518 141.263 158.35 140.2 156.979 140.27L156.508 140.294" stroke="#FFE8E8" stroke-miterlimit="10" stroke-linecap="round" stroke-linejoin="round"/>
<path d="M150.96 138.718L150.857 136.691C150.773 135.037 152.047 133.628 153.701 133.544C155.355 133.46 156.765 134.733 156.849 136.387L156.951 138.403C157.035 140.06 155.759 141.472 154.102 141.556C152.45 141.64 151.044 140.369 150.96 138.718Z" stroke="#FFE8E8" stroke-miterlimit="10" stroke-linecap="round" stroke-linejoin="round"/>
<path d="M151.031 137.238L156.73 136.949" stroke="#FFE8E8" stroke-miterlimit="10" stroke-linecap="round" stroke-linejoin="round"/>
<path d="M143.653 128.736L144.614 121.266C144.638 121.091 144.88 121.062 144.944 121.227L147.491 128.484C147.552 128.638 147.774 128.625 147.817 128.465L149.543 120.995C149.589 120.824 149.832 120.826 149.876 120.997L151.666 128.33" stroke="#FFE8E8" stroke-miterlimit="10" stroke-linecap="round" stroke-linejoin="round"/>
<path d="M132.751 122.378C132.123 121.999 131.38 121.796 130.593 121.836C128.493 121.943 126.878 123.731 126.984 125.83C127.091 127.929 128.879 129.544 130.978 129.438C131.83 129.395 132.518 129.079 133.026 128.578C133.131 128.474 133.228 128.362 133.318 128.244" stroke="#FFE8E8" stroke-miterlimit="10" stroke-linecap="round" stroke-linejoin="round"/>
<path d="M137.351 125.477L140.728 128.944" stroke="#FFE8E8" stroke-miterlimit="10" stroke-linecap="round" stroke-linejoin="round"/>
<path d="M136.635 129.151L136.235 121.55C136.235 121.55 137.593 121.482 138.255 121.448C139.386 121.391 140.388 122.227 140.443 123.318C140.498 124.409 139.586 125.342 138.456 125.399C137.895 125.428 136.746 125.495 136.746 125.495" stroke="#FFE8E8" stroke-miterlimit="10" stroke-linecap="round" stroke-linejoin="round"/>
<g clip-path="url(#clip0_245_1623)">
<path d="M146.712 354.848L107.321 324.61" stroke="#FFE8E8" stroke-miterlimit="10" stroke-linecap="round" stroke-linejoin="round"/>
<path d="M94.0559 341.504L111.39 318.923C112 318.127 113.14 317.978 113.935 318.588L143.968 341.642" stroke="#FFE8E8" stroke-miterlimit="10" stroke-linecap="round" stroke-linejoin="round"/>
<path d="M146.83 343.839L150.807 346.891C151.602 347.502 151.752 348.641 151.141 349.436L129.53 377.59C128.92 378.385 127.78 378.535 126.985 377.925L90.1133 349.621C89.3181 349.011 89.1684 347.872 89.7787 347.076L91.948 344.25" stroke="#FFE8E8" stroke-miterlimit="10" stroke-linecap="round" stroke-linejoin="round"/>
<path d="M113.325 325.576C113.987 326.084 114.937 325.959 115.445 325.297C115.954 324.634 115.829 323.685 115.166 323.176C114.504 322.668 113.554 322.792 113.046 323.455C112.537 324.118 112.662 325.067 113.325 325.576Z" stroke="#FFE8E8" stroke-miterlimit="10" stroke-linecap="round" stroke-linejoin="round"/>
<path d="M118.323 329.413C118.986 329.922 119.936 329.797 120.444 329.134C120.953 328.471 120.828 327.522 120.165 327.013C119.503 326.505 118.553 326.63 118.045 327.292C117.536 327.955 117.661 328.904 118.323 329.413Z" stroke="#FFE8E8" stroke-miterlimit="10" stroke-linecap="round" stroke-linejoin="round"/>
<path d="M123.322 333.25C123.985 333.759 124.935 333.634 125.443 332.971C125.952 332.309 125.827 331.359 125.164 330.851C124.502 330.342 123.552 330.467 123.044 331.129C122.535 331.792 122.66 332.742 123.322 333.25Z" stroke="#FFE8E8" stroke-miterlimit="10" stroke-linecap="round" stroke-linejoin="round"/>
<path d="M97.5433 349.942L97.1268 349.622C95.9924 348.751 94.3619 348.971 93.4851 350.114L92.7581 351.061C92.6005 351.266 92.6381 351.559 92.842 351.716L101.062 358.025C101.266 358.182 101.559 358.142 101.716 357.937L102.443 356.99C103.32 355.848 103.111 354.216 101.977 353.345L101.587 353.046" stroke="#FFE8E8" stroke-miterlimit="10" stroke-linecap="round" stroke-linejoin="round"/>
<path d="M98.249 348.047L99.5366 346.37C100.588 345 102.55 344.742 103.919 345.794C105.289 346.845 105.547 348.807 104.495 350.176L103.215 351.844C102.162 353.216 100.196 353.475 98.8241 352.422C97.4574 351.372 97.1998 349.414 98.249 348.047Z" stroke="#FFE8E8" stroke-miterlimit="10" stroke-linecap="round" stroke-linejoin="round"/>
<path d="M99.3053 346.922L104.022 350.542" stroke="#FFE8E8" stroke-miterlimit="10" stroke-linecap="round" stroke-linejoin="round"/>
<path d="M109.141 358.844L108.724 358.524C107.59 357.654 105.959 357.874 105.083 359.016L104.356 359.963C104.198 360.168 104.236 360.462 104.44 360.618L112.659 366.928C112.863 367.084 113.156 367.045 113.314 366.839L114.041 365.892C114.918 364.75 114.709 363.118 113.574 362.247L113.184 361.948" stroke="#FFE8E8" stroke-miterlimit="10" stroke-linecap="round" stroke-linejoin="round"/>
<path d="M109.846 356.95L111.134 355.272C112.185 353.903 114.147 353.645 115.517 354.696C116.886 355.747 117.144 357.709 116.093 359.079L114.813 360.747C113.759 362.119 111.794 362.377 110.422 361.324C109.055 360.275 108.797 358.316 109.846 356.95Z" stroke="#FFE8E8" stroke-miterlimit="10" stroke-linecap="round" stroke-linejoin="round"/>
<path d="M110.903 355.824L115.62 359.445" stroke="#FFE8E8" stroke-miterlimit="10" stroke-linecap="round" stroke-linejoin="round"/>
<path d="M120.738 367.747L120.322 367.427C119.187 366.556 117.557 366.776 116.68 367.918L115.953 368.865C115.795 369.071 115.833 369.364 116.037 369.521L124.257 375.83C124.46 375.987 124.754 375.947 124.911 375.742L125.638 374.795C126.515 373.652 126.306 372.021 125.172 371.15L124.782 370.851" stroke="#FFE8E8" stroke-miterlimit="10" stroke-linecap="round" stroke-linejoin="round"/>
<path d="M121.444 365.852L122.732 364.175C123.783 362.805 125.745 362.547 127.114 363.598C128.484 364.65 128.742 366.612 127.691 367.981L126.41 369.649C125.357 371.021 123.391 371.28 122.019 370.226C120.652 369.177 120.395 367.219 121.444 365.852Z" stroke="#FFE8E8" stroke-miterlimit="10" stroke-linecap="round" stroke-linejoin="round"/>
<path d="M122.5 364.726L127.217 368.347" stroke="#FFE8E8" stroke-miterlimit="10" stroke-linecap="round" stroke-linejoin="round"/>
<path d="M122.39 352.996L128.199 347.718C128.336 347.595 128.547 347.736 128.487 347.91L125.606 355.388C125.549 355.552 125.734 355.692 125.876 355.594L132.293 350.833C132.445 350.728 132.636 350.893 132.555 351.059L129.022 358.087" stroke="#FFE8E8" stroke-miterlimit="10" stroke-linecap="round" stroke-linejoin="round"/>
<path d="M118.035 340.586C117.793 339.861 117.34 339.198 116.688 338.698C114.951 337.365 112.461 337.692 111.128 339.429C109.794 341.167 110.121 343.656 111.859 344.99C112.564 345.532 113.323 345.745 114.065 345.691C114.218 345.68 114.371 345.657 114.522 345.623" stroke="#FFE8E8" stroke-miterlimit="10" stroke-linecap="round" stroke-linejoin="round"/>
<path d="M119.591 346.153L119.929 351.185" stroke="#FFE8E8" stroke-miterlimit="10" stroke-linecap="round" stroke-linejoin="round"/>
<path d="M116.541 348.584L121.359 342.283C121.359 342.283 122.482 343.146 123.03 343.567C123.966 344.285 124.196 345.625 123.503 346.528C122.81 347.431 121.456 347.555 120.52 346.837C120.056 346.481 119.099 345.758 119.099 345.758" stroke="#FFE8E8" stroke-miterlimit="10" stroke-linecap="round" stroke-linejoin="round"/>
</g>
<path d="M86.9858 486.045L41.7385 493.037" stroke="#FFE8E8" stroke-miterlimit="10" stroke-linecap="round" stroke-linejoin="round"/>
<path d="M44.5483 512.64L40.54 486.702C40.3988 485.788 41.0248 484.934 41.9381 484.793L76.4362 479.462" stroke="#FFE8E8" stroke-miterlimit="10" stroke-linecap="round" stroke-linejoin="round"/>
<path d="M79.7232 478.954L84.2912 478.248C85.2045 478.107 86.0594 478.733 86.2005 479.646L91.1979 511.985C91.339 512.898 90.713 513.753 89.7997 513.894L47.4466 520.439C46.5333 520.58 45.6785 519.954 45.5373 519.041L45.0357 515.795" stroke="#FFE8E8" stroke-miterlimit="10" stroke-linecap="round" stroke-linejoin="round"/>
<path d="M46.2067 489.651C46.9678 489.533 47.4894 488.821 47.3718 488.06C47.2542 487.298 46.5419 486.777 45.7808 486.894C45.0197 487.012 44.4981 487.724 44.6157 488.485C44.7333 489.247 45.4456 489.768 46.2067 489.651Z" stroke="#FFE8E8" stroke-miterlimit="10" stroke-linecap="round" stroke-linejoin="round"/>
<path d="M51.9486 488.763C52.7097 488.646 53.2314 487.933 53.1138 487.172C52.9962 486.411 52.2838 485.89 51.5227 486.007C50.7616 486.125 50.24 486.837 50.3576 487.598C50.4752 488.359 51.1876 488.881 51.9486 488.763Z" stroke="#FFE8E8" stroke-miterlimit="10" stroke-linecap="round" stroke-linejoin="round"/>
<path d="M57.6907 487.876C58.4518 487.758 58.9735 487.046 58.8558 486.285C58.7382 485.524 58.0259 485.002 57.2648 485.12C56.5037 485.237 55.9821 485.95 56.0997 486.711C56.2173 487.472 56.9296 487.994 57.6907 487.876Z" stroke="#FFE8E8" stroke-miterlimit="10" stroke-linecap="round" stroke-linejoin="round"/>
<path d="M52.3935 515.691L51.915 515.765C50.612 515.966 49.72 517.193 49.9228 518.505L50.0909 519.593C50.1273 519.829 50.3468 519.991 50.581 519.955L60.0225 518.496C60.2567 518.459 60.417 518.239 60.3806 518.003L60.2125 516.915C60.0097 515.603 58.789 514.703 57.486 514.904L57.0382 514.973" stroke="#FFE8E8" stroke-miterlimit="10" stroke-linecap="round" stroke-linejoin="round"/>
<path d="M51.5803 514.014L51.2825 512.087C51.0394 510.514 52.1175 509.042 53.6904 508.799C55.2634 508.556 56.7355 509.634 56.9786 511.207L57.2747 513.123C57.5182 514.699 56.4381 516.174 54.8622 516.417C53.2923 516.66 51.8229 515.584 51.5803 514.014Z" stroke="#FFE8E8" stroke-miterlimit="10" stroke-linecap="round" stroke-linejoin="round"/>
<path d="M51.5029 512.593L56.921 511.755" stroke="#FFE8E8" stroke-miterlimit="10" stroke-linecap="round" stroke-linejoin="round"/>
<path d="M65.7149 513.632L65.2364 513.706C63.9334 513.908 63.0414 515.135 63.2442 516.447L63.4123 517.535C63.4487 517.77 63.6682 517.932 63.9024 517.896L73.3439 516.437C73.5781 516.401 73.7384 516.18 73.702 515.944L73.5339 514.857C73.3311 513.545 72.1104 512.644 70.8074 512.845L70.3596 512.915" stroke="#FFE8E8" stroke-miterlimit="10" stroke-linecap="round" stroke-linejoin="round"/>
<path d="M64.9017 511.955L64.6039 510.028C64.3609 508.455 65.4389 506.983 67.0119 506.74C68.5848 506.497 70.0569 507.575 70.3 509.148L70.5961 511.064C70.8396 512.64 69.7595 514.115 68.1837 514.358C66.6137 514.601 65.1443 513.525 64.9017 511.955Z" stroke="#FFE8E8" stroke-miterlimit="10" stroke-linecap="round" stroke-linejoin="round"/>
<path d="M64.8243 510.534L70.2424 509.697" stroke="#FFE8E8" stroke-miterlimit="10" stroke-linecap="round" stroke-linejoin="round"/>
<path d="M79.0365 511.574L78.558 511.648C77.255 511.849 76.363 513.076 76.5657 514.388L76.7338 515.476C76.7703 515.712 76.9897 515.874 77.2239 515.837L86.6654 514.378C86.8996 514.342 87.06 514.122 87.0235 513.886L86.8554 512.798C86.6527 511.486 85.432 510.586 84.1289 510.787L83.6811 510.856" stroke="#FFE8E8" stroke-miterlimit="10" stroke-linecap="round" stroke-linejoin="round"/>
<path d="M78.2232 509.897L77.9255 507.97C77.6824 506.397 78.7604 504.925 80.3334 504.682C81.9063 504.439 83.3785 505.517 83.6215 507.09L83.9176 509.006C84.1611 510.581 83.0811 512.056 81.5052 512.3C79.9352 512.543 78.4658 511.466 78.2232 509.897Z" stroke="#FFE8E8" stroke-miterlimit="10" stroke-linecap="round" stroke-linejoin="round"/>
<path d="M78.1459 508.476L83.5639 507.638" stroke="#FFE8E8" stroke-miterlimit="10" stroke-linecap="round" stroke-linejoin="round"/>
<path d="M70.2571 501.076L70.4398 493.842C70.446 493.673 70.6736 493.622 70.7516 493.773L73.9003 500.457C73.9734 500.599 74.1846 500.565 74.2101 500.408L75.124 493.098C75.1512 492.93 75.3832 492.908 75.442 493.067L77.8753 499.899" stroke="#FFE8E8" stroke-miterlimit="10" stroke-linecap="round" stroke-linejoin="round"/>
<path d="M59.2114 496.073C58.5745 495.773 57.8441 495.653 57.0957 495.768C55.1 496.077 53.7322 497.945 54.0406 499.94C54.349 501.936 56.2168 503.304 58.2125 502.995C59.023 502.87 59.6485 502.5 60.0848 501.971C60.1751 501.862 60.2572 501.746 60.3313 501.624" stroke="#FFE8E8" stroke-miterlimit="10" stroke-linecap="round" stroke-linejoin="round"/>
<path d="M63.9132 498.583L67.482 501.563" stroke="#FFE8E8" stroke-miterlimit="10" stroke-linecap="round" stroke-linejoin="round"/>
<path d="M63.5904 502.164L62.4602 494.939C62.4602 494.939 63.7507 494.74 64.3807 494.643C65.4556 494.477 66.4952 495.177 66.6555 496.214C66.8158 497.252 66.0362 498.233 64.9612 498.399C64.4281 498.481 63.3369 498.659 63.3369 498.659" stroke="#FFE8E8" stroke-miterlimit="10" stroke-linecap="round" stroke-linejoin="round"/>
<g clip-path="url(#clip1_245_1623)">
<mask id="mask0_245_1623" style="mask-type:luminance" maskUnits="userSpaceOnUse" x="30" y="201" width="64" height="64">
<path d="M93.3004 218.247L47.2466 201L30 247.054L76.0538 264.3L93.3004 218.247Z" fill="white"/>
</mask>
<g mask="url(#mask0_245_1623)">
<path d="M54.81 222.87C52.8969 224.206 51.3547 226.115 50.4745 228.465C48.1631 234.637 51.2929 241.515 57.465 243.826C63.6372 246.137 70.5145 243.008 72.8259 236.835C75.1373 230.663 72.0076 223.786 65.8354 221.475C63.1517 220.469 60.3347 220.493 57.8176 221.348" stroke="#FFE8E8" stroke-miterlimit="10" stroke-linecap="round" stroke-linejoin="round"/>
<path d="M83.3738 222.764L85.4024 227.222C85.4995 227.435 85.4281 227.688 85.2334 227.818L80.2781 231.152C80.2073 231.2 80.1678 231.282 80.1737 231.367C80.2037 231.795 80.2188 232.226 80.2187 232.658C80.2187 232.744 80.2636 232.822 80.3375 232.865L85.5097 235.85C85.7128 235.968 85.8015 236.215 85.7192 236.434L82.2842 245.607C82.2019 245.827 81.9729 245.955 81.7426 245.91L75.8819 244.763C75.7981 244.747 75.7125 244.777 75.6565 244.841C75.3727 245.167 75.0783 245.482 74.7743 245.785C74.7138 245.846 74.69 245.933 74.712 246.015L76.2585 251.784C76.3193 252.011 76.2074 252.248 75.9939 252.345L67.0789 256.402C66.8654 256.5 66.613 256.428 66.482 256.233L63.1482 251.278C63.1004 251.207 63.0188 251.168 62.9336 251.174C62.5052 251.204 62.0743 251.219 61.6421 251.219C61.5569 251.219 61.478 251.264 61.4354 251.337L58.4502 256.51C58.3328 256.713 58.0859 256.801 57.8663 256.719L48.6936 253.284C48.474 253.202 48.346 252.973 48.391 252.743L49.5375 246.882C49.5538 246.798 49.5239 246.713 49.4596 246.656C49.1336 246.373 48.8187 246.078 48.5153 245.774C48.455 245.714 48.3675 245.69 48.285 245.712L42.5163 247.258C42.2897 247.319 42.0524 247.207 41.9553 246.994L37.8982 238.079C37.801 237.865 37.8725 237.613 38.0671 237.482L43.0225 234.148C43.0932 234.1 43.1327 234.019 43.1268 233.934C43.0968 233.505 43.0816 233.074 43.0819 232.642C43.0818 232.557 43.0369 232.478 42.9631 232.435L37.7909 229.45C37.5877 229.333 37.4991 229.086 37.5813 228.866L41.0164 219.694C41.0986 219.474 41.3276 219.346 41.5579 219.391L47.4187 220.537C47.5023 220.554 47.588 220.524 47.6441 220.46C47.9278 220.134 48.2222 219.819 48.5263 219.515C48.5866 219.455 48.6106 219.367 48.5885 219.285L47.042 213.516C46.9812 213.29 47.0932 213.052 47.3067 212.955L56.2217 208.898C56.4352 208.801 56.6876 208.872 56.8185 209.067L60.1524 214.022C60.2 214.093 60.2817 214.133 60.3669 214.127C60.7954 214.097 61.2262 214.082 61.6584 214.082C61.7437 214.082 61.8226 214.037 61.8652 213.963L64.8504 208.791C64.9676 208.588 65.2146 208.499 65.4343 208.581L74.6069 212.016C74.8266 212.099 74.9545 212.328 74.9096 212.558L73.7631 218.419C73.7467 218.502 73.7767 218.588 73.8409 218.644C74.1669 218.928 74.4818 219.222 74.7852 219.526C74.8455 219.587 74.933 219.611 75.0155 219.589L80.7842 218.042C81.0109 217.981 81.2481 218.093 81.3453 218.307L81.969 219.677" stroke="#FFE8E8" stroke-miterlimit="10" stroke-linecap="round" stroke-linejoin="round"/>
<path d="M43.3271 229.651C43.5211 228.474 43.8318 227.299 44.2659 226.14C44.7001 224.981 45.2377 223.89 45.8644 222.876" stroke="#FFE8E8" stroke-miterlimit="10" stroke-linecap="round" stroke-linejoin="round"/>
<path d="M46.575 243.486C45.1568 241.509 44.1371 239.268 43.5779 236.9" stroke="#FFE8E8" stroke-miterlimit="10" stroke-linecap="round" stroke-linejoin="round"/>
<path d="M58.6513 250.973C57.4745 250.779 56.2993 250.469 55.1401 250.035C53.9808 249.601 52.8906 249.063 51.876 248.436" stroke="#FFE8E8" stroke-miterlimit="10" stroke-linecap="round" stroke-linejoin="round"/>
<path d="M72.4856 247.726C70.5085 249.144 68.268 250.163 65.9 250.723" stroke="#FFE8E8" stroke-miterlimit="10" stroke-linecap="round" stroke-linejoin="round"/>
<path d="M79.9735 235.649C79.7795 236.826 79.4689 238.001 79.0347 239.16C78.6006 240.32 78.0629 241.41 77.4362 242.425" stroke="#FFE8E8" stroke-miterlimit="10" stroke-linecap="round" stroke-linejoin="round"/>
<path d="M76.7256 221.815C78.1438 223.792 79.1635 226.032 79.7227 228.401" stroke="#FFE8E8" stroke-miterlimit="10" stroke-linecap="round" stroke-linejoin="round"/>
<path d="M64.6494 214.327C65.8262 214.521 67.0013 214.832 68.1606 215.266C69.3198 215.7 70.4101 216.238 71.4247 216.864" stroke="#FFE8E8" stroke-miterlimit="10" stroke-linecap="round" stroke-linejoin="round"/>
<path d="M50.8149 217.575C52.7919 216.157 55.0324 215.137 57.4005 214.578" stroke="#FFE8E8" stroke-miterlimit="10" stroke-linecap="round" stroke-linejoin="round"/>
<path d="M65.6365 236.752L64.8459 235.014" stroke="#FFE8E8" stroke-miterlimit="10" stroke-linecap="round" stroke-linejoin="round"/>
<path d="M63.1235 237.895L62.3329 236.158" stroke="#FFE8E8" stroke-miterlimit="10" stroke-linecap="round" stroke-linejoin="round"/>
<path d="M56.959 232.666L54.5795 233.748C54.0923 233.97 53.5176 233.755 53.296 233.268L52.9553 232.519C52.7335 232.032 52.9488 231.457 53.436 231.236L55.8154 230.153C56.5093 229.837 57.3278 230.143 57.6436 230.837C57.9594 231.531 57.6529 232.35 56.959 232.666Z" stroke="#FFE8E8" stroke-miterlimit="10" stroke-linecap="round" stroke-linejoin="round"/>
<path d="M58.1025 235.178L55.7231 236.261C55.2358 236.483 54.6612 236.268 54.4395 235.781L54.0988 235.032C53.8771 234.545 54.0923 233.97 54.5795 233.748L56.959 232.666C57.6528 232.35 58.4714 232.656 58.7872 233.35C59.1029 234.044 58.7964 234.863 58.1025 235.178Z" stroke="#FFE8E8" stroke-miterlimit="10" stroke-linecap="round" stroke-linejoin="round"/>
<path d="M59.2462 237.691L56.8667 238.774C56.3795 238.996 55.8048 238.781 55.5831 238.293L55.2424 237.545C55.0207 237.058 55.2359 236.483 55.7231 236.261L58.1026 235.178C58.7964 234.863 59.615 235.169 59.9308 235.863C60.2466 236.557 59.9401 237.376 59.2462 237.691Z" stroke="#FFE8E8" stroke-miterlimit="10" stroke-linecap="round" stroke-linejoin="round"/>
<path d="M60.1938 240.293L58.4826 241.072C57.9955 241.294 57.4208 241.079 57.199 240.591L56.8584 239.843C56.6367 239.356 56.8519 238.781 57.339 238.559L59.0503 237.781C59.7442 237.465 60.5627 237.771 60.8785 238.465C61.1943 239.159 60.8878 239.978 60.1938 240.293Z" stroke="#FFE8E8" stroke-miterlimit="10" stroke-linecap="round" stroke-linejoin="round"/>
<path d="M66.6325 229.223C66.3124 229.513 65.9029 229.69 65.4713 229.723" stroke="#FFE8E8" stroke-miterlimit="10" stroke-linecap="round" stroke-linejoin="round"/>
<path d="M65.4713 229.724C65.1959 229.745 64.9115 229.708 64.6357 229.605L63.8795 229.322L63.7784 229.591C63.3 230.869 61.8766 231.517 60.5991 231.038C60.5268 231.011 60.4682 230.957 60.4363 230.886C60.4043 230.816 60.4016 230.736 60.4287 230.664C60.733 229.852 61.6086 227.513 61.6186 227.487C62.151 226.114 63.6917 225.419 65.0768 225.938L67.2187 226.74L67.2206 226.741C67.3456 226.788 67.4842 226.783 67.6057 226.728L70.9715 225.196" stroke="#FFE8E8" stroke-miterlimit="10" stroke-linecap="round" stroke-linejoin="round"/>
<path d="M73.5814 232.285L70.701 233.596C70.5854 233.648 70.4927 233.743 70.4479 233.862C70.0712 234.859 69.4075 235.748 68.5071 236.394C68.2569 236.574 67.9966 236.729 67.7293 236.861" stroke="#FFE8E8" stroke-miterlimit="10" stroke-linecap="round" stroke-linejoin="round"/>
<path d="M59.5184 220.907L61.0523 224.277C61.1053 224.394 61.2009 224.487 61.3208 224.531C62.0891 224.817 62.7942 225.272 63.3748 225.875" stroke="#FFE8E8" stroke-miterlimit="10" stroke-linecap="round" stroke-linejoin="round"/>
<path d="M54.0206 230.969C53.7661 229.891 53.8497 228.784 54.2209 227.785C54.2652 227.666 54.2575 227.534 54.2048 227.418L52.894 224.538" stroke="#FFE8E8" stroke-miterlimit="10" stroke-linecap="round" stroke-linejoin="round"/>
<path d="M67.8106 234.864L68.1493 235.608C68.3724 236.098 68.153 236.671 67.6686 236.892L66.9199 237.232C66.4327 237.454 65.8581 237.239 65.6363 236.752C65.8581 237.239 65.6429 237.814 65.1557 238.035L64.407 238.376C63.9198 238.598 63.3452 238.382 63.1235 237.895C63.3452 238.382 63.13 238.957 62.6428 239.179L60.1937 240.293" stroke="#FFE8E8" stroke-miterlimit="10" stroke-linecap="round" stroke-linejoin="round"/>
<path d="M65.4712 229.724L66.3888 231.74" stroke="#FFE8E8" stroke-miterlimit="10" stroke-linecap="round" stroke-linejoin="round"/>
</g>
</g>
<g clip-path="url(#clip2_245_1623)">
<mask id="mask1_245_1623" style="mask-type:luminance" maskUnits="userSpaceOnUse" x="165" y="402" width="50" height="49">
<path d="M207.703 402L165.935 408.298L172.232 450.065L214 443.768L207.703 402Z" fill="white"/>
</mask>
<g mask="url(#mask1_245_1623)">
<path d="M180.748 421.551C179.87 423.352 179.511 425.429 179.832 427.561C180.676 433.159 185.898 437.012 191.496 436.168C197.094 435.324 200.947 430.102 200.103 424.504C199.259 418.907 194.037 415.053 188.439 415.897C186.005 416.264 183.901 417.459 182.37 419.152" stroke="#FFE8E8" stroke-miterlimit="10" stroke-linecap="round" stroke-linejoin="round"/>
<path d="M202.14 409.538L205.525 412.035C205.687 412.155 205.739 412.374 205.648 412.554L203.321 417.126C203.288 417.191 203.293 417.269 203.333 417.331C203.534 417.64 203.726 417.957 203.906 418.281C203.942 418.345 204.008 418.386 204.082 418.387L209.21 418.466C209.412 418.469 209.582 418.618 209.612 418.817L210.866 427.136C210.896 427.335 210.778 427.527 210.586 427.589L205.709 429.177C205.639 429.2 205.587 429.258 205.572 429.33C205.495 429.693 205.406 430.052 205.304 430.407C205.284 430.478 205.303 430.553 205.354 430.606L208.925 434.289C209.065 434.434 209.08 434.659 208.96 434.821L203.965 441.59C203.845 441.752 203.626 441.804 203.446 441.713L198.874 439.387C198.809 439.353 198.731 439.358 198.67 439.398C198.36 439.599 198.044 439.791 197.719 439.971C197.655 440.007 197.615 440.074 197.614 440.147L197.534 445.276C197.531 445.477 197.383 445.647 197.183 445.677L188.864 446.931C188.665 446.961 188.473 446.843 188.411 446.651L186.823 441.774C186.8 441.704 186.742 441.652 186.67 441.637C186.307 441.56 185.948 441.471 185.593 441.37C185.523 441.349 185.447 441.368 185.394 441.419L181.711 444.99C181.566 445.13 181.342 445.145 181.179 445.026L174.41 440.03C174.248 439.91 174.196 439.691 174.288 439.512L176.614 434.939C176.647 434.874 176.642 434.796 176.602 434.735C176.401 434.426 176.209 434.109 176.029 433.784C175.993 433.72 175.927 433.68 175.853 433.679L170.725 433.599C170.523 433.596 170.353 433.448 170.323 433.249L169.069 424.93C169.039 424.73 169.157 424.539 169.349 424.476L174.226 422.888C174.296 422.865 174.348 422.807 174.363 422.735C174.44 422.372 174.529 422.013 174.631 421.658C174.651 421.588 174.632 421.512 174.581 421.459L171.01 417.776C170.87 417.632 170.855 417.407 170.975 417.245L175.97 410.475C176.09 410.313 176.309 410.261 176.489 410.353L181.061 412.679C181.126 412.712 181.204 412.707 181.266 412.667C181.575 412.466 181.892 412.275 182.216 412.094C182.28 412.058 182.32 411.992 182.322 411.919L182.401 406.79C182.404 406.588 182.552 406.419 182.752 406.389L191.071 405.134C191.27 405.104 191.462 405.223 191.524 405.414L193.112 410.292C193.135 410.361 193.193 410.413 193.265 410.428C193.628 410.505 193.987 410.594 194.342 410.696C194.413 410.716 194.488 410.697 194.541 410.646L198.224 407.076C198.369 406.935 198.594 406.92 198.756 407.04L199.796 407.808" stroke="#FFE8E8" stroke-miterlimit="10" stroke-linecap="round" stroke-linejoin="round"/>
<path d="M174.963 431.437C174.617 430.473 174.36 429.461 174.201 428.41C174.042 427.358 173.99 426.316 174.037 425.292" stroke="#FFE8E8" stroke-miterlimit="10" stroke-linecap="round" stroke-linejoin="round"/>
<path d="M183.181 440.463C181.29 439.571 179.589 438.316 178.18 436.772" stroke="#FFE8E8" stroke-miterlimit="10" stroke-linecap="round" stroke-linejoin="round"/>
<path d="M195.372 441.037C194.408 441.383 193.396 441.641 192.345 441.799C191.293 441.958 190.251 442.01 189.227 441.963" stroke="#FFE8E8" stroke-miterlimit="10" stroke-linecap="round" stroke-linejoin="round"/>
<path d="M204.397 432.82C203.506 434.71 202.251 436.411 200.707 437.82" stroke="#FFE8E8" stroke-miterlimit="10" stroke-linecap="round" stroke-linejoin="round"/>
<path d="M204.972 420.628C205.318 421.592 205.576 422.604 205.734 423.655C205.893 424.707 205.944 425.75 205.898 426.773" stroke="#FFE8E8" stroke-miterlimit="10" stroke-linecap="round" stroke-linejoin="round"/>
<path d="M196.754 411.603C198.645 412.494 200.346 413.749 201.755 415.293" stroke="#FFE8E8" stroke-miterlimit="10" stroke-linecap="round" stroke-linejoin="round"/>
<path d="M184.563 411.029C185.527 410.682 186.539 410.425 187.59 410.266C188.642 410.108 189.685 410.056 190.708 410.102" stroke="#FFE8E8" stroke-miterlimit="10" stroke-linecap="round" stroke-linejoin="round"/>
<path d="M175.538 419.246C176.429 417.356 177.684 415.654 179.228 414.245" stroke="#FFE8E8" stroke-miterlimit="10" stroke-linecap="round" stroke-linejoin="round"/>
<path d="M194.673 427.445L193.353 426.472" stroke="#FFE8E8" stroke-miterlimit="10" stroke-linecap="round" stroke-linejoin="round"/>
<path d="M193.265 429.353L191.945 428.38" stroke="#FFE8E8" stroke-miterlimit="10" stroke-linecap="round" stroke-linejoin="round"/>
<path d="M186.453 428.004L185.12 429.811C184.847 430.181 184.326 430.259 183.956 429.986L183.387 429.567C183.017 429.294 182.939 428.773 183.212 428.403L184.545 426.596C184.934 426.069 185.676 425.957 186.203 426.346C186.73 426.735 186.842 427.477 186.453 428.004Z" stroke="#FFE8E8" stroke-miterlimit="10" stroke-linecap="round" stroke-linejoin="round"/>
<path d="M188.361 429.412L187.028 431.219C186.755 431.589 186.234 431.668 185.864 431.395L185.295 430.975C184.926 430.702 184.847 430.181 185.12 429.811L186.453 428.004C186.842 427.477 187.584 427.365 188.111 427.754C188.638 428.143 188.75 428.885 188.361 429.412Z" stroke="#FFE8E8" stroke-miterlimit="10" stroke-linecap="round" stroke-linejoin="round"/>
<path d="M190.269 430.82L188.936 432.627C188.663 432.997 188.142 433.076 187.772 432.803L187.203 432.383C186.834 432.11 186.755 431.589 187.028 431.219L188.361 429.412C188.75 428.885 189.492 428.773 190.019 429.162C190.546 429.551 190.658 430.293 190.269 430.82Z" stroke="#FFE8E8" stroke-miterlimit="10" stroke-linecap="round" stroke-linejoin="round"/>
<path d="M192.068 432.377L191.109 433.677C190.836 434.046 190.315 434.125 189.945 433.852L189.376 433.433C189.006 433.16 188.928 432.638 189.201 432.268L190.16 430.969C190.548 430.442 191.291 430.33 191.818 430.719C192.345 431.108 192.457 431.85 192.068 432.377Z" stroke="#FFE8E8" stroke-miterlimit="10" stroke-linecap="round" stroke-linejoin="round"/>
<path d="M192.275 421.379C192.156 421.73 191.922 422.034 191.612 422.24" stroke="#FFE8E8" stroke-miterlimit="10" stroke-linecap="round" stroke-linejoin="round"/>
<path d="M191.612 422.24C191.415 422.371 191.186 422.462 190.936 422.5L190.25 422.603L190.287 422.848C190.461 424.007 189.664 425.087 188.505 425.262C188.44 425.272 188.373 425.255 188.319 425.216C188.266 425.177 188.231 425.118 188.221 425.052C188.11 424.316 187.79 422.195 187.787 422.171C187.612 420.918 188.479 419.753 189.735 419.564L191.677 419.271L191.679 419.271C191.792 419.253 191.894 419.192 191.963 419.1L193.849 416.544" stroke="#FFE8E8" stroke-miterlimit="10" stroke-linecap="round" stroke-linejoin="round"/>
<path d="M198.769 420.774L197.155 422.961C197.09 423.049 197.06 423.158 197.076 423.266C197.21 424.172 197.084 425.117 196.678 425.978C196.565 426.217 196.435 426.443 196.289 426.653" stroke="#FFE8E8" stroke-miterlimit="10" stroke-linecap="round" stroke-linejoin="round"/>
<path d="M183.461 418.11L186.021 419.999C186.109 420.064 186.22 420.094 186.328 420.077C187.024 419.971 187.744 420.018 188.431 420.228" stroke="#FFE8E8" stroke-miterlimit="10" stroke-linecap="round" stroke-linejoin="round"/>
<path d="M183.539 427.959C182.898 427.256 182.498 426.39 182.359 425.485C182.343 425.377 182.282 425.281 182.194 425.217L180.007 423.603" stroke="#FFE8E8" stroke-miterlimit="10" stroke-linecap="round" stroke-linejoin="round"/>
<path d="M195.516 425.12L196.081 425.537C196.453 425.812 196.528 426.334 196.256 426.701L195.837 427.27C195.564 427.64 195.042 427.718 194.673 427.445C195.042 427.718 195.121 428.24 194.848 428.609L194.429 429.178C194.156 429.548 193.634 429.626 193.264 429.353C193.634 429.626 193.713 430.148 193.44 430.517L192.068 432.377" stroke="#FFE8E8" stroke-miterlimit="10" stroke-linecap="round" stroke-linejoin="round"/>
<path d="M191.612 422.24L193.143 423.37" stroke="#FFE8E8" stroke-miterlimit="10" stroke-linecap="round" stroke-linejoin="round"/>
</g>
</g>
<g clip-path="url(#clip3_245_1623)">
<mask id="mask2_245_1623" style="mask-type:luminance" maskUnits="userSpaceOnUse" x="117" y="604" width="59" height="59">
<path d="M176 622.053L135.399 604L117.347 644.601L157.947 662.653L176 622.053Z" fill="white"/>
</mask>
<g mask="url(#mask2_245_1623)">
<path d="M141.035 624.135C139.237 625.236 137.742 626.874 136.821 628.946C134.401 634.387 136.851 640.76 142.293 643.179C147.734 645.599 154.106 643.149 156.526 637.708C158.945 632.266 156.495 625.894 151.054 623.474C148.688 622.422 146.146 622.291 143.83 622.926" stroke="#FFE8E8" stroke-miterlimit="10" stroke-linecap="round" stroke-linejoin="round"/>
<path d="M166.802 625.589L168.39 629.719C168.466 629.917 168.388 630.141 168.205 630.248L163.555 632.986C163.489 633.025 163.449 633.097 163.449 633.174C163.453 633.562 163.443 633.951 163.42 634.341C163.415 634.418 163.451 634.492 163.516 634.534L168.019 637.507C168.195 637.624 168.262 637.851 168.176 638.045L164.58 646.132C164.494 646.325 164.281 646.428 164.075 646.375L158.852 645.023C158.777 645.004 158.698 645.026 158.644 645.081C158.371 645.36 158.088 645.628 157.797 645.885C157.74 645.936 157.713 646.014 157.729 646.089L158.811 651.376C158.853 651.584 158.739 651.792 158.542 651.868L150.281 655.043C150.083 655.119 149.859 655.041 149.752 654.859L147.014 650.208C146.975 650.142 146.903 650.102 146.826 650.103C146.438 650.107 146.049 650.097 145.659 650.073C145.582 650.069 145.508 650.105 145.466 650.169L142.493 654.672C142.376 654.849 142.149 654.915 141.955 654.829L133.868 651.234C133.675 651.148 133.572 650.934 133.625 650.729L134.977 645.505C134.996 645.431 134.974 645.352 134.919 645.298C134.64 645.024 134.372 644.742 134.115 644.451C134.064 644.393 133.986 644.367 133.911 644.382L128.624 645.464C128.416 645.507 128.208 645.393 128.132 645.195L124.957 636.934C124.881 636.737 124.959 636.513 125.141 636.405L129.792 633.667C129.858 633.628 129.898 633.557 129.897 633.479C129.894 633.091 129.903 632.702 129.927 632.312C129.931 632.235 129.895 632.162 129.831 632.119L125.328 629.146C125.151 629.03 125.085 628.802 125.171 628.608L128.766 620.522C128.852 620.328 129.066 620.225 129.271 620.278L134.495 621.63C134.569 621.65 134.648 621.627 134.702 621.572C134.976 621.294 135.258 621.026 135.549 620.768C135.607 620.717 135.633 620.64 135.618 620.564L134.536 615.277C134.493 615.07 134.607 614.862 134.805 614.786L143.066 611.61C143.263 611.534 143.487 611.612 143.595 611.795L146.333 616.445C146.372 616.511 146.443 616.552 146.521 616.551C146.909 616.547 147.298 616.557 147.688 616.58C147.765 616.585 147.838 616.549 147.881 616.484L150.854 611.981C150.97 611.805 151.198 611.738 151.392 611.824L159.478 615.42C159.672 615.506 159.775 615.719 159.722 615.925L158.37 621.148C158.351 621.223 158.373 621.302 158.428 621.356C158.706 621.629 158.974 621.912 159.232 622.203C159.283 622.26 159.36 622.287 159.436 622.271L164.723 621.189C164.93 621.147 165.138 621.261 165.214 621.459L165.702 622.728" stroke="#FFE8E8" stroke-miterlimit="10" stroke-linecap="round" stroke-linejoin="round"/>
<path d="M130.31 629.628C130.549 628.577 130.893 627.534 131.347 626.512C131.802 625.49 132.346 624.536 132.966 623.655" stroke="#FFE8E8" stroke-miterlimit="10" stroke-linecap="round" stroke-linejoin="round"/>
<path d="M132.489 642.281C131.317 640.421 130.519 638.345 130.143 636.179" stroke="#FFE8E8" stroke-miterlimit="10" stroke-linecap="round" stroke-linejoin="round"/>
<path d="M142.975 649.69C141.924 649.451 140.881 649.107 139.859 648.653C138.837 648.198 137.883 647.654 137.002 647.034" stroke="#FFE8E8" stroke-miterlimit="10" stroke-linecap="round" stroke-linejoin="round"/>
<path d="M155.628 647.511C153.768 648.683 151.692 649.481 149.526 649.857" stroke="#FFE8E8" stroke-miterlimit="10" stroke-linecap="round" stroke-linejoin="round"/>
<path d="M163.036 637.025C162.798 638.076 162.454 639.119 161.999 640.141C161.545 641.163 161.001 642.117 160.38 642.999" stroke="#FFE8E8" stroke-miterlimit="10" stroke-linecap="round" stroke-linejoin="round"/>
<path d="M160.858 624.372C162.029 626.232 162.828 628.308 163.203 630.474" stroke="#FFE8E8" stroke-miterlimit="10" stroke-linecap="round" stroke-linejoin="round"/>
<path d="M150.372 616.964C151.423 617.202 152.466 617.546 153.488 618.001C154.51 618.455 155.464 618.999 156.345 619.62" stroke="#FFE8E8" stroke-miterlimit="10" stroke-linecap="round" stroke-linejoin="round"/>
<path d="M137.719 619.143C139.579 617.971 141.655 617.173 143.821 616.797" stroke="#FFE8E8" stroke-miterlimit="10" stroke-linecap="round" stroke-linejoin="round"/>
<path d="M150.046 637.242L149.427 635.632" stroke="#FFE8E8" stroke-miterlimit="10" stroke-linecap="round" stroke-linejoin="round"/>
<path d="M147.718 638.137L147.099 636.527" stroke="#FFE8E8" stroke-miterlimit="10" stroke-linecap="round" stroke-linejoin="round"/>
<path d="M142.441 633.086L140.237 633.934C139.785 634.107 139.278 633.882 139.105 633.431L138.838 632.737C138.665 632.285 138.89 631.779 139.342 631.605L141.546 630.758C142.189 630.511 142.911 630.831 143.158 631.474C143.405 632.117 143.084 632.839 142.441 633.086Z" stroke="#FFE8E8" stroke-miterlimit="10" stroke-linecap="round" stroke-linejoin="round"/>
<path d="M143.337 635.415L141.132 636.262C140.68 636.436 140.174 636.21 140 635.759L139.733 635.065C139.56 634.614 139.785 634.107 140.237 633.934L142.441 633.086C143.084 632.839 143.806 633.16 144.053 633.803C144.3 634.446 143.979 635.167 143.337 635.415Z" stroke="#FFE8E8" stroke-miterlimit="10" stroke-linecap="round" stroke-linejoin="round"/>
<path d="M144.232 637.743L142.027 638.59C141.575 638.764 141.069 638.539 140.895 638.087L140.629 637.394C140.455 636.942 140.68 636.436 141.132 636.262L143.337 635.415C143.979 635.167 144.701 635.488 144.948 636.131C145.195 636.774 144.875 637.496 144.232 637.743Z" stroke="#FFE8E8" stroke-miterlimit="10" stroke-linecap="round" stroke-linejoin="round"/>
<path d="M144.945 640.141L143.36 640.751C142.908 640.924 142.402 640.699 142.228 640.247L141.961 639.554C141.788 639.102 142.013 638.596 142.464 638.422L144.05 637.813C144.693 637.566 145.415 637.886 145.662 638.529C145.909 639.172 145.588 639.894 144.945 640.141Z" stroke="#FFE8E8" stroke-miterlimit="10" stroke-linecap="round" stroke-linejoin="round"/>
<path d="M151.353 630.506C151.048 630.75 150.669 630.887 150.278 630.894" stroke="#FFE8E8" stroke-miterlimit="10" stroke-linecap="round" stroke-linejoin="round"/>
<path d="M150.278 630.894C150.029 630.899 149.774 630.85 149.531 630.742L148.864 630.446L148.759 630.683C148.258 631.81 146.939 632.317 145.813 631.816C145.749 631.788 145.699 631.735 145.674 631.67C145.649 631.605 145.651 631.533 145.679 631.469C145.998 630.753 146.914 628.691 146.925 628.669C147.479 627.459 148.907 626.916 150.128 627.459L152.016 628.298L152.018 628.299C152.128 628.348 152.253 628.351 152.366 628.308L155.485 627.109" stroke="#FFE8E8" stroke-miterlimit="10" stroke-linecap="round" stroke-linejoin="round"/>
<path d="M157.454 633.644L154.785 634.67C154.678 634.712 154.589 634.792 154.542 634.897C154.148 635.776 153.502 636.542 152.654 637.076C152.419 637.224 152.176 637.35 151.928 637.455" stroke="#FFE8E8" stroke-miterlimit="10" stroke-linecap="round" stroke-linejoin="round"/>
<path d="M145.388 622.62L146.588 625.743C146.63 625.851 146.711 625.94 146.816 625.986C147.494 626.286 148.105 626.735 148.596 627.31" stroke="#FFE8E8" stroke-miterlimit="10" stroke-linecap="round" stroke-linejoin="round"/>
<path d="M139.883 631.397C139.712 630.41 139.848 629.417 140.237 628.536C140.283 628.431 140.283 628.311 140.242 628.204L139.216 625.535" stroke="#FFE8E8" stroke-miterlimit="10" stroke-linecap="round" stroke-linejoin="round"/>
<path d="M152.109 635.658L152.374 636.347C152.549 636.801 152.32 637.306 151.871 637.479L151.177 637.745C150.726 637.919 150.219 637.693 150.046 637.242C150.219 637.693 149.994 638.2 149.543 638.374L148.849 638.64C148.398 638.814 147.891 638.589 147.718 638.137C147.891 638.589 147.666 639.095 147.214 639.269L144.945 640.141" stroke="#FFE8E8" stroke-miterlimit="10" stroke-linecap="round" stroke-linejoin="round"/>
<path d="M150.278 630.894L150.996 632.763" stroke="#FFE8E8" stroke-miterlimit="10" stroke-linecap="round" stroke-linejoin="round"/>
</g>
</g>
<g clip-path="url(#clip4_245_1623)">
<mask id="mask3_245_1623" style="mask-type:luminance" maskUnits="userSpaceOnUse" x="165" y="23" width="35" height="35">
<path d="M200 23.2749L165.836 23L165.561 57.1638L199.725 57.4387L200 23.2749Z" fill="white"/>
</mask>
<g mask="url(#mask3_245_1623)">
<path d="M175.986 35.4681C175.056 36.7957 174.504 38.4091 174.49 40.1526C174.454 44.7313 178.135 48.4729 182.714 48.5097C187.293 48.5465 191.034 44.8647 191.071 40.286C191.108 35.7074 187.426 31.9658 182.847 31.929C180.857 31.9129 179.024 32.6 177.585 33.7581" stroke="#FFE8E8" stroke-miterlimit="10" stroke-linecap="round" stroke-linejoin="round"/>
<path d="M194.599 28.5893L196.986 31.0144C197.1 31.1306 197.114 31.3123 197.018 31.4442L194.579 34.801C194.544 34.8491 194.538 34.9117 194.562 34.9659C194.684 35.2384 194.796 35.5159 194.899 35.798C194.92 35.8536 194.968 35.8943 195.026 35.9045L199.113 36.6195C199.273 36.6476 199.39 36.7876 199.389 36.9506L199.334 43.755C199.333 43.918 199.214 44.0561 199.053 44.0816L194.955 44.7307C194.897 44.7399 194.848 44.7799 194.827 44.8352C194.719 45.1156 194.602 45.3913 194.476 45.6617C194.451 45.7155 194.456 45.7783 194.49 45.8268L196.875 49.2225C196.968 49.3559 196.952 49.5374 196.836 49.6517L191.986 54.4244C191.869 54.5388 191.688 54.5523 191.556 54.4565L188.199 52.0177C188.151 51.9829 188.088 51.9766 188.034 52.0008C187.762 52.1225 187.484 52.2351 187.202 52.338C187.146 52.3584 187.106 52.4065 187.096 52.4648L186.381 56.5516C186.352 56.7121 186.212 56.8288 186.05 56.8275L179.245 56.7727C179.082 56.7714 178.944 56.6525 178.918 56.4915L178.269 52.3938C178.26 52.3353 178.22 52.2865 178.165 52.2653C177.884 52.1579 177.609 52.0408 177.338 51.9147C177.285 51.8897 177.222 51.8949 177.173 51.929L173.778 54.3134C173.644 54.4071 173.463 54.3906 173.348 54.2745L168.576 49.4243C168.461 49.3081 168.448 49.1264 168.544 48.9946L170.982 45.6377C171.017 45.5897 171.023 45.527 170.999 45.4728C170.878 45.2004 170.765 44.9229 170.662 44.6408C170.642 44.5851 170.594 44.5444 170.535 44.5342L166.448 43.8192C166.288 43.7911 166.171 43.6511 166.173 43.4882L166.227 36.6837C166.229 36.5208 166.348 36.3827 166.509 36.3571L170.606 35.7081C170.665 35.6988 170.714 35.6588 170.735 35.6035C170.842 35.3231 170.959 35.0475 171.085 34.777C171.11 34.7232 171.105 34.6605 171.071 34.6119L168.687 31.2163C168.593 31.0829 168.609 30.9013 168.726 30.787L173.576 26.0143C173.692 25.9 173.874 25.8864 174.006 25.9822L177.362 28.421C177.41 28.4558 177.473 28.4621 177.527 28.438C177.8 28.3162 178.077 28.2037 178.359 28.1007C178.415 28.0804 178.456 28.0322 178.466 27.9739L179.181 23.8872C179.209 23.7266 179.349 23.6099 179.512 23.6112L186.316 23.666C186.479 23.6673 186.617 23.7863 186.643 23.9472L187.292 28.0449C187.301 28.1034 187.341 28.1522 187.397 28.1734C187.677 28.2809 187.953 28.3979 188.223 28.524C188.277 28.5491 188.34 28.5438 188.388 28.5097L191.784 26.1253C191.917 26.0316 192.099 26.0481 192.213 26.1642L192.947 26.9098" stroke="#FFE8E8" stroke-miterlimit="10" stroke-linecap="round" stroke-linejoin="round"/>
<path d="M170.109 42.6306C169.955 41.8165 169.878 40.9756 169.885 40.1156C169.891 39.2556 169.982 38.416 170.149 37.6045" stroke="#FFE8E8" stroke-miterlimit="10" stroke-linecap="round" stroke-linejoin="round"/>
<path d="M175.526 50.8839C174.13 49.9318 172.93 48.7129 172.001 47.301" stroke="#FFE8E8" stroke-miterlimit="10" stroke-linecap="round" stroke-linejoin="round"/>
<path d="M185.192 52.891C184.378 53.045 183.537 53.1224 182.677 53.1155C181.817 53.1086 180.977 53.0176 180.166 52.8505" stroke="#FFE8E8" stroke-miterlimit="10" stroke-linecap="round" stroke-linejoin="round"/>
<path d="M193.445 47.4735C192.493 48.8703 191.274 50.0698 189.862 50.9992" stroke="#FFE8E8" stroke-miterlimit="10" stroke-linecap="round" stroke-linejoin="round"/>
<path d="M195.452 37.8081C195.606 38.6223 195.684 39.4632 195.677 40.3231C195.67 41.1831 195.579 42.0227 195.412 42.8342" stroke="#FFE8E8" stroke-miterlimit="10" stroke-linecap="round" stroke-linejoin="round"/>
<path d="M190.035 29.5549C191.432 30.5069 192.631 31.7258 193.561 33.1378" stroke="#FFE8E8" stroke-miterlimit="10" stroke-linecap="round" stroke-linejoin="round"/>
<path d="M180.369 27.5478C181.184 27.3938 182.024 27.3163 182.884 27.3232C183.744 27.3301 184.584 27.4211 185.396 27.5882" stroke="#FFE8E8" stroke-miterlimit="10" stroke-linecap="round" stroke-linejoin="round"/>
<path d="M172.116 32.9652C173.068 31.5684 174.287 30.3689 175.699 29.4395" stroke="#FFE8E8" stroke-miterlimit="10" stroke-linecap="round" stroke-linejoin="round"/>
<path d="M186.36 41.9454L185.43 41.0003" stroke="#FFE8E8" stroke-miterlimit="10" stroke-linecap="round" stroke-linejoin="round"/>
<path d="M184.992 43.2908L184.062 42.3456" stroke="#FFE8E8" stroke-miterlimit="10" stroke-linecap="round" stroke-linejoin="round"/>
<path d="M179.723 41.3478L178.428 42.6217C178.163 42.8825 177.737 42.8791 177.476 42.614L177.076 42.2067C176.815 41.9416 176.818 41.5153 177.083 41.2545L178.378 39.9807C178.755 39.6091 179.362 39.614 179.734 39.9916C180.105 40.3691 180.1 40.9763 179.723 41.3478Z" stroke="#FFE8E8" stroke-miterlimit="10" stroke-linecap="round" stroke-linejoin="round"/>
<path d="M181.068 42.7149L179.774 43.9888C179.509 44.2496 179.082 44.2462 178.822 43.9811L178.421 43.5739C178.16 43.3088 178.163 42.8825 178.429 42.6217L179.723 41.3478C180.101 40.9763 180.708 40.9812 181.079 41.3587C181.451 41.7363 181.446 42.3434 181.068 42.7149Z" stroke="#FFE8E8" stroke-miterlimit="10" stroke-linecap="round" stroke-linejoin="round"/>
<path d="M182.414 44.082L181.119 45.3559C180.854 45.6168 180.428 45.6133 180.167 45.3483L179.766 44.941C179.505 44.6759 179.509 44.2496 179.774 43.9888L181.068 42.7149C181.446 42.3434 182.053 42.3483 182.425 42.7258C182.796 43.1034 182.791 43.7105 182.414 44.082Z" stroke="#FFE8E8" stroke-miterlimit="10" stroke-linecap="round" stroke-linejoin="round"/>
<path d="M183.652 45.5541L182.721 46.4702C182.456 46.731 182.03 46.7276 181.769 46.4625L181.368 46.0553C181.108 45.7902 181.111 45.3639 181.376 45.1031L182.307 44.187C182.685 43.8154 183.292 43.8203 183.663 44.1979C184.035 44.5754 184.03 45.1826 183.652 45.5541Z" stroke="#FFE8E8" stroke-miterlimit="10" stroke-linecap="round" stroke-linejoin="round"/>
<path d="M185.215 36.7955C185.075 37.0607 184.85 37.2737 184.576 37.3986" stroke="#FFE8E8" stroke-miterlimit="10" stroke-linecap="round" stroke-linejoin="round"/>
<path d="M184.576 37.3986C184.402 37.4783 184.207 37.522 184.003 37.5203L183.442 37.5158L183.44 37.716C183.433 38.6637 182.658 39.4257 181.71 39.4181C181.657 39.4177 181.606 39.396 181.568 39.3578C181.53 39.3195 181.51 39.268 181.51 39.2144C181.515 38.6118 181.529 36.877 181.529 36.8579C181.549 35.8346 182.389 35.0141 183.416 35.0224L185.005 35.0352L185.007 35.0352C185.099 35.036 185.189 34.9998 185.255 34.9348L187.086 33.1328" stroke="#FFE8E8" stroke-miterlimit="10" stroke-linecap="round" stroke-linejoin="round"/>
<path d="M190.479 37.1365L188.912 38.6786C188.849 38.7404 188.811 38.8243 188.81 38.9126C188.802 39.6532 188.581 40.3916 188.148 41.0279C188.027 41.2048 187.894 41.3682 187.751 41.5181" stroke="#FFE8E8" stroke-miterlimit="10" stroke-linecap="round" stroke-linejoin="round"/>
<path d="M178.59 33.0645L180.394 34.8982C180.457 34.9616 180.541 34.9995 180.63 35C181.2 35.0032 181.768 35.1324 182.291 35.3871" stroke="#FFE8E8" stroke-miterlimit="10" stroke-linecap="round" stroke-linejoin="round"/>
<path d="M177.401 40.9415C176.978 40.2983 176.769 39.5563 176.773 38.8157C176.773 38.7274 176.737 38.643 176.675 38.5801L175.133 37.013" stroke="#FFE8E8" stroke-miterlimit="10" stroke-linecap="round" stroke-linejoin="round"/>
<path d="M187.328 40.1953L187.727 40.6002C187.989 40.8669 187.983 41.293 187.719 41.5523L187.312 41.9531C187.047 42.2139 186.62 42.2105 186.36 41.9455C186.62 42.2105 186.617 42.6368 186.352 42.8976L185.945 43.2984C185.68 43.5592 185.253 43.5558 184.992 43.2908C185.253 43.5558 185.25 43.9821 184.985 44.2429L183.652 45.5541" stroke="#FFE8E8" stroke-miterlimit="10" stroke-linecap="round" stroke-linejoin="round"/>
<path d="M184.576 37.3986L185.656 38.4955" stroke="#FFE8E8" stroke-miterlimit="10" stroke-linecap="round" stroke-linejoin="round"/>
</g>
</g>
<g clip-path="url(#clip5_245_1623)">
<path d="M138.003 752.083C135.392 752.799 132.696 751.262 131.981 748.652C131.266 746.042 132.802 743.346 135.413 742.631C138.023 741.915 140.719 743.452 141.434 746.062C142.149 748.672 140.613 751.368 138.003 752.083Z" stroke="#FFE8E8" stroke-miterlimit="10"/>
<path d="M133.254 764.35L132.526 761.694C131.385 757.528 133.837 753.225 138.003 752.083C142.169 750.942 146.472 753.394 147.613 757.56L148.341 760.216" stroke="#FFE8E8" stroke-miterlimit="10"/>
<path d="M133.637 736.152L131.862 729.673" stroke="#FFE8E8" stroke-miterlimit="10"/>
<path d="M126.094 738.219L141.181 734.085L152.304 745.083L148.341 760.216L133.254 764.35L122.131 753.351L126.094 738.219Z" stroke="#FFE8E8" stroke-miterlimit="10"/>
<path d="M131.862 729.673C130.073 730.163 128.225 729.11 127.735 727.321C127.245 725.532 128.298 723.684 130.087 723.194C131.876 722.704 133.723 723.757 134.214 725.546C134.704 727.335 133.651 729.183 131.862 729.673Z" stroke="#FFE8E8" stroke-miterlimit="10"/>
<path d="M140.797 762.283L142.573 768.762" stroke="#FFE8E8" stroke-miterlimit="10"/>
<path d="M144.348 775.241C142.559 775.731 140.711 774.678 140.221 772.889C139.731 771.1 140.784 769.252 142.573 768.762C144.362 768.272 146.21 769.324 146.7 771.114C147.19 772.903 146.137 774.75 144.348 775.241Z" stroke="#FFE8E8" stroke-miterlimit="10"/>
<path d="M146.742 739.584L151.466 734.807" stroke="#FFE8E8" stroke-miterlimit="10"/>
<path d="M154.715 735.658C152.926 736.148 151.078 735.096 150.588 733.307C150.098 731.517 151.15 729.67 152.94 729.179C154.729 728.689 156.576 729.742 157.067 731.531C157.557 733.32 156.504 735.168 154.715 735.658Z" stroke="#FFE8E8" stroke-miterlimit="10"/>
<path d="M127.692 758.851L122.969 763.628" stroke="#FFE8E8" stroke-miterlimit="10"/>
<path d="M121.495 769.255C119.706 769.746 117.858 768.693 117.368 766.904C116.878 765.114 117.931 763.267 119.72 762.777C121.509 762.286 123.357 763.339 123.847 765.128C124.337 766.917 123.284 768.765 121.495 769.255Z" stroke="#FFE8E8" stroke-miterlimit="10"/>
<path d="M150.323 752.65L156.821 754.352" stroke="#FFE8E8" stroke-miterlimit="10"/>
<path d="M160.958 758.442C159.169 758.932 157.321 757.879 156.831 756.09C156.341 754.301 157.394 752.453 159.183 751.963C160.972 751.473 162.819 752.526 163.31 754.315C163.8 756.104 162.747 757.952 160.958 758.442Z" stroke="#FFE8E8" stroke-miterlimit="10"/>
<path d="M124.112 745.785L117.614 744.083" stroke="#FFE8E8" stroke-miterlimit="10"/>
<path d="M115.252 746.472C113.463 746.962 111.615 745.909 111.125 744.12C110.635 742.331 111.688 740.483 113.477 739.993C115.266 739.503 117.114 740.555 117.604 742.345C118.094 744.134 117.041 745.981 115.252 746.472Z" stroke="#FFE8E8" stroke-miterlimit="10"/>
</g>
<g clip-path="url(#clip6_245_1623)">
<path d="M60.3992 624.573C58.9891 624.96 57.5327 624.13 57.1463 622.72C56.7599 621.309 57.5898 619.853 59 619.467C60.4101 619.08 61.8665 619.91 62.2529 621.32C62.6392 622.73 61.8093 624.187 60.3992 624.573Z" stroke="#FFE8E8" stroke-miterlimit="10"/>
<path d="M57.834 631.2L57.4408 629.765C56.8241 627.514 58.1486 625.19 60.3992 624.573C62.6498 623.956 64.9742 625.281 65.5909 627.532L65.984 628.967" stroke="#FFE8E8" stroke-miterlimit="10"/>
<path d="M58.0409 615.967L57.0819 612.467" stroke="#FFE8E8" stroke-miterlimit="10"/>
<path d="M53.9659 617.083L62.1159 614.85L68.1251 620.792L65.984 628.967L57.834 631.2L51.8248 625.258L53.9659 617.083Z" stroke="#FFE8E8" stroke-miterlimit="10"/>
<path d="M57.082 612.467C56.1155 612.732 55.1173 612.163 54.8525 611.196C54.5877 610.23 55.1565 609.232 56.123 608.967C57.0894 608.702 58.0876 609.271 58.3524 610.237C58.6173 611.204 58.0485 612.202 57.082 612.467Z" stroke="#FFE8E8" stroke-miterlimit="10"/>
<path d="M61.9091 630.083L62.8681 633.583" stroke="#FFE8E8" stroke-miterlimit="10"/>
<path d="M63.8271 637.083C62.8606 637.348 61.8625 636.779 61.5976 635.813C61.3328 634.846 61.9016 633.848 62.8681 633.583C63.8346 633.318 64.8327 633.887 65.0976 634.854C65.3624 635.82 64.7936 636.818 63.8271 637.083Z" stroke="#FFE8E8" stroke-miterlimit="10"/>
<path d="M65.1206 617.821L67.6721 615.24" stroke="#FFE8E8" stroke-miterlimit="10"/>
<path d="M69.4273 615.7C68.4608 615.965 67.4627 615.396 67.1978 614.43C66.933 613.463 67.5018 612.465 68.4683 612.2C69.4348 611.935 70.4329 612.504 70.6978 613.471C70.9626 614.437 70.3938 615.435 69.4273 615.7Z" stroke="#FFE8E8" stroke-miterlimit="10"/>
<path d="M54.8295 628.229L52.2779 630.809" stroke="#FFE8E8" stroke-miterlimit="10"/>
<path d="M51.4816 633.85C50.5152 634.115 49.517 633.546 49.2522 632.579C48.9873 631.613 49.5561 630.615 50.5226 630.35C51.4891 630.085 52.4873 630.654 52.7521 631.62C53.0169 632.587 52.4481 633.585 51.4816 633.85Z" stroke="#FFE8E8" stroke-miterlimit="10"/>
<path d="M67.0546 624.879L70.5652 625.799" stroke="#FFE8E8" stroke-miterlimit="10"/>
<path d="M72.7999 628.008C71.8334 628.273 70.8352 627.704 70.5704 626.738C70.3056 625.771 70.8744 624.773 71.8409 624.508C72.8073 624.243 73.8055 624.812 74.0703 625.779C74.3352 626.745 73.7664 627.743 72.7999 628.008Z" stroke="#FFE8E8" stroke-miterlimit="10"/>
<path d="M52.8954 621.171L49.3848 620.251" stroke="#FFE8E8" stroke-miterlimit="10"/>
<path d="M48.1091 621.542C47.1426 621.806 46.1444 621.238 45.8796 620.271C45.6148 619.305 46.1836 618.306 47.1501 618.042C48.1165 617.777 49.1147 618.346 49.3795 619.312C49.6444 620.279 49.0756 621.277 48.1091 621.542Z" stroke="#FFE8E8" stroke-miterlimit="10"/>
</g>
<g clip-path="url(#clip7_245_1623)">
<path d="M74.7618 39.9218C73.004 39.6974 71.7609 38.0904 71.9853 36.3326C72.2097 34.5747 73.8166 33.3316 75.5745 33.556C77.3323 33.7804 78.5754 35.3874 78.351 37.1452C78.1266 38.9031 76.5197 40.1462 74.7618 39.9218Z" stroke="#FFE8E8" stroke-miterlimit="10"/>
<path d="M68.8051 46.142L69.0334 44.3532C69.3915 41.5477 71.9562 39.5636 74.7618 39.9218C77.5673 40.2799 79.5513 42.8446 79.1932 45.6501L78.9649 47.4389" stroke="#FFE8E8" stroke-miterlimit="10"/>
<path d="M76.1314 29.1931L76.6884 24.8301" stroke="#FFE8E8" stroke-miterlimit="10"/>
<path d="M71.0515 28.5446L81.2113 29.8415L85.1681 39.2887L78.9649 47.4389L68.8051 46.1419L64.8483 36.6948L71.0515 28.5446Z" stroke="#FFE8E8" stroke-miterlimit="10"/>
<path d="M76.6883 24.8301C75.4835 24.6763 74.6315 23.5749 74.7853 22.3701C74.9391 21.1653 76.0405 20.3133 77.2453 20.4671C78.4501 20.6209 79.3021 21.7222 79.1483 22.927C78.9945 24.1318 77.8931 24.9839 76.6883 24.8301Z" stroke="#FFE8E8" stroke-miterlimit="10"/>
<path d="M73.885 46.7904L73.3281 51.1534" stroke="#FFE8E8" stroke-miterlimit="10"/>
<path d="M72.7711 55.5164C71.5663 55.3626 70.7143 54.2612 70.8681 53.0564C71.0219 51.8516 72.1232 50.9996 73.328 51.1534C74.5328 51.3072 75.3848 52.4086 75.231 53.6134C75.0772 54.8182 73.9759 55.6702 72.7711 55.5164Z" stroke="#FFE8E8" stroke-miterlimit="10"/>
<path d="M83.1897 34.5651L87.2467 32.866" stroke="#FFE8E8" stroke-miterlimit="10"/>
<path d="M88.9965 34.1979C87.7917 34.0441 86.9397 32.9427 87.0935 31.7379C87.2473 30.5331 88.3487 29.6811 89.5535 29.8349C90.7583 29.9887 91.6103 31.09 91.4565 32.2948C91.3027 33.4996 90.2013 34.3516 88.9965 34.1979Z" stroke="#FFE8E8" stroke-miterlimit="10"/>
<path d="M66.8268 41.4184L62.7698 43.1175" stroke="#FFE8E8" stroke-miterlimit="10"/>
<path d="M60.4628 46.1486C59.258 45.9948 58.406 44.8934 58.5598 43.6886C58.7136 42.4838 59.815 41.6318 61.0198 41.7856C62.2246 41.9394 63.0766 43.0408 62.9228 44.2456C62.769 45.4504 61.6677 46.3024 60.4628 46.1486Z" stroke="#FFE8E8" stroke-miterlimit="10"/>
<path d="M82.0665 43.3638L85.5665 46.0276" stroke="#FFE8E8" stroke-miterlimit="10"/>
<path d="M87.0379 49.5411C85.8331 49.3873 84.9811 48.2859 85.1349 47.0811C85.2887 45.8763 86.3901 45.0243 87.5949 45.1781C88.7997 45.3319 89.6517 46.4332 89.4979 47.638C89.3441 48.8428 88.2427 49.6949 87.0379 49.5411Z" stroke="#FFE8E8" stroke-miterlimit="10"/>
<path d="M67.9499 32.6197L64.4499 29.9558" stroke="#FFE8E8" stroke-miterlimit="10"/>
<path d="M62.4215 30.8055C61.2167 30.6517 60.3646 29.5503 60.5184 28.3455C60.6722 27.1407 61.7736 26.2887 62.9784 26.4425C64.1832 26.5963 65.0352 27.6976 64.8814 28.9024C64.7276 30.1072 63.6263 30.9593 62.4215 30.8055Z" stroke="#FFE8E8" stroke-miterlimit="10"/>
</g>
<g clip-path="url(#clip8_245_1623)">
<path d="M30.7618 370.922C29.004 370.697 27.7609 369.09 27.9853 367.333C28.2097 365.575 29.8166 364.332 31.5745 364.556C33.3323 364.78 34.5754 366.387 34.351 368.145C34.1266 369.903 32.5197 371.146 30.7618 370.922Z" stroke="#FFE8E8" stroke-miterlimit="10"/>
<path d="M24.8051 377.142L25.0334 375.353C25.3915 372.548 27.9562 370.564 30.7618 370.922C33.5673 371.28 35.5513 373.845 35.1932 376.65L34.9649 378.439" stroke="#FFE8E8" stroke-miterlimit="10"/>
<path d="M32.1314 360.193L32.6884 355.83" stroke="#FFE8E8" stroke-miterlimit="10"/>
<path d="M27.0515 359.545L37.2113 360.842L41.1681 370.289L34.9649 378.439L24.8051 377.142L20.8483 367.695L27.0515 359.545Z" stroke="#FFE8E8" stroke-miterlimit="10"/>
<path d="M32.6883 355.83C31.4835 355.676 30.6315 354.575 30.7853 353.37C30.9391 352.165 32.0405 351.313 33.2453 351.467C34.4501 351.621 35.3021 352.722 35.1483 353.927C34.9945 355.132 33.8931 355.984 32.6883 355.83Z" stroke="#FFE8E8" stroke-miterlimit="10"/>
<path d="M29.885 377.79L29.3281 382.153" stroke="#FFE8E8" stroke-miterlimit="10"/>
<path d="M28.7711 386.516C27.5663 386.363 26.7143 385.261 26.8681 384.056C27.0219 382.852 28.1232 382 29.328 382.153C30.5328 382.307 31.3848 383.409 31.231 384.613C31.0772 385.818 29.9759 386.67 28.7711 386.516Z" stroke="#FFE8E8" stroke-miterlimit="10"/>
<path d="M39.1897 365.565L43.2467 363.866" stroke="#FFE8E8" stroke-miterlimit="10"/>
<path d="M44.9965 365.198C43.7917 365.044 42.9397 363.943 43.0935 362.738C43.2473 361.533 44.3487 360.681 45.5535 360.835C46.7583 360.989 47.6103 362.09 47.4565 363.295C47.3027 364.5 46.2013 365.352 44.9965 365.198Z" stroke="#FFE8E8" stroke-miterlimit="10"/>
<path d="M22.8268 372.418L18.7698 374.118" stroke="#FFE8E8" stroke-miterlimit="10"/>
<path d="M16.4628 377.149C15.258 376.995 14.406 375.893 14.5598 374.689C14.7136 373.484 15.815 372.632 17.0198 372.786C18.2246 372.939 19.0766 374.041 18.9228 375.246C18.769 376.45 17.6677 377.302 16.4628 377.149Z" stroke="#FFE8E8" stroke-miterlimit="10"/>
<path d="M38.0665 374.364L41.5665 377.028" stroke="#FFE8E8" stroke-miterlimit="10"/>
<path d="M43.0379 380.541C41.8331 380.387 40.9811 379.286 41.1349 378.081C41.2887 376.876 42.3901 376.024 43.5949 376.178C44.7997 376.332 45.6517 377.433 45.4979 378.638C45.3441 379.843 44.2427 380.695 43.0379 380.541Z" stroke="#FFE8E8" stroke-miterlimit="10"/>
<path d="M23.9499 363.62L20.4499 360.956" stroke="#FFE8E8" stroke-miterlimit="10"/>
<path d="M18.4215 361.805C17.2167 361.652 16.3646 360.55 16.5184 359.345C16.6722 358.141 17.7736 357.289 18.9784 357.442C20.1832 357.596 21.0352 358.698 20.8814 359.902C20.7276 361.107 19.6263 361.959 18.4215 361.805Z" stroke="#FFE8E8" stroke-miterlimit="10"/>
</g>
<path d="M179 297.5C179 302.747 183.253 307 188.5 307C193.747 307 198 302.747 198 297.5C198 292.253 193.747 288 188.5 288C183.253 288 179 292.253 179 297.5ZM195.764 297.5C195.764 301.512 192.512 304.764 188.5 304.764C184.488 304.764 181.236 301.512 181.236 297.5C181.236 293.488 184.488 290.236 188.5 290.236C192.512 290.236 195.764 293.488 195.764 297.5Z" fill="#FFF3F3"/>
<path d="M237 690.5C237 695.747 241.253 700 246.5 700C251.747 700 256 695.747 256 690.5C256 685.253 251.747 681 246.5 681C241.253 681 237 685.253 237 690.5ZM253.764 690.5C253.764 694.512 250.512 697.764 246.5 697.764C242.488 697.764 239.236 694.512 239.236 690.5C239.236 686.488 242.488 683.236 246.5 683.236C250.512 683.236 253.764 686.488 253.764 690.5Z" fill="#FFF3F3"/>
<path d="M10 103C10 108.523 14.4772 113 20 113C25.5228 113 30 108.523 30 103C30 97.4772 25.5228 93 20 93C14.4772 93 10 97.4772 10 103ZM27.6462 103C27.6462 107.223 24.2229 110.646 20 110.646C15.7771 110.646 12.3538 107.223 12.3538 103C12.3538 98.7771 15.7771 95.3538 20 95.3538C24.2229 95.3538 27.6462 98.7771 27.6462 103Z" fill="#FFF3F3"/>
<path d="M0 647C0 652.523 4.47715 657 10 657C15.5228 657 20 652.523 20 647C20 641.477 15.5228 637 10 637C4.47715 637 0 641.477 0 647ZM17.6462 647C17.6462 651.223 14.2229 654.646 10 654.646C5.77711 654.646 2.35378 651.223 2.35378 647C2.35378 642.777 5.77711 639.354 10 639.354C14.2229 639.354 17.6462 642.777 17.6462 647Z" fill="#FFF3F3"/>
<path d="M220 10C220 15.5228 224.477 20 230 20C235.523 20 240 15.5228 240 10C240 4.47715 235.523 0 230 0C224.477 0 220 4.47715 220 10ZM237.646 10C237.646 14.2229 234.223 17.6462 230 17.6462C225.777 17.6462 222.354 14.2229 222.354 10C222.354 5.77711 225.777 2.35378 230 2.35378C234.223 2.35378 237.646 5.77711 237.646 10Z" fill="#FFF3F3"/>
<path d="M144 480C144 485.523 148.477 490 154 490C159.523 490 164 485.523 164 480C164 474.477 159.523 470 154 470C148.477 470 144 474.477 144 480ZM161.646 480C161.646 484.223 158.223 487.646 154 487.646C149.777 487.646 146.354 484.223 146.354 480C146.354 475.777 149.777 472.354 154 472.354C158.223 472.354 161.646 475.777 161.646 480Z" fill="#FFF3F3"/>
<defs>
<clipPath id="clip0_245_1623">
<rect width="78.4016" height="73.944" fill="white" transform="translate(112.025 295) rotate(37.5103)"/>
</clipPath>
<clipPath id="clip1_245_1623">
<rect width="49.1772" height="49.1772" fill="white" transform="matrix(-0.936487 -0.350703 -0.350703 0.936487 93.3004 218.247)"/>
</clipPath>
<clipPath id="clip2_245_1623">
<rect width="42.2399" height="42.2399" fill="white" transform="matrix(-0.988824 0.149089 0.149089 0.988824 207.703 402)"/>
</clipPath>
<clipPath id="clip3_245_1623">
<rect width="44.4332" height="44.4332" fill="white" transform="matrix(-0.913744 -0.406291 -0.406291 0.913744 176 622.053)"/>
</clipPath>
<clipPath id="clip4_245_1623">
<rect width="34.1648" height="34.1648" fill="white" transform="matrix(-0.999968 -0.00804637 -0.00804637 0.999968 200 23.2749)"/>
</clipPath>
<clipPath id="clip5_245_1623">
<rect width="57.3237" height="57.3237" fill="white" transform="matrix(-0.964448 0.264272 0.264272 0.964448 157.286 714)"/>
</clipPath>
<clipPath id="clip6_245_1623">
<rect width="30.967" height="30.967" fill="white" transform="matrix(-0.964448 0.264272 0.264272 0.964448 70.8162 604)"/>
</clipPath>
<clipPath id="clip7_245_1623">
<rect width="37.5329" height="37.5329" fill="white" transform="matrix(-0.99195 -0.126627 -0.126627 0.99195 96 21.7527)"/>
</clipPath>
<clipPath id="clip8_245_1623">
<rect width="37.5329" height="37.5329" fill="white" transform="matrix(-0.99195 -0.126627 -0.126627 0.99195 52 352.753)"/>
</clipPath>
</defs>
</svg>
