<svg width="24" height="24" viewBox="0 0 24 24" fill="none" xmlns="http://www.w3.org/2000/svg">
<path d="M17.6385 4.50064H14.5055C14.5055 3.83588 14.2414 3.19834 13.7713 2.72828C13.3013 2.25822 12.6637 1.99414 11.999 1.99414C11.3342 1.99414 10.6967 2.25822 10.2266 2.72828C9.75655 3.19834 9.49247 3.83588 9.49247 4.50064H6.36047C5.86257 4.50011 5.38483 4.69732 5.03229 5.04893C4.67975 5.40053 4.48126 5.87774 4.48047 6.37564V20.1256C4.48126 20.6235 4.67975 21.1008 5.03229 21.4524C5.38483 21.804 5.86257 22.0012 6.36047 22.0006H17.6385C18.1364 22.0012 18.6141 21.804 18.9667 21.4524C19.3192 21.1008 19.5177 20.6235 19.5185 20.1256V6.37564C19.5177 5.87774 19.3192 5.40053 18.9667 5.04893C18.6141 4.69732 18.1364 4.50011 17.6385 4.50064ZM8.23847 18.5636C8.05304 18.5632 7.87188 18.5079 7.71789 18.4046C7.5639 18.3013 7.44399 18.1546 7.3733 17.9832C7.30261 17.8118 7.28432 17.6232 7.32074 17.4414C7.35716 17.2596 7.44665 17.0927 7.57791 16.9617C7.70917 16.8307 7.87631 16.7416 8.05821 16.7055C8.24011 16.6695 8.42861 16.6882 8.59989 16.7592C8.77117 16.8303 8.91754 16.9505 9.02053 17.1047C9.12351 17.2589 9.17847 17.4402 9.17847 17.6256C9.17873 17.749 9.15462 17.8712 9.10751 17.9851C9.0604 18.0991 8.99123 18.2027 8.90397 18.2899C8.81671 18.377 8.71308 18.4461 8.59905 18.4931C8.48501 18.5401 8.36281 18.564 8.23947 18.5636H8.23847ZM8.23847 14.8136C8.05299 14.8132 7.8718 14.7579 7.71779 14.6545C7.56378 14.5512 7.44386 14.4045 7.3732 14.233C7.30254 14.0615 7.28431 13.8729 7.32081 13.6911C7.35731 13.5092 7.4469 13.3423 7.57826 13.2113C7.70963 13.0804 7.87686 12.9913 8.05882 12.9554C8.24079 12.9195 8.42932 12.9383 8.60058 13.0095C8.77184 13.0807 8.91815 13.2011 9.02101 13.3555C9.12387 13.5098 9.17867 13.6912 9.17847 13.8766C9.1786 13.9999 9.15439 14.122 9.10722 14.2358C9.06006 14.3497 8.99086 14.4531 8.90362 14.5402C8.81637 14.6273 8.71279 14.6962 8.59881 14.7432C8.48484 14.7901 8.36272 14.814 8.23947 14.8136H8.23847ZM8.23847 11.0636C8.05299 11.0632 7.8718 11.0079 7.71779 10.9045C7.56378 10.8012 7.44386 10.6545 7.3732 10.483C7.30254 10.3115 7.28431 10.1229 7.32081 9.94105C7.35731 9.75921 7.4469 9.59226 7.57826 9.46132C7.70963 9.33038 7.87686 9.24132 8.05882 9.2054C8.24079 9.16948 8.42932 9.18832 8.60058 9.25952C8.77184 9.33073 8.91815 9.45111 9.02101 9.60545C9.12387 9.75979 9.17867 9.94116 9.17847 10.1266C9.1786 10.2499 9.15439 10.372 9.10722 10.4858C9.06006 10.5997 8.99086 10.7031 8.90362 10.7902C8.81637 10.8773 8.71279 10.9462 8.59881 10.9932C8.48484 11.0401 8.36272 11.064 8.23947 11.0636H8.23847ZM11.9975 3.56364C12.1829 3.56404 12.3641 3.61941 12.5182 3.72276C12.6722 3.82612 12.7921 3.97281 12.8627 4.1443C12.9334 4.31579 12.9516 4.50438 12.9151 4.68623C12.8786 4.86808 12.789 5.03502 12.6577 5.16596C12.5263 5.29691 12.3591 5.38596 12.1771 5.42188C11.9952 5.4578 11.8066 5.43897 11.6354 5.36776C11.4641 5.29655 11.3178 5.17617 11.2149 5.02183C11.1121 4.86749 11.0573 4.68612 11.0575 4.50064C11.0573 4.37713 11.0816 4.25482 11.129 4.14075C11.1764 4.02668 11.2458 3.92311 11.3334 3.83601C11.4209 3.74891 11.5249 3.68 11.6392 3.63325C11.7535 3.58651 11.876 3.56285 11.9995 3.56364H11.9975ZM17.0105 17.9386C17.0102 18.0216 16.9771 18.101 16.9185 18.1597C16.8599 18.2183 16.7804 18.2514 16.6975 18.2516H11.0595C10.9765 18.2514 10.8971 18.2183 10.8384 18.1597C10.7798 18.101 10.7467 18.0216 10.7465 17.9386V17.3136C10.7467 17.2307 10.7798 17.1512 10.8384 17.0926C10.8971 17.034 10.9765 17.0009 11.0595 17.0006H16.6985C16.7814 17.0009 16.8609 17.034 16.9195 17.0926C16.9781 17.1512 17.0112 17.2307 17.0115 17.3136L17.0105 17.9386ZM17.0105 14.1886C17.0102 14.2716 16.9771 14.351 16.9185 14.4097C16.8599 14.4683 16.7804 14.5014 16.6975 14.5016H11.0595C10.9767 14.5014 10.8974 14.4685 10.8388 14.41C10.7802 14.3516 10.747 14.2724 10.7465 14.1896V13.5646C10.7467 13.4817 10.7798 13.4022 10.8384 13.3436C10.8971 13.285 10.9765 13.2519 11.0595 13.2516H16.6985C16.7814 13.2519 16.8609 13.285 16.9195 13.3436C16.9781 13.4022 17.0112 13.4817 17.0115 13.5646L17.0105 14.1886ZM17.0105 10.4386C17.0102 10.5216 16.9771 10.601 16.9185 10.6597C16.8599 10.7183 16.7804 10.7514 16.6975 10.7516H11.0595C10.9767 10.7514 10.8974 10.7185 10.8388 10.66C10.7802 10.6016 10.747 10.5224 10.7465 10.4396V9.81364C10.7467 9.73071 10.7798 9.65125 10.8384 9.59261C10.8971 9.53397 10.9765 9.5009 11.0595 9.50064H16.6985C16.7814 9.5009 16.8609 9.53397 16.9195 9.59261C16.9781 9.65125 17.0112 9.73071 17.0115 9.81364L17.0105 10.4386Z" fill="#ED1C24"/>
</svg>
