<svg width="256" height="788" viewBox="0 0 256 788" fill="none" xmlns="http://www.w3.org/2000/svg">
<path d="M92.3318 117.518L47.6057 133.965" stroke="#FFE8E8" stroke-miterlimit="10" stroke-linecap="round" stroke-linejoin="round"/>
<path d="M54.5069 153.387L45.0789 127.748C44.7469 126.845 45.2097 125.844 46.1124 125.512L80.2131 112.973" stroke="#FFE8E8" stroke-miterlimit="10" stroke-linecap="round" stroke-linejoin="round"/>
<path d="M83.4623 111.778L87.9777 110.117C88.8805 109.785 89.8815 110.248 90.2135 111.151L101.968 143.118C102.3 144.02 101.837 145.021 100.934 145.353L59.0691 160.748C58.1663 161.08 57.1653 160.617 56.8334 159.714L55.6535 156.505" stroke="#FFE8E8" stroke-miterlimit="10" stroke-linecap="round" stroke-linejoin="round"/>
<path d="M51.4675 129.59C52.2199 129.313 52.6055 128.479 52.3288 127.727C52.0522 126.975 51.2181 126.589 50.4657 126.866C49.7134 127.142 49.3278 127.976 49.6044 128.729C49.8811 129.481 50.7152 129.867 51.4675 129.59Z" stroke="#FFE8E8" stroke-miterlimit="10" stroke-linecap="round" stroke-linejoin="round"/>
<path d="M57.1433 127.503C57.8956 127.226 58.2813 126.392 58.0046 125.64C57.728 124.887 56.8938 124.502 56.1415 124.778C55.3892 125.055 55.0036 125.889 55.2802 126.642C55.5568 127.394 56.391 127.78 57.1433 127.503Z" stroke="#FFE8E8" stroke-miterlimit="10" stroke-linecap="round" stroke-linejoin="round"/>
<path d="M62.8191 125.416C63.5714 125.139 63.957 124.305 63.6804 123.553C63.4038 122.8 62.5696 122.415 61.8173 122.691C61.065 122.968 60.6793 123.802 60.956 124.554C61.2326 125.307 62.0668 125.692 62.8191 125.416Z" stroke="#FFE8E8" stroke-miterlimit="10" stroke-linecap="round" stroke-linejoin="round"/>
<path d="M63.1391 154.885L62.6662 155.059C61.3782 155.533 60.7206 156.968 61.1975 158.265L61.5929 159.34C61.6786 159.574 61.9358 159.694 62.1673 159.608L71.5001 156.177C71.7316 156.092 71.8498 155.833 71.7641 155.6L71.3687 154.525C70.8918 153.228 69.461 152.561 68.173 153.034L67.7303 153.197" stroke="#FFE8E8" stroke-miterlimit="10" stroke-linecap="round" stroke-linejoin="round"/>
<path d="M61.9643 153.341L61.264 151.437C60.6922 149.882 61.4892 148.158 63.044 147.586C64.5988 147.015 66.3227 147.812 66.8944 149.366L67.5908 151.26C68.1636 152.818 67.3652 154.545 65.8075 155.118C64.2556 155.689 62.5349 154.893 61.9643 153.341Z" stroke="#FFE8E8" stroke-miterlimit="10" stroke-linecap="round" stroke-linejoin="round"/>
<path d="M61.5928 151.907L66.9484 149.938" stroke="#FFE8E8" stroke-miterlimit="10" stroke-linecap="round" stroke-linejoin="round"/>
<path d="M76.3071 150.043L75.8342 150.217C74.5461 150.691 73.8886 152.126 74.3655 153.423L74.7609 154.498C74.8466 154.732 75.1038 154.851 75.3353 154.766L84.6681 151.335C84.8996 151.249 85.0178 150.991 84.9321 150.758L84.5367 149.683C84.0598 148.386 82.629 147.719 81.3409 148.192L80.8983 148.355" stroke="#FFE8E8" stroke-miterlimit="10" stroke-linecap="round" stroke-linejoin="round"/>
<path d="M75.1323 148.499L74.4319 146.595C73.8602 145.04 74.6571 143.316 76.212 142.744C77.7668 142.173 79.4907 142.969 80.0624 144.524L80.7588 146.418C81.3316 147.976 80.5332 149.703 78.9754 150.276C77.4236 150.847 75.7029 150.051 75.1323 148.499Z" stroke="#FFE8E8" stroke-miterlimit="10" stroke-linecap="round" stroke-linejoin="round"/>
<path d="M74.761 147.065L80.1167 145.096" stroke="#FFE8E8" stroke-miterlimit="10" stroke-linecap="round" stroke-linejoin="round"/>
<path d="M89.4753 145.201L89.0024 145.375C87.7143 145.849 87.0568 147.284 87.5337 148.581L87.9291 149.656C88.0148 149.889 88.272 150.009 88.5035 149.924L97.8363 146.493C98.0678 146.407 98.186 146.149 98.1003 145.916L97.7049 144.841C97.228 143.544 95.7972 142.877 94.5091 143.35L94.0665 143.513" stroke="#FFE8E8" stroke-miterlimit="10" stroke-linecap="round" stroke-linejoin="round"/>
<path d="M88.3002 143.657L87.5999 141.753C87.0282 140.198 87.8251 138.474 89.3799 137.902C90.9348 137.331 92.6586 138.127 93.2304 139.682L93.9268 141.576C94.4996 143.134 93.7011 144.861 92.1434 145.434C90.5915 146.005 88.8708 145.209 88.3002 143.657Z" stroke="#FFE8E8" stroke-miterlimit="10" stroke-linecap="round" stroke-linejoin="round"/>
<path d="M87.929 142.223L93.2846 140.254" stroke="#FFE8E8" stroke-miterlimit="10" stroke-linecap="round" stroke-linejoin="round"/>
<path d="M78.3573 136.298L77.0548 128.879C77.0263 128.705 77.248 128.606 77.3586 128.744L81.9469 134.916C82.0507 135.045 82.2592 134.967 82.2529 134.802L81.6809 127.156C81.6741 126.979 81.9062 126.908 81.999 127.059L85.8877 133.529" stroke="#FFE8E8" stroke-miterlimit="10" stroke-linecap="round" stroke-linejoin="round"/>
<path d="M66.0579 133.466C65.3463 133.291 64.5763 133.319 63.8365 133.591C61.8639 134.316 60.8527 136.503 61.5781 138.476C62.3035 140.449 64.4907 141.46 66.4634 140.735C67.2646 140.44 67.8266 139.934 68.1629 139.304C68.2326 139.174 68.2924 139.039 68.3428 138.899" stroke="#FFE8E8" stroke-miterlimit="10" stroke-linecap="round" stroke-linejoin="round"/>
<path d="M71.3713 135.059L75.6259 137.365" stroke="#FFE8E8" stroke-miterlimit="10" stroke-linecap="round" stroke-linejoin="round"/>
<path d="M71.7792 138.78L69.1392 131.641C69.1392 131.641 70.4148 131.172 71.0375 130.943C72.1001 130.552 73.3049 131.053 73.6819 132.078C74.059 133.103 73.4655 134.265 72.4029 134.656C71.8759 134.85 70.7991 135.255 70.7991 135.255" stroke="#FFE8E8" stroke-miterlimit="10" stroke-linecap="round" stroke-linejoin="round"/>
<g clip-path="url(#clip0_245_1622)">
<path d="M158.713 342.848L119.321 312.61" stroke="#FFE8E8" stroke-miterlimit="10" stroke-linecap="round" stroke-linejoin="round"/>
<path d="M106.056 329.504L123.39 306.923C124.001 306.127 125.14 305.978 125.935 306.588L155.969 329.642" stroke="#FFE8E8" stroke-miterlimit="10" stroke-linecap="round" stroke-linejoin="round"/>
<path d="M158.83 331.839L162.807 334.891C163.602 335.502 163.752 336.641 163.142 337.436L141.53 365.59C140.92 366.385 139.781 366.535 138.986 365.925L102.113 337.621C101.318 337.011 101.169 335.872 101.779 335.076L103.948 332.25" stroke="#FFE8E8" stroke-miterlimit="10" stroke-linecap="round" stroke-linejoin="round"/>
<path d="M125.325 313.576C125.988 314.084 126.937 313.959 127.446 313.297C127.954 312.634 127.829 311.685 127.167 311.176C126.504 310.668 125.555 310.792 125.046 311.455C124.537 312.118 124.662 313.067 125.325 313.576Z" stroke="#FFE8E8" stroke-miterlimit="10" stroke-linecap="round" stroke-linejoin="round"/>
<path d="M130.324 317.413C130.986 317.922 131.936 317.797 132.444 317.134C132.953 316.471 132.828 315.522 132.166 315.013C131.503 314.505 130.554 314.63 130.045 315.292C129.536 315.955 129.661 316.904 130.324 317.413Z" stroke="#FFE8E8" stroke-miterlimit="10" stroke-linecap="round" stroke-linejoin="round"/>
<path d="M135.323 321.25C135.985 321.759 136.935 321.634 137.443 320.971C137.952 320.309 137.827 319.359 137.165 318.851C136.502 318.342 135.553 318.467 135.044 319.129C134.535 319.792 134.66 320.742 135.323 321.25Z" stroke="#FFE8E8" stroke-miterlimit="10" stroke-linecap="round" stroke-linejoin="round"/>
<path d="M109.544 337.942L109.127 337.622C107.993 336.751 106.362 336.971 105.485 338.114L104.758 339.061C104.601 339.266 104.638 339.559 104.842 339.716L113.062 346.025C113.266 346.182 113.559 346.142 113.716 345.937L114.443 344.99C115.32 343.848 115.111 342.216 113.977 341.345L113.587 341.046" stroke="#FFE8E8" stroke-miterlimit="10" stroke-linecap="round" stroke-linejoin="round"/>
<path d="M110.249 336.047L111.537 334.37C112.588 333 114.55 332.742 115.92 333.794C117.289 334.845 117.547 336.807 116.496 338.176L115.215 339.844C114.162 341.216 112.196 341.475 110.825 340.422C109.458 339.372 109.2 337.414 110.249 336.047Z" stroke="#FFE8E8" stroke-miterlimit="10" stroke-linecap="round" stroke-linejoin="round"/>
<path d="M111.305 334.922L116.022 338.542" stroke="#FFE8E8" stroke-miterlimit="10" stroke-linecap="round" stroke-linejoin="round"/>
<path d="M121.141 346.844L120.724 346.524C119.59 345.654 117.96 345.874 117.083 347.016L116.356 347.963C116.198 348.168 116.236 348.462 116.44 348.618L124.659 354.928C124.863 355.084 125.156 355.045 125.314 354.839L126.041 353.892C126.918 352.75 126.709 351.118 125.574 350.247L125.185 349.948" stroke="#FFE8E8" stroke-miterlimit="10" stroke-linecap="round" stroke-linejoin="round"/>
<path d="M121.847 344.95L123.134 343.272C124.185 341.903 126.148 341.645 127.517 342.696C128.886 343.747 129.144 345.709 128.093 347.079L126.813 348.747C125.76 350.119 123.794 350.377 122.422 349.324C121.055 348.275 120.798 346.316 121.847 344.95Z" stroke="#FFE8E8" stroke-miterlimit="10" stroke-linecap="round" stroke-linejoin="round"/>
<path d="M122.903 343.824L127.62 347.445" stroke="#FFE8E8" stroke-miterlimit="10" stroke-linecap="round" stroke-linejoin="round"/>
<path d="M132.739 355.747L132.322 355.427C131.188 354.556 129.557 354.776 128.68 355.918L127.953 356.865C127.796 357.071 127.833 357.364 128.037 357.521L136.257 363.83C136.461 363.987 136.754 363.947 136.912 363.742L137.638 362.795C138.515 361.652 138.306 360.021 137.172 359.15L136.782 358.851" stroke="#FFE8E8" stroke-miterlimit="10" stroke-linecap="round" stroke-linejoin="round"/>
<path d="M133.444 353.852L134.732 352.175C135.783 350.805 137.745 350.547 139.115 351.598C140.484 352.65 140.742 354.612 139.691 355.981L138.411 357.649C137.357 359.021 135.392 359.28 134.02 358.226C132.653 357.177 132.395 355.219 133.444 353.852Z" stroke="#FFE8E8" stroke-miterlimit="10" stroke-linecap="round" stroke-linejoin="round"/>
<path d="M134.5 352.726L139.217 356.347" stroke="#FFE8E8" stroke-miterlimit="10" stroke-linecap="round" stroke-linejoin="round"/>
<path d="M134.39 340.996L140.199 335.718C140.337 335.595 140.547 335.736 140.488 335.91L137.606 343.388C137.55 343.552 137.735 343.692 137.877 343.594L144.293 338.833C144.445 338.728 144.637 338.893 144.556 339.059L141.022 346.087" stroke="#FFE8E8" stroke-miterlimit="10" stroke-linecap="round" stroke-linejoin="round"/>
<path d="M130.035 328.586C129.793 327.861 129.34 327.198 128.689 326.698C126.951 325.365 124.462 325.692 123.128 327.429C121.794 329.167 122.122 331.656 123.859 332.99C124.565 333.532 125.323 333.745 126.065 333.691C126.218 333.68 126.371 333.657 126.523 333.623" stroke="#FFE8E8" stroke-miterlimit="10" stroke-linecap="round" stroke-linejoin="round"/>
<path d="M131.591 334.153L131.929 339.185" stroke="#FFE8E8" stroke-miterlimit="10" stroke-linecap="round" stroke-linejoin="round"/>
<path d="M128.541 336.584L133.359 330.283C133.359 330.283 134.482 331.146 135.031 331.567C135.967 332.285 136.197 333.625 135.503 334.528C134.81 335.431 133.456 335.555 132.52 334.837C132.056 334.481 131.1 333.758 131.1 333.758" stroke="#FFE8E8" stroke-miterlimit="10" stroke-linecap="round" stroke-linejoin="round"/>
</g>
<path d="M201.628 487.439L156.381 494.431" stroke="#FFE8E8" stroke-miterlimit="10" stroke-linecap="round" stroke-linejoin="round"/>
<path d="M159.19 514.034L155.182 488.096C155.041 487.182 155.667 486.327 156.58 486.186L191.078 480.855" stroke="#FFE8E8" stroke-miterlimit="10" stroke-linecap="round" stroke-linejoin="round"/>
<path d="M194.365 480.347L198.933 479.642C199.847 479.5 200.701 480.126 200.843 481.04L205.84 513.379C205.981 514.292 205.355 515.147 204.442 515.288L162.089 521.833C161.175 521.974 160.321 521.348 160.179 520.435L159.678 517.189" stroke="#FFE8E8" stroke-miterlimit="10" stroke-linecap="round" stroke-linejoin="round"/>
<path d="M160.849 491.044C161.61 490.927 162.131 490.215 162.014 489.453C161.896 488.692 161.184 488.171 160.423 488.288C159.662 488.406 159.14 489.118 159.258 489.879C159.375 490.64 160.088 491.162 160.849 491.044Z" stroke="#FFE8E8" stroke-miterlimit="10" stroke-linecap="round" stroke-linejoin="round"/>
<path d="M166.591 490.157C167.352 490.04 167.874 489.327 167.756 488.566C167.638 487.805 166.926 487.283 166.165 487.401C165.404 487.519 164.882 488.231 165 488.992C165.117 489.753 165.83 490.275 166.591 490.157Z" stroke="#FFE8E8" stroke-miterlimit="10" stroke-linecap="round" stroke-linejoin="round"/>
<path d="M172.333 489.27C173.094 489.152 173.616 488.44 173.498 487.679C173.38 486.918 172.668 486.396 171.907 486.514C171.146 486.631 170.624 487.344 170.742 488.105C170.859 488.866 171.572 489.387 172.333 489.27Z" stroke="#FFE8E8" stroke-miterlimit="10" stroke-linecap="round" stroke-linejoin="round"/>
<path d="M167.036 517.085L166.557 517.159C165.254 517.36 164.362 518.587 164.565 519.899L164.733 520.987C164.769 521.223 164.989 521.385 165.223 521.348L174.665 519.889C174.899 519.853 175.059 519.633 175.023 519.397L174.855 518.309C174.652 516.997 173.431 516.097 172.128 516.298L171.68 516.367" stroke="#FFE8E8" stroke-miterlimit="10" stroke-linecap="round" stroke-linejoin="round"/>
<path d="M166.222 515.408L165.924 513.481C165.681 511.908 166.759 510.436 168.332 510.193C169.905 509.95 171.377 511.028 171.621 512.601L171.917 514.517C172.16 516.092 171.08 517.567 169.504 517.811C167.934 518.053 166.465 516.977 166.222 515.408Z" stroke="#FFE8E8" stroke-miterlimit="10" stroke-linecap="round" stroke-linejoin="round"/>
<path d="M166.145 513.986L171.563 513.149" stroke="#FFE8E8" stroke-miterlimit="10" stroke-linecap="round" stroke-linejoin="round"/>
<path d="M180.357 515.026L179.879 515.1C178.576 515.302 177.684 516.528 177.886 517.841L178.055 518.928C178.091 519.164 178.31 519.326 178.545 519.29L187.986 517.831C188.22 517.795 188.381 517.574 188.344 517.338L188.176 516.251C187.973 514.938 186.753 514.038 185.45 514.239L185.002 514.309" stroke="#FFE8E8" stroke-miterlimit="10" stroke-linecap="round" stroke-linejoin="round"/>
<path d="M179.544 513.349L179.246 511.422C179.003 509.849 180.081 508.377 181.654 508.134C183.227 507.891 184.699 508.969 184.942 510.542L185.238 512.458C185.482 514.034 184.402 515.509 182.826 515.752C181.256 515.995 179.786 514.919 179.544 513.349Z" stroke="#FFE8E8" stroke-miterlimit="10" stroke-linecap="round" stroke-linejoin="round"/>
<path d="M179.467 511.928L184.885 511.091" stroke="#FFE8E8" stroke-miterlimit="10" stroke-linecap="round" stroke-linejoin="round"/>
<path d="M193.678 512.968L193.2 513.042C191.897 513.243 191.005 514.47 191.208 515.782L191.376 516.87C191.412 517.106 191.632 517.267 191.866 517.231L201.307 515.772C201.542 515.736 201.702 515.516 201.666 515.28L201.497 514.192C201.295 512.88 200.074 511.979 198.771 512.181L198.323 512.25" stroke="#FFE8E8" stroke-miterlimit="10" stroke-linecap="round" stroke-linejoin="round"/>
<path d="M192.865 511.29L192.568 509.364C192.324 507.791 193.403 506.319 194.975 506.076C196.548 505.832 198.021 506.91 198.264 508.483L198.56 510.399C198.803 511.975 197.723 513.45 196.147 513.694C194.577 513.936 193.108 512.86 192.865 511.29Z" stroke="#FFE8E8" stroke-miterlimit="10" stroke-linecap="round" stroke-linejoin="round"/>
<path d="M192.788 509.869L198.206 509.032" stroke="#FFE8E8" stroke-miterlimit="10" stroke-linecap="round" stroke-linejoin="round"/>
<path d="M184.899 502.47L185.082 495.236C185.088 495.066 185.316 495.015 185.394 495.166L188.542 501.851C188.615 501.992 188.827 501.959 188.852 501.802L189.766 494.492C189.793 494.324 190.025 494.302 190.084 494.461L192.517 501.293" stroke="#FFE8E8" stroke-miterlimit="10" stroke-linecap="round" stroke-linejoin="round"/>
<path d="M173.854 497.467C173.217 497.167 172.486 497.047 171.738 497.162C169.742 497.471 168.374 499.338 168.683 501.334C168.991 503.33 170.859 504.698 172.855 504.389C173.665 504.264 174.291 503.894 174.727 503.365C174.817 503.256 174.899 503.14 174.973 503.017" stroke="#FFE8E8" stroke-miterlimit="10" stroke-linecap="round" stroke-linejoin="round"/>
<path d="M178.555 499.977L182.124 502.957" stroke="#FFE8E8" stroke-miterlimit="10" stroke-linecap="round" stroke-linejoin="round"/>
<path d="M178.232 503.558L177.102 496.333C177.102 496.333 178.393 496.134 179.023 496.036C180.098 495.87 181.137 496.571 181.298 497.608C181.458 498.645 180.678 499.627 179.603 499.793C179.07 499.875 177.979 500.052 177.979 500.052" stroke="#FFE8E8" stroke-miterlimit="10" stroke-linecap="round" stroke-linejoin="round"/>
<g clip-path="url(#clip1_245_1622)">
<mask id="mask0_245_1622" style="mask-type:luminance" maskUnits="userSpaceOnUse" x="163" y="220" width="64" height="64">
<path d="M163 237.247L209.054 220L226.3 266.054L180.247 283.3L163 237.247Z" fill="white"/>
</mask>
<g mask="url(#mask0_245_1622)">
<path d="M201.49 241.87C203.404 243.206 204.946 245.115 205.826 247.465C208.137 253.637 205.007 260.514 198.835 262.826C192.663 265.137 185.786 262.008 183.475 255.835C181.163 249.663 184.293 242.786 190.465 240.474C193.149 239.469 195.966 239.493 198.483 240.348" stroke="#FFE8E8" stroke-miterlimit="10" stroke-linecap="round" stroke-linejoin="round"/>
<path d="M172.927 241.764L170.898 246.222C170.801 246.435 170.872 246.688 171.067 246.818L176.022 250.152C176.093 250.2 176.133 250.282 176.127 250.367C176.097 250.795 176.082 251.226 176.082 251.658C176.082 251.744 176.037 251.822 175.963 251.865L170.791 254.85C170.588 254.968 170.499 255.215 170.581 255.434L174.016 264.607C174.099 264.827 174.328 264.954 174.558 264.909L180.419 263.763C180.502 263.747 180.588 263.777 180.644 263.841C180.928 264.167 181.222 264.482 181.526 264.785C181.587 264.845 181.611 264.933 181.589 265.015L180.042 270.784C179.981 271.011 180.093 271.248 180.307 271.345L189.222 275.402C189.435 275.499 189.688 275.428 189.819 275.233L193.152 270.278C193.2 270.207 193.282 270.168 193.367 270.174C193.795 270.204 194.226 270.219 194.658 270.219C194.744 270.219 194.823 270.264 194.865 270.337L197.85 275.51C197.968 275.713 198.215 275.801 198.434 275.719L207.607 272.284C207.827 272.202 207.955 271.973 207.91 271.743L206.763 265.882C206.747 265.798 206.777 265.712 206.841 265.656C207.167 265.373 207.482 265.078 207.785 264.774C207.846 264.714 207.933 264.69 208.016 264.712L213.784 266.258C214.011 266.319 214.248 266.207 214.345 265.994L218.402 257.079C218.5 256.865 218.428 256.613 218.233 256.482L213.278 253.148C213.207 253.1 213.168 253.019 213.174 252.934C213.204 252.505 213.219 252.074 213.219 251.642C213.219 251.557 213.264 251.478 213.337 251.435L218.51 248.45C218.713 248.333 218.801 248.086 218.719 247.866L215.284 238.694C215.202 238.474 214.973 238.346 214.743 238.391L208.882 239.537C208.798 239.554 208.713 239.524 208.656 239.46C208.373 239.134 208.078 238.819 207.774 238.515C207.714 238.455 207.69 238.367 207.712 238.285L209.259 232.516C209.319 232.29 209.207 232.052 208.994 231.955L200.079 227.898C199.865 227.801 199.613 227.872 199.482 228.067L196.148 233.022C196.101 233.093 196.019 233.133 195.934 233.127C195.505 233.097 195.074 233.082 194.642 233.082C194.557 233.082 194.478 233.037 194.435 232.963L191.45 227.791C191.333 227.588 191.086 227.499 190.866 227.581L181.694 231.016C181.474 231.099 181.346 231.328 181.391 231.558L182.537 237.419C182.554 237.502 182.524 237.588 182.46 237.644C182.134 237.928 181.819 238.222 181.515 238.526C181.455 238.587 181.368 238.61 181.285 238.588L175.516 237.042C175.29 236.981 175.052 237.093 174.955 237.307L174.332 238.677" stroke="#FFE8E8" stroke-miterlimit="10" stroke-linecap="round" stroke-linejoin="round"/>
<path d="M212.973 248.651C212.779 247.474 212.469 246.299 212.035 245.14C211.6 243.981 211.063 242.89 210.436 241.876" stroke="#FFE8E8" stroke-miterlimit="10" stroke-linecap="round" stroke-linejoin="round"/>
<path d="M209.726 262.486C211.144 260.509 212.163 258.268 212.723 255.9" stroke="#FFE8E8" stroke-miterlimit="10" stroke-linecap="round" stroke-linejoin="round"/>
<path d="M197.649 269.973C198.826 269.779 200.001 269.469 201.161 269.035C202.32 268.6 203.41 268.063 204.425 267.436" stroke="#FFE8E8" stroke-miterlimit="10" stroke-linecap="round" stroke-linejoin="round"/>
<path d="M183.815 266.726C185.792 268.144 188.032 269.163 190.4 269.723" stroke="#FFE8E8" stroke-miterlimit="10" stroke-linecap="round" stroke-linejoin="round"/>
<path d="M176.327 254.649C176.521 255.826 176.832 257.001 177.266 258.16C177.7 259.32 178.238 260.41 178.864 261.425" stroke="#FFE8E8" stroke-miterlimit="10" stroke-linecap="round" stroke-linejoin="round"/>
<path d="M179.575 240.815C178.157 242.792 177.137 245.032 176.578 247.4" stroke="#FFE8E8" stroke-miterlimit="10" stroke-linecap="round" stroke-linejoin="round"/>
<path d="M191.651 233.327C190.474 233.521 189.299 233.832 188.14 234.266C186.981 234.7 185.891 235.238 184.876 235.864" stroke="#FFE8E8" stroke-miterlimit="10" stroke-linecap="round" stroke-linejoin="round"/>
<path d="M205.486 236.575C203.509 235.157 201.268 234.137 198.9 233.578" stroke="#FFE8E8" stroke-miterlimit="10" stroke-linecap="round" stroke-linejoin="round"/>
<path d="M190.664 255.752L191.455 254.014" stroke="#FFE8E8" stroke-miterlimit="10" stroke-linecap="round" stroke-linejoin="round"/>
<path d="M193.177 256.895L193.968 255.158" stroke="#FFE8E8" stroke-miterlimit="10" stroke-linecap="round" stroke-linejoin="round"/>
<path d="M199.342 251.666L201.721 252.748C202.208 252.97 202.783 252.755 203.005 252.268L203.345 251.519C203.567 251.032 203.352 250.457 202.865 250.236L200.485 249.153C199.791 248.837 198.973 249.143 198.657 249.837C198.341 250.531 198.648 251.35 199.342 251.666Z" stroke="#FFE8E8" stroke-miterlimit="10" stroke-linecap="round" stroke-linejoin="round"/>
<path d="M198.198 254.178L200.578 255.261C201.065 255.483 201.639 255.268 201.861 254.781L202.202 254.032C202.424 253.545 202.208 252.97 201.721 252.748L199.342 251.666C198.648 251.35 197.829 251.656 197.513 252.35C197.198 253.044 197.504 253.863 198.198 254.178Z" stroke="#FFE8E8" stroke-miterlimit="10" stroke-linecap="round" stroke-linejoin="round"/>
<path d="M197.054 256.691L199.434 257.774C199.921 257.996 200.496 257.781 200.717 257.293L201.058 256.545C201.28 256.058 201.065 255.483 200.577 255.261L198.198 254.178C197.504 253.863 196.686 254.169 196.37 254.863C196.054 255.557 196.36 256.375 197.054 256.691Z" stroke="#FFE8E8" stroke-miterlimit="10" stroke-linecap="round" stroke-linejoin="round"/>
<path d="M196.107 259.293L197.818 260.072C198.305 260.294 198.88 260.079 199.102 259.591L199.442 258.843C199.664 258.356 199.449 257.781 198.962 257.559L197.25 256.78C196.556 256.465 195.738 256.771 195.422 257.465C195.106 258.159 195.413 258.978 196.107 259.293Z" stroke="#FFE8E8" stroke-miterlimit="10" stroke-linecap="round" stroke-linejoin="round"/>
<path d="M189.668 248.223C189.988 248.513 190.398 248.69 190.829 248.723" stroke="#FFE8E8" stroke-miterlimit="10" stroke-linecap="round" stroke-linejoin="round"/>
<path d="M190.829 248.723C191.105 248.745 191.389 248.708 191.665 248.605L192.421 248.322L192.522 248.591C193.001 249.869 194.424 250.517 195.702 250.038C195.774 250.011 195.832 249.957 195.864 249.886C195.896 249.816 195.899 249.736 195.872 249.664C195.568 248.851 194.692 246.513 194.682 246.487C194.15 245.114 192.609 244.419 191.224 244.938L189.082 245.74L189.08 245.741C188.955 245.788 188.816 245.783 188.695 245.728L185.329 244.196" stroke="#FFE8E8" stroke-miterlimit="10" stroke-linecap="round" stroke-linejoin="round"/>
<path d="M182.719 251.285L185.599 252.596C185.715 252.648 185.808 252.743 185.853 252.862C186.229 253.859 186.893 254.748 187.793 255.394C188.044 255.574 188.304 255.729 188.571 255.861" stroke="#FFE8E8" stroke-miterlimit="10" stroke-linecap="round" stroke-linejoin="round"/>
<path d="M196.782 239.907L195.248 243.277C195.195 243.394 195.1 243.487 194.98 243.531C194.211 243.817 193.506 244.272 192.926 244.875" stroke="#FFE8E8" stroke-miterlimit="10" stroke-linecap="round" stroke-linejoin="round"/>
<path d="M202.28 249.969C202.534 248.891 202.451 247.784 202.08 246.785C202.035 246.666 202.043 246.534 202.096 246.418L203.406 243.538" stroke="#FFE8E8" stroke-miterlimit="10" stroke-linecap="round" stroke-linejoin="round"/>
<path d="M188.49 253.864L188.151 254.608C187.928 255.098 188.148 255.671 188.632 255.892L189.381 256.232C189.868 256.454 190.442 256.239 190.664 255.752C190.442 256.239 190.658 256.814 191.145 257.035L191.893 257.376C192.381 257.598 192.955 257.382 193.177 256.895C192.955 257.382 193.171 257.957 193.658 258.179L196.107 259.293" stroke="#FFE8E8" stroke-miterlimit="10" stroke-linecap="round" stroke-linejoin="round"/>
<path d="M190.829 248.723L189.912 250.74" stroke="#FFE8E8" stroke-miterlimit="10" stroke-linecap="round" stroke-linejoin="round"/>
</g>
</g>
<g clip-path="url(#clip2_245_1622)">
<mask id="mask1_245_1622" style="mask-type:luminance" maskUnits="userSpaceOnUse" x="41" y="402" width="50" height="49">
<path d="M48.2972 402L90.0651 408.298L83.7676 450.065L41.9998 443.768L48.2972 402Z" fill="white"/>
</mask>
<g mask="url(#mask1_245_1622)">
<path d="M75.2519 421.551C76.1297 423.352 76.4895 425.429 76.1681 427.561C75.3241 433.159 70.102 437.012 64.5043 436.168C58.9065 435.324 55.0528 430.102 55.8968 424.504C56.7408 418.907 61.9629 415.053 67.5607 415.897C69.9946 416.264 72.0988 417.459 73.6305 419.152" stroke="#FFE8E8" stroke-miterlimit="10" stroke-linecap="round" stroke-linejoin="round"/>
<path d="M53.8597 409.538L50.475 412.035C50.3129 412.155 50.2611 412.374 50.3525 412.554L52.6785 417.126C52.7117 417.191 52.7072 417.269 52.6672 417.331C52.4656 417.64 52.2744 417.957 52.0939 418.281C52.0583 418.345 51.9916 418.386 51.9183 418.387L46.7895 418.466C46.5881 418.469 46.4184 418.618 46.3883 418.817L45.1341 427.136C45.104 427.335 45.2225 427.527 45.414 427.589L50.2914 429.177C50.3611 429.2 50.4129 429.258 50.428 429.33C50.5048 429.693 50.5941 430.052 50.6956 430.407C50.7157 430.478 50.6971 430.553 50.6461 430.606L47.0753 434.289C46.9351 434.434 46.9199 434.659 47.0396 434.821L52.0351 441.59C52.1547 441.752 52.374 441.804 52.5537 441.713L57.1259 439.387C57.1913 439.353 57.269 439.358 57.3305 439.398C57.6395 439.599 57.9565 439.791 58.2809 439.971C58.3449 440.007 58.3853 440.074 58.3865 440.147L58.4659 445.276C58.4691 445.477 58.6174 445.647 58.8166 445.677L67.1356 446.931C67.3348 446.961 67.5265 446.843 67.589 446.651L69.1771 441.774C69.1998 441.704 69.258 441.652 69.3297 441.637C69.6929 441.56 70.0522 441.471 70.4069 441.37C70.4774 441.349 70.5531 441.368 70.6058 441.419L74.289 444.99C74.4336 445.13 74.6585 445.145 74.8206 445.026L81.5899 440.03C81.752 439.91 81.8039 439.691 81.7125 439.512L79.3864 434.939C79.3532 434.874 79.3578 434.796 79.3978 434.735C79.5993 434.426 79.7907 434.109 79.9711 433.784C80.0067 433.72 80.0734 433.68 80.1466 433.679L85.2754 433.599C85.4769 433.596 85.6466 433.448 85.6766 433.249L86.9309 424.93C86.9609 424.73 86.8426 424.539 86.6509 424.476L81.7735 422.888C81.7039 422.865 81.6522 422.807 81.6369 422.735C81.5602 422.372 81.4708 422.013 81.3693 421.658C81.3493 421.588 81.3678 421.512 81.4188 421.459L84.9896 417.776C85.1299 417.632 85.145 417.407 85.0253 417.245L80.0299 410.475C79.9102 410.313 79.6909 410.261 79.5114 410.353L74.9391 412.679C74.8737 412.712 74.7959 412.707 74.7344 412.667C74.4254 412.466 74.1084 412.275 73.784 412.094C73.72 412.058 73.6796 411.992 73.6785 411.919L73.599 406.79C73.5959 406.588 73.4475 406.419 73.2483 406.389L64.9294 405.134C64.7301 405.104 64.5384 405.223 64.476 405.414L62.8878 410.292C62.8652 410.361 62.8069 410.413 62.7353 410.428C62.372 410.505 62.0128 410.594 61.658 410.696C61.5875 410.716 61.5119 410.697 61.4592 410.646L57.776 407.076C57.6313 406.935 57.4065 406.92 57.2444 407.04L56.2037 407.808" stroke="#FFE8E8" stroke-miterlimit="10" stroke-linecap="round" stroke-linejoin="round"/>
<path d="M81.0366 431.437C81.3827 430.473 81.6405 429.461 81.799 428.41C81.9575 427.358 82.0095 426.316 81.9631 425.292" stroke="#FFE8E8" stroke-miterlimit="10" stroke-linecap="round" stroke-linejoin="round"/>
<path d="M72.8193 440.463C74.7096 439.571 76.411 438.316 77.8199 436.772" stroke="#FFE8E8" stroke-miterlimit="10" stroke-linecap="round" stroke-linejoin="round"/>
<path d="M60.6281 441.037C61.5923 441.383 62.604 441.641 63.6554 441.799C64.7068 441.958 65.7496 442.01 66.7729 441.963" stroke="#FFE8E8" stroke-miterlimit="10" stroke-linecap="round" stroke-linejoin="round"/>
<path d="M51.6024 432.82C52.4937 434.71 53.7491 436.411 55.2927 437.82" stroke="#FFE8E8" stroke-miterlimit="10" stroke-linecap="round" stroke-linejoin="round"/>
<path d="M51.0284 420.628C50.6823 421.592 50.4245 422.604 50.266 423.655C50.1074 424.707 50.0555 425.75 50.102 426.773" stroke="#FFE8E8" stroke-miterlimit="10" stroke-linecap="round" stroke-linejoin="round"/>
<path d="M59.2457 411.603C57.3554 412.494 55.6541 413.749 54.2451 415.293" stroke="#FFE8E8" stroke-miterlimit="10" stroke-linecap="round" stroke-linejoin="round"/>
<path d="M71.437 411.029C70.4728 410.682 69.4611 410.425 68.4097 410.266C67.3584 410.108 66.3155 410.056 65.2922 410.102" stroke="#FFE8E8" stroke-miterlimit="10" stroke-linecap="round" stroke-linejoin="round"/>
<path d="M80.4623 419.246C79.5711 417.356 78.3157 415.654 76.7721 414.245" stroke="#FFE8E8" stroke-miterlimit="10" stroke-linecap="round" stroke-linejoin="round"/>
<path d="M61.3274 427.445L62.6466 426.472" stroke="#FFE8E8" stroke-miterlimit="10" stroke-linecap="round" stroke-linejoin="round"/>
<path d="M62.7356 429.353L64.0548 428.38" stroke="#FFE8E8" stroke-miterlimit="10" stroke-linecap="round" stroke-linejoin="round"/>
<path d="M69.5469 428.004L70.8802 429.811C71.1532 430.181 71.6744 430.259 72.0443 429.986L72.6127 429.567C72.9827 429.294 73.0613 428.773 72.7882 428.403L71.4549 426.596C71.0661 426.069 70.3238 425.957 69.7969 426.346C69.27 426.735 69.1581 427.477 69.5469 428.004Z" stroke="#FFE8E8" stroke-miterlimit="10" stroke-linecap="round" stroke-linejoin="round"/>
<path d="M67.6387 429.412L68.972 431.219C69.245 431.589 69.7662 431.668 70.1361 431.395L70.7045 430.975C71.0745 430.702 71.1531 430.181 70.88 429.811L69.5467 428.004C69.1579 427.477 68.4156 427.365 67.8886 427.754C67.3618 428.143 67.2499 428.885 67.6387 429.412Z" stroke="#FFE8E8" stroke-miterlimit="10" stroke-linecap="round" stroke-linejoin="round"/>
<path d="M65.7308 430.82L67.0641 432.627C67.3371 432.997 67.8583 433.076 68.2282 432.803L68.7966 432.383C69.1666 432.11 69.2452 431.589 68.9721 431.219L67.6388 429.412C67.25 428.885 66.5077 428.773 65.9807 429.162C65.4538 429.551 65.3419 430.293 65.7308 430.82Z" stroke="#FFE8E8" stroke-miterlimit="10" stroke-linecap="round" stroke-linejoin="round"/>
<path d="M63.9323 432.377L64.8912 433.677C65.1642 434.046 65.6854 434.125 66.0553 433.852L66.6238 433.433C66.9936 433.16 67.0722 432.638 66.7993 432.268L65.8404 430.969C65.4515 430.442 64.7093 430.33 64.1823 430.719C63.6554 431.108 63.5435 431.85 63.9323 432.377Z" stroke="#FFE8E8" stroke-miterlimit="10" stroke-linecap="round" stroke-linejoin="round"/>
<path d="M63.7251 421.379C63.8444 421.73 64.0779 422.034 64.3877 422.24" stroke="#FFE8E8" stroke-miterlimit="10" stroke-linecap="round" stroke-linejoin="round"/>
<path d="M64.3876 422.24C64.5853 422.371 64.8142 422.462 65.0643 422.5L65.7501 422.603L65.7132 422.848C65.5385 424.007 66.3361 425.087 67.4948 425.262C67.5603 425.272 67.6271 425.255 67.6804 425.216C67.7337 425.177 67.7692 425.118 67.779 425.052C67.89 424.316 68.21 422.195 68.2132 422.171C68.3874 420.918 67.5213 419.753 66.2651 419.564L64.3226 419.271L64.3209 419.271C64.2075 419.253 64.1055 419.192 64.0374 419.1L62.1513 416.544" stroke="#FFE8E8" stroke-miterlimit="10" stroke-linecap="round" stroke-linejoin="round"/>
<path d="M57.2311 420.774L58.8451 422.961C58.9099 423.049 58.9399 423.158 58.9239 423.266C58.7899 424.172 58.9165 425.117 59.3223 425.978C59.435 426.217 59.5654 426.443 59.7109 426.653" stroke="#FFE8E8" stroke-miterlimit="10" stroke-linecap="round" stroke-linejoin="round"/>
<path d="M72.5386 418.11L69.9793 419.999C69.8909 420.064 69.7803 420.094 69.6716 420.077C68.9758 419.971 68.2563 420.018 67.5688 420.228" stroke="#FFE8E8" stroke-miterlimit="10" stroke-linecap="round" stroke-linejoin="round"/>
<path d="M72.4604 427.959C73.1021 427.256 73.5016 426.39 73.6406 425.485C73.6571 425.377 73.7181 425.281 73.8059 425.217L75.9931 423.603" stroke="#FFE8E8" stroke-miterlimit="10" stroke-linecap="round" stroke-linejoin="round"/>
<path d="M60.4844 425.12L59.9193 425.537C59.5471 425.812 59.4724 426.334 59.7438 426.701L60.1634 427.27C60.4364 427.64 60.9575 427.718 61.3275 427.445C60.9575 427.718 60.879 428.24 61.152 428.609L61.5715 429.178C61.8445 429.548 62.3656 429.626 62.7356 429.353C62.3656 429.626 62.287 430.148 62.5601 430.517L63.9324 432.377" stroke="#FFE8E8" stroke-miterlimit="10" stroke-linecap="round" stroke-linejoin="round"/>
<path d="M64.3876 422.24L62.8567 423.37" stroke="#FFE8E8" stroke-miterlimit="10" stroke-linecap="round" stroke-linejoin="round"/>
</g>
</g>
<g clip-path="url(#clip3_245_1622)">
<mask id="mask2_245_1622" style="mask-type:luminance" maskUnits="userSpaceOnUse" x="80" y="604" width="59" height="59">
<path d="M79.9999 622.053L120.601 604L138.653 644.601L98.0527 662.653L79.9999 622.053Z" fill="white"/>
</mask>
<g mask="url(#mask2_245_1622)">
<path d="M114.965 624.135C116.763 625.236 118.258 626.874 119.179 628.946C121.599 634.387 119.149 640.76 113.708 643.179C108.266 645.599 101.894 643.149 99.4744 637.708C97.055 632.266 99.5046 625.894 104.946 623.474C107.312 622.422 109.854 622.291 112.17 622.926" stroke="#FFE8E8" stroke-miterlimit="10" stroke-linecap="round" stroke-linejoin="round"/>
<path d="M89.1979 625.589L87.6102 629.719C87.5341 629.917 87.6122 630.141 87.7949 630.248L92.445 632.986C92.5114 633.025 92.5515 633.097 92.5507 633.174C92.5469 633.562 92.5567 633.951 92.5802 634.341C92.5849 634.418 92.5486 634.492 92.4843 634.534L87.9814 637.507C87.8046 637.624 87.738 637.851 87.8241 638.045L91.4197 646.132C91.5058 646.325 91.7194 646.428 91.9246 646.375L97.1482 645.023C97.2228 645.004 97.3017 645.026 97.3557 645.081C97.6294 645.36 97.9119 645.628 98.2026 645.885C98.2604 645.936 98.2867 646.014 98.2712 646.089L97.1893 651.376C97.1468 651.584 97.2606 651.792 97.4585 651.868L105.719 655.043C105.917 655.119 106.141 655.041 106.248 654.859L108.986 650.208C109.025 650.142 109.097 650.102 109.174 650.103C109.562 650.107 109.951 650.097 110.341 650.073C110.418 650.069 110.492 650.105 110.534 650.169L113.507 654.672C113.624 654.849 113.851 654.915 114.045 654.829L122.132 651.234C122.325 651.148 122.428 650.934 122.375 650.729L121.023 645.505C121.004 645.431 121.026 645.352 121.081 645.298C121.36 645.024 121.628 644.742 121.885 644.451C121.936 644.393 122.014 644.367 122.089 644.382L127.376 645.464C127.584 645.507 127.792 645.393 127.868 645.195L131.043 636.934C131.119 636.737 131.041 636.513 130.859 636.405L126.208 633.667C126.142 633.628 126.102 633.557 126.103 633.479C126.106 633.091 126.097 632.702 126.073 632.312C126.069 632.235 126.105 632.162 126.169 632.119L130.672 629.146C130.849 629.03 130.915 628.802 130.829 628.608L127.234 620.522C127.148 620.328 126.934 620.225 126.729 620.278L121.505 621.63C121.431 621.65 121.352 621.627 121.298 621.572C121.024 621.294 120.742 621.026 120.451 620.768C120.393 620.717 120.367 620.64 120.382 620.564L121.464 615.277C121.507 615.07 121.393 614.862 121.195 614.786L112.934 611.61C112.737 611.534 112.513 611.612 112.405 611.795L109.667 616.445C109.628 616.511 109.557 616.552 109.479 616.551C109.091 616.547 108.702 616.557 108.312 616.58C108.235 616.585 108.162 616.549 108.119 616.484L105.146 611.981C105.03 611.805 104.802 611.738 104.608 611.824L96.5218 615.42C96.3282 615.506 96.2252 615.719 96.2783 615.925L97.6302 621.148C97.6495 621.223 97.6271 621.302 97.5722 621.356C97.2935 621.629 97.0256 621.912 96.7684 622.203C96.7173 622.26 96.6396 622.287 96.564 622.271L91.2774 621.189C91.0697 621.147 90.8617 621.261 90.7857 621.459L90.2975 622.728" stroke="#FFE8E8" stroke-miterlimit="10" stroke-linecap="round" stroke-linejoin="round"/>
<path d="M125.69 629.628C125.451 628.577 125.107 627.534 124.653 626.512C124.198 625.49 123.654 624.536 123.034 623.655" stroke="#FFE8E8" stroke-miterlimit="10" stroke-linecap="round" stroke-linejoin="round"/>
<path d="M123.511 642.281C124.683 640.421 125.481 638.345 125.857 636.179" stroke="#FFE8E8" stroke-miterlimit="10" stroke-linecap="round" stroke-linejoin="round"/>
<path d="M113.025 649.69C114.076 649.451 115.119 649.107 116.141 648.653C117.163 648.198 118.117 647.654 118.998 647.034" stroke="#FFE8E8" stroke-miterlimit="10" stroke-linecap="round" stroke-linejoin="round"/>
<path d="M100.372 647.511C102.232 648.683 104.308 649.481 106.474 649.857" stroke="#FFE8E8" stroke-miterlimit="10" stroke-linecap="round" stroke-linejoin="round"/>
<path d="M92.9636 637.025C93.2023 638.076 93.5462 639.119 94.0007 640.141C94.4551 641.163 94.9992 642.117 95.6195 642.999" stroke="#FFE8E8" stroke-miterlimit="10" stroke-linecap="round" stroke-linejoin="round"/>
<path d="M95.1424 624.372C93.9706 626.232 93.1725 628.308 92.7966 630.474" stroke="#FFE8E8" stroke-miterlimit="10" stroke-linecap="round" stroke-linejoin="round"/>
<path d="M105.628 616.964C104.577 617.202 103.534 617.546 102.512 618.001C101.49 618.455 100.536 618.999 99.655 619.62" stroke="#FFE8E8" stroke-miterlimit="10" stroke-linecap="round" stroke-linejoin="round"/>
<path d="M118.281 619.143C116.421 617.971 114.345 617.173 112.179 616.797" stroke="#FFE8E8" stroke-miterlimit="10" stroke-linecap="round" stroke-linejoin="round"/>
<path d="M105.954 637.242L106.573 635.632" stroke="#FFE8E8" stroke-miterlimit="10" stroke-linecap="round" stroke-linejoin="round"/>
<path d="M108.282 638.137L108.901 636.527" stroke="#FFE8E8" stroke-miterlimit="10" stroke-linecap="round" stroke-linejoin="round"/>
<path d="M113.559 633.086L115.764 633.934C116.215 634.107 116.722 633.882 116.895 633.431L117.162 632.737C117.335 632.285 117.11 631.779 116.659 631.605L114.454 630.758C113.811 630.511 113.089 630.831 112.842 631.474C112.595 632.117 112.916 632.839 113.559 633.086Z" stroke="#FFE8E8" stroke-miterlimit="10" stroke-linecap="round" stroke-linejoin="round"/>
<path d="M112.663 635.415L114.868 636.262C115.32 636.436 115.826 636.21 116 635.759L116.267 635.065C116.44 634.614 116.215 634.107 115.763 633.934L113.559 633.086C112.916 632.839 112.194 633.16 111.947 633.803C111.7 634.446 112.021 635.167 112.663 635.415Z" stroke="#FFE8E8" stroke-miterlimit="10" stroke-linecap="round" stroke-linejoin="round"/>
<path d="M111.769 637.743L113.973 638.59C114.425 638.764 114.931 638.539 115.105 638.087L115.372 637.394C115.545 636.942 115.32 636.436 114.868 636.262L112.664 635.415C112.021 635.167 111.299 635.488 111.052 636.131C110.805 636.774 111.126 637.496 111.769 637.743Z" stroke="#FFE8E8" stroke-miterlimit="10" stroke-linecap="round" stroke-linejoin="round"/>
<path d="M111.055 640.141L112.64 640.751C113.092 640.924 113.598 640.699 113.772 640.247L114.039 639.554C114.212 639.102 113.987 638.596 113.536 638.422L111.95 637.813C111.307 637.566 110.585 637.886 110.338 638.529C110.091 639.172 110.412 639.894 111.055 640.141Z" stroke="#FFE8E8" stroke-miterlimit="10" stroke-linecap="round" stroke-linejoin="round"/>
<path d="M104.647 630.506C104.952 630.75 105.331 630.887 105.722 630.894" stroke="#FFE8E8" stroke-miterlimit="10" stroke-linecap="round" stroke-linejoin="round"/>
<path d="M105.722 630.894C105.971 630.899 106.226 630.85 106.469 630.742L107.136 630.446L107.241 630.683C107.742 631.81 109.061 632.317 110.187 631.816C110.251 631.788 110.301 631.735 110.326 631.67C110.351 631.605 110.349 631.533 110.321 631.469C110.002 630.753 109.086 628.691 109.075 628.669C108.521 627.459 107.093 626.916 105.872 627.459L103.984 628.298L103.982 628.299C103.872 628.348 103.747 628.351 103.634 628.308L100.515 627.109" stroke="#FFE8E8" stroke-miterlimit="10" stroke-linecap="round" stroke-linejoin="round"/>
<path d="M98.546 633.644L101.215 634.67C101.322 634.712 101.411 634.792 101.458 634.897C101.852 635.776 102.498 636.542 103.345 637.076C103.581 637.224 103.824 637.35 104.072 637.455" stroke="#FFE8E8" stroke-miterlimit="10" stroke-linecap="round" stroke-linejoin="round"/>
<path d="M110.613 622.62L109.412 625.743C109.371 625.851 109.289 625.94 109.184 625.986C108.506 626.286 107.895 626.735 107.404 627.31" stroke="#FFE8E8" stroke-miterlimit="10" stroke-linecap="round" stroke-linejoin="round"/>
<path d="M116.117 631.397C116.288 630.41 116.152 629.417 115.763 628.536C115.717 628.431 115.717 628.311 115.758 628.204L116.784 625.535" stroke="#FFE8E8" stroke-miterlimit="10" stroke-linecap="round" stroke-linejoin="round"/>
<path d="M103.891 635.658L103.626 636.347C103.451 636.801 103.68 637.306 104.129 637.479L104.823 637.745C105.274 637.919 105.781 637.693 105.954 637.242C105.781 637.693 106.006 638.2 106.457 638.374L107.151 638.64C107.602 638.814 108.109 638.589 108.282 638.137C108.109 638.589 108.334 639.095 108.786 639.269L111.055 640.141" stroke="#FFE8E8" stroke-miterlimit="10" stroke-linecap="round" stroke-linejoin="round"/>
<path d="M105.722 630.894L105.004 632.763" stroke="#FFE8E8" stroke-miterlimit="10" stroke-linecap="round" stroke-linejoin="round"/>
</g>
</g>
<g clip-path="url(#clip4_245_1622)">
<mask id="mask3_245_1622" style="mask-type:luminance" maskUnits="userSpaceOnUse" x="56" y="23" width="35" height="35">
<path d="M56 23.2749L90.1637 23L90.4386 57.1638L56.2749 57.4387L56 23.2749Z" fill="white"/>
</mask>
<g mask="url(#mask3_245_1622)">
<path d="M80.0144 35.4681C80.9444 36.7957 81.4956 38.4091 81.5096 40.1526C81.5465 44.7313 77.8646 48.4729 73.286 48.5097C68.7073 48.5465 64.9657 44.8647 64.9289 40.286C64.8921 35.7074 68.5739 31.9658 73.1526 31.929C75.1434 31.9129 76.9759 32.6 78.4146 33.7581" stroke="#FFE8E8" stroke-miterlimit="10" stroke-linecap="round" stroke-linejoin="round"/>
<path d="M61.4006 28.5893L59.0142 31.0144C58.8999 31.1306 58.8864 31.3123 58.9822 31.4442L61.421 34.801C61.4558 34.8491 61.4621 34.9117 61.4379 34.9659C61.3162 35.2384 61.2036 35.5159 61.1007 35.798C61.0804 35.8536 61.0322 35.8943 60.9739 35.9045L56.8871 36.6195C56.7266 36.6476 56.6099 36.7876 56.6112 36.9506L56.6659 43.755C56.6672 43.918 56.7862 44.0561 56.9472 44.0816L61.0449 44.7307C61.1034 44.7399 61.1522 44.7799 61.1734 44.8352C61.2809 45.1156 61.3979 45.3913 61.524 45.6617C61.549 45.7155 61.5437 45.7783 61.5097 45.8268L59.1252 49.2225C59.0315 49.3559 59.048 49.5374 59.1642 49.6517L64.0144 54.4244C64.1305 54.5388 64.3123 54.5523 64.4442 54.4565L67.801 52.0177C67.849 51.9829 67.9117 51.9766 67.9659 52.0008C68.2383 52.1225 68.5158 52.2351 68.7979 52.338C68.8535 52.3584 68.8943 52.4065 68.9045 52.4648L69.6194 56.5516C69.6475 56.7121 69.7876 56.8288 69.9505 56.8275L76.755 56.7727C76.9179 56.7714 77.056 56.6525 77.0815 56.4915L77.7306 52.3938C77.7399 52.3353 77.7799 52.2865 77.8351 52.2653C78.1156 52.1579 78.3912 52.0408 78.6617 51.9147C78.7154 51.8897 78.7782 51.8949 78.8268 51.929L82.2225 54.3134C82.3558 54.4071 82.5373 54.3906 82.6516 54.2745L87.4244 49.4243C87.5387 49.3081 87.5523 49.1264 87.4564 48.9946L85.0177 45.6377C84.9828 45.5897 84.9766 45.527 85.0007 45.4728C85.1224 45.2004 85.2351 44.9229 85.338 44.6408C85.3583 44.5851 85.4064 44.5444 85.4647 44.5342L89.5515 43.8192C89.7121 43.7911 89.8287 43.6511 89.8274 43.4882L89.7727 36.6837C89.7714 36.5208 89.6525 36.3827 89.4915 36.3571L85.3937 35.7081C85.3353 35.6988 85.2865 35.6588 85.2652 35.6035C85.1578 35.3231 85.0407 35.0475 84.9147 34.777C84.8897 34.7232 84.8949 34.6605 84.9289 34.6119L87.3134 31.2163C87.4071 31.0829 87.3906 30.9013 87.2744 30.787L82.4242 26.0143C82.3081 25.9 82.1263 25.8864 81.9945 25.9822L78.6376 28.421C78.5897 28.4558 78.5269 28.4621 78.4727 28.438C78.2003 28.3162 77.9228 28.2037 77.6407 28.1007C77.5851 28.0804 77.5443 28.0322 77.5341 27.9739L76.8192 23.8872C76.7911 23.7266 76.6511 23.6099 76.4881 23.6112L69.6837 23.666C69.5207 23.6673 69.3826 23.7863 69.3571 23.9472L68.708 28.0449C68.6987 28.1034 68.6587 28.1522 68.6035 28.1734C68.3231 28.2809 68.0475 28.3979 67.777 28.524C67.7232 28.5491 67.6604 28.5438 67.6118 28.5097L64.2162 26.1253C64.0828 26.0316 63.9013 26.0481 63.787 26.1642L63.0533 26.9098" stroke="#FFE8E8" stroke-miterlimit="10" stroke-linecap="round" stroke-linejoin="round"/>
<path d="M85.8909 42.6306C86.0449 41.8165 86.1223 40.9756 86.1153 40.1156C86.1084 39.2556 86.0175 38.416 85.8504 37.6045" stroke="#FFE8E8" stroke-miterlimit="10" stroke-linecap="round" stroke-linejoin="round"/>
<path d="M80.4734 50.8839C81.8701 49.9318 83.0697 48.7129 83.9991 47.301" stroke="#FFE8E8" stroke-miterlimit="10" stroke-linecap="round" stroke-linejoin="round"/>
<path d="M70.8081 52.891C71.6222 53.045 72.4631 53.1224 73.3231 53.1155C74.1831 53.1086 75.0227 53.0176 75.8342 52.8505" stroke="#FFE8E8" stroke-miterlimit="10" stroke-linecap="round" stroke-linejoin="round"/>
<path d="M62.5549 47.4735C63.5069 48.8703 64.7258 50.0698 66.1378 50.9992" stroke="#FFE8E8" stroke-miterlimit="10" stroke-linecap="round" stroke-linejoin="round"/>
<path d="M60.5478 37.8081C60.3938 38.6223 60.3164 39.4632 60.3233 40.3231C60.3302 41.1831 60.4212 42.0227 60.5883 42.8342" stroke="#FFE8E8" stroke-miterlimit="10" stroke-linecap="round" stroke-linejoin="round"/>
<path d="M65.9651 29.5549C64.5684 30.5069 63.3689 31.7258 62.4395 33.1378" stroke="#FFE8E8" stroke-miterlimit="10" stroke-linecap="round" stroke-linejoin="round"/>
<path d="M75.6306 27.5478C74.8164 27.3938 73.9755 27.3163 73.1156 27.3232C72.2556 27.3301 71.416 27.4211 70.6045 27.5882" stroke="#FFE8E8" stroke-miterlimit="10" stroke-linecap="round" stroke-linejoin="round"/>
<path d="M83.8839 32.9652C82.9319 31.5684 81.7129 30.3689 80.301 29.4395" stroke="#FFE8E8" stroke-miterlimit="10" stroke-linecap="round" stroke-linejoin="round"/>
<path d="M69.6404 41.9454L70.5705 41.0003" stroke="#FFE8E8" stroke-miterlimit="10" stroke-linecap="round" stroke-linejoin="round"/>
<path d="M71.0076 43.2908L71.9377 42.3456" stroke="#FFE8E8" stroke-miterlimit="10" stroke-linecap="round" stroke-linejoin="round"/>
<path d="M76.277 41.3478L77.5715 42.6217C77.8366 42.8825 78.2629 42.8791 78.5237 42.614L78.9245 42.2067C79.1853 41.9416 79.1819 41.5153 78.9168 41.2545L77.6223 39.9807C77.2448 39.6091 76.6376 39.614 76.2661 39.9916C75.8946 40.3691 75.8995 40.9763 76.277 41.3478Z" stroke="#FFE8E8" stroke-miterlimit="10" stroke-linecap="round" stroke-linejoin="round"/>
<path d="M74.9315 42.7149L76.2261 43.9888C76.4912 44.2496 76.9175 44.2462 77.1782 43.9811L77.579 43.5739C77.8399 43.3088 77.8364 42.8825 77.5714 42.6217L76.2768 41.3478C75.8993 40.9763 75.2921 40.9812 74.9206 41.3587C74.5492 41.7363 74.554 42.3434 74.9315 42.7149Z" stroke="#FFE8E8" stroke-miterlimit="10" stroke-linecap="round" stroke-linejoin="round"/>
<path d="M73.5864 44.082L74.8809 45.3559C75.146 45.6168 75.5723 45.6133 75.8331 45.3483L76.2339 44.941C76.4947 44.6759 76.4913 44.2496 76.2262 43.9888L74.9317 42.7149C74.5542 42.3434 73.947 42.3483 73.5754 42.7258C73.2039 43.1034 73.2088 43.7105 73.5864 44.082Z" stroke="#FFE8E8" stroke-miterlimit="10" stroke-linecap="round" stroke-linejoin="round"/>
<path d="M72.3476 45.5541L73.2786 46.4702C73.5436 46.731 73.9699 46.7276 74.2307 46.4625L74.6315 46.0553C74.8923 45.7902 74.8889 45.3639 74.6238 45.1031L73.6929 44.187C73.3153 43.8154 72.7082 43.8203 72.3367 44.1979C71.9651 44.5754 71.97 45.1826 72.3476 45.5541Z" stroke="#FFE8E8" stroke-miterlimit="10" stroke-linecap="round" stroke-linejoin="round"/>
<path d="M70.7851 36.7955C70.925 37.0607 71.1501 37.2737 71.4237 37.3986" stroke="#FFE8E8" stroke-miterlimit="10" stroke-linecap="round" stroke-linejoin="round"/>
<path d="M71.4237 37.3986C71.5983 37.4783 71.7927 37.522 71.9973 37.5203L72.5582 37.5158L72.5598 37.716C72.5675 38.6637 73.3419 39.4257 74.2896 39.4181C74.3432 39.4177 74.3944 39.396 74.432 39.3578C74.4696 39.3195 74.4904 39.268 74.49 39.2144C74.4851 38.6118 74.4713 36.877 74.4708 36.8579C74.4509 35.8346 73.6111 35.0141 72.5835 35.0224L70.9947 35.0352L70.9933 35.0352C70.9005 35.036 70.8112 34.9998 70.7451 34.9348L68.9139 33.1328" stroke="#FFE8E8" stroke-miterlimit="10" stroke-linecap="round" stroke-linejoin="round"/>
<path d="M65.5207 37.1365L67.0878 38.6786C67.1507 38.7404 67.1886 38.8243 67.1895 38.9126C67.1976 39.6532 67.4186 40.3916 67.8522 41.0279C67.9726 41.2048 68.1054 41.3682 68.2484 41.5181" stroke="#FFE8E8" stroke-miterlimit="10" stroke-linecap="round" stroke-linejoin="round"/>
<path d="M77.4101 33.0645L75.6056 34.8982C75.5433 34.9616 75.4587 34.9995 75.3698 35C74.8005 35.0032 74.2317 35.1324 73.7092 35.3871" stroke="#FFE8E8" stroke-miterlimit="10" stroke-linecap="round" stroke-linejoin="round"/>
<path d="M78.5986 40.9415C79.0219 40.2983 79.2311 39.5563 79.2271 38.8157C79.2266 38.7274 79.2632 38.643 79.3251 38.5801L80.8672 37.013" stroke="#FFE8E8" stroke-miterlimit="10" stroke-linecap="round" stroke-linejoin="round"/>
<path d="M68.6717 40.1953L68.2733 40.6002C68.0109 40.8669 68.0175 41.293 68.281 41.5523L68.6883 41.9531C68.9534 42.2139 69.3797 42.2105 69.6405 41.9455C69.3797 42.2105 69.3831 42.6368 69.6482 42.8976L70.0555 43.2984C70.3205 43.5592 70.7468 43.5558 71.0076 43.2908C70.7468 43.5558 70.7502 43.9821 71.0153 44.2429L72.3477 45.5541" stroke="#FFE8E8" stroke-miterlimit="10" stroke-linecap="round" stroke-linejoin="round"/>
<path d="M71.4237 37.3986L70.3442 38.4955" stroke="#FFE8E8" stroke-miterlimit="10" stroke-linecap="round" stroke-linejoin="round"/>
</g>
</g>
<g clip-path="url(#clip5_245_1622)">
<path d="M80.4319 755.083C83.0422 755.799 85.7381 754.262 86.4533 751.652C87.1686 749.042 85.6324 746.346 83.022 745.631C80.4117 744.915 77.7158 746.452 77.0006 749.062C76.2853 751.672 77.8215 754.368 80.4319 755.083Z" stroke="#FFE8E8" stroke-miterlimit="10"/>
<path d="M85.1804 767.35L85.9082 764.694C87.0497 760.528 84.5979 756.225 80.4318 755.083C76.2657 753.942 71.963 756.394 70.8214 760.56L70.0936 763.216" stroke="#FFE8E8" stroke-miterlimit="10"/>
<path d="M84.7972 739.152L86.5725 732.673" stroke="#FFE8E8" stroke-miterlimit="10"/>
<path d="M92.3407 741.219L77.2539 737.085L66.1303 748.083L70.0936 763.216L85.1804 767.35L96.304 756.351L92.3407 741.219Z" stroke="#FFE8E8" stroke-miterlimit="10"/>
<path d="M86.5725 732.673C88.3616 733.163 90.2093 732.11 90.6996 730.321C91.1898 728.532 90.1369 726.684 88.3478 726.194C86.5587 725.704 84.711 726.757 84.2208 728.546C83.7305 730.335 84.7834 732.183 86.5725 732.673Z" stroke="#FFE8E8" stroke-miterlimit="10"/>
<path d="M77.637 765.283L75.8617 771.762" stroke="#FFE8E8" stroke-miterlimit="10"/>
<path d="M74.0864 778.241C75.8755 778.731 77.7232 777.678 78.2135 775.889C78.7037 774.1 77.6508 772.252 75.8617 771.762C74.0726 771.272 72.2249 772.324 71.7347 774.114C71.2444 775.903 72.2974 777.75 74.0864 778.241Z" stroke="#FFE8E8" stroke-miterlimit="10"/>
<path d="M71.6922 742.584L66.969 737.807" stroke="#FFE8E8" stroke-miterlimit="10"/>
<path d="M63.7197 738.658C65.5088 739.148 67.3565 738.096 67.8468 736.307C68.337 734.517 67.2841 732.67 65.495 732.179C63.7059 731.689 61.8582 732.742 61.368 734.531C60.8777 736.32 61.9307 738.168 63.7197 738.658Z" stroke="#FFE8E8" stroke-miterlimit="10"/>
<path d="M90.7422 761.851L95.4654 766.628" stroke="#FFE8E8" stroke-miterlimit="10"/>
<path d="M96.9392 772.255C98.7283 772.746 100.576 771.693 101.066 769.904C101.556 768.114 100.504 766.267 98.7145 765.777C96.9254 765.286 95.0777 766.339 94.5875 768.128C94.0972 769.917 95.1501 771.765 96.9392 772.255Z" stroke="#FFE8E8" stroke-miterlimit="10"/>
<path d="M68.1121 755.65L61.6136 757.352" stroke="#FFE8E8" stroke-miterlimit="10"/>
<path d="M57.4768 761.442C59.2659 761.932 61.1136 760.879 61.6039 759.09C62.0941 757.301 61.0412 755.453 59.2521 754.963C57.463 754.473 55.6153 755.526 55.1251 757.315C54.6348 759.104 55.6877 760.952 57.4768 761.442Z" stroke="#FFE8E8" stroke-miterlimit="10"/>
<path d="M94.3223 748.785L100.821 747.083" stroke="#FFE8E8" stroke-miterlimit="10"/>
<path d="M103.182 749.472C104.971 749.962 106.819 748.909 107.309 747.12C107.8 745.331 106.747 743.483 104.958 742.993C103.169 742.503 101.321 743.555 100.831 745.345C100.34 747.134 101.393 748.981 103.182 749.472Z" stroke="#FFE8E8" stroke-miterlimit="10"/>
</g>
<g clip-path="url(#clip6_245_1622)">
<path d="M195.601 624.573C197.011 624.96 198.467 624.13 198.854 622.72C199.24 621.309 198.41 619.853 197 619.467C195.59 619.08 194.134 619.91 193.747 621.32C193.361 622.73 194.191 624.187 195.601 624.573Z" stroke="#FFE8E8" stroke-miterlimit="10"/>
<path d="M198.166 631.2L198.559 629.765C199.176 627.514 197.851 625.19 195.601 624.573C193.35 623.956 191.026 625.281 190.409 627.532L190.016 628.967" stroke="#FFE8E8" stroke-miterlimit="10"/>
<path d="M197.959 615.967L198.918 612.467" stroke="#FFE8E8" stroke-miterlimit="10"/>
<path d="M202.034 617.083L193.884 614.85L187.875 620.792L190.016 628.967L198.166 631.2L204.175 625.258L202.034 617.083Z" stroke="#FFE8E8" stroke-miterlimit="10"/>
<path d="M198.918 612.467C199.885 612.732 200.883 612.163 201.148 611.196C201.412 610.23 200.844 609.232 199.877 608.967C198.911 608.702 197.913 609.271 197.648 610.237C197.383 611.204 197.952 612.202 198.918 612.467Z" stroke="#FFE8E8" stroke-miterlimit="10"/>
<path d="M194.091 630.083L193.132 633.583" stroke="#FFE8E8" stroke-miterlimit="10"/>
<path d="M192.173 637.083C193.139 637.348 194.137 636.779 194.402 635.813C194.667 634.846 194.098 633.848 193.132 633.583C192.165 633.318 191.167 633.887 190.902 634.854C190.637 635.82 191.206 636.818 192.173 637.083Z" stroke="#FFE8E8" stroke-miterlimit="10"/>
<path d="M190.879 617.821L188.328 615.24" stroke="#FFE8E8" stroke-miterlimit="10"/>
<path d="M186.573 615.7C187.539 615.965 188.537 615.396 188.802 614.43C189.067 613.463 188.498 612.465 187.532 612.2C186.565 611.935 185.567 612.504 185.302 613.471C185.037 614.437 185.606 615.435 186.573 615.7Z" stroke="#FFE8E8" stroke-miterlimit="10"/>
<path d="M201.171 628.229L203.722 630.809" stroke="#FFE8E8" stroke-miterlimit="10"/>
<path d="M204.518 633.85C205.485 634.115 206.483 633.546 206.748 632.579C207.013 631.613 206.444 630.615 205.477 630.35C204.511 630.085 203.513 630.654 203.248 631.62C202.983 632.587 203.552 633.585 204.518 633.85Z" stroke="#FFE8E8" stroke-miterlimit="10"/>
<path d="M188.945 624.879L185.435 625.799" stroke="#FFE8E8" stroke-miterlimit="10"/>
<path d="M183.2 628.008C184.167 628.273 185.165 627.704 185.43 626.738C185.694 625.771 185.126 624.773 184.159 624.508C183.193 624.243 182.194 624.812 181.93 625.779C181.665 626.745 182.234 627.743 183.2 628.008Z" stroke="#FFE8E8" stroke-miterlimit="10"/>
<path d="M203.105 621.171L206.615 620.251" stroke="#FFE8E8" stroke-miterlimit="10"/>
<path d="M207.891 621.542C208.857 621.806 209.855 621.238 210.12 620.271C210.385 619.305 209.816 618.306 208.85 618.042C207.883 617.777 206.885 618.346 206.62 619.312C206.356 620.279 206.924 621.277 207.891 621.542Z" stroke="#FFE8E8" stroke-miterlimit="10"/>
</g>
<g clip-path="url(#clip7_245_1622)">
<path d="M181.238 39.9218C182.996 39.6974 184.239 38.0904 184.015 36.3326C183.79 34.5747 182.183 33.3316 180.426 33.556C178.668 33.7804 177.425 35.3874 177.649 37.1452C177.873 38.9031 179.48 40.1462 181.238 39.9218Z" stroke="#FFE8E8" stroke-miterlimit="10"/>
<path d="M187.195 46.142L186.966 44.3532C186.608 41.5477 184.044 39.5636 181.238 39.9218C178.433 40.2799 176.449 42.8446 176.807 45.6501L177.035 47.4389" stroke="#FFE8E8" stroke-miterlimit="10"/>
<path d="M179.868 29.1931L179.312 24.8301" stroke="#FFE8E8" stroke-miterlimit="10"/>
<path d="M184.949 28.5446L174.789 29.8415L170.832 39.2887L177.035 47.4389L187.195 46.1419L191.152 36.6948L184.949 28.5446Z" stroke="#FFE8E8" stroke-miterlimit="10"/>
<path d="M179.312 24.8301C180.516 24.6763 181.369 23.5749 181.215 22.3701C181.061 21.1653 179.96 20.3133 178.755 20.4671C177.55 20.6209 176.698 21.7222 176.852 22.927C177.006 24.1318 178.107 24.9839 179.312 24.8301Z" stroke="#FFE8E8" stroke-miterlimit="10"/>
<path d="M182.115 46.7904L182.672 51.1534" stroke="#FFE8E8" stroke-miterlimit="10"/>
<path d="M183.229 55.5164C184.434 55.3626 185.286 54.2612 185.132 53.0564C184.978 51.8516 183.877 50.9996 182.672 51.1534C181.467 51.3072 180.615 52.4086 180.769 53.6134C180.923 54.8182 182.024 55.6702 183.229 55.5164Z" stroke="#FFE8E8" stroke-miterlimit="10"/>
<path d="M172.81 34.5651L168.753 32.866" stroke="#FFE8E8" stroke-miterlimit="10"/>
<path d="M167.003 34.1979C168.208 34.0441 169.06 32.9427 168.906 31.7379C168.753 30.5331 167.651 29.6811 166.446 29.8349C165.242 29.9887 164.39 31.09 164.543 32.2948C164.697 33.4996 165.799 34.3516 167.003 34.1979Z" stroke="#FFE8E8" stroke-miterlimit="10"/>
<path d="M189.173 41.4184L193.23 43.1175" stroke="#FFE8E8" stroke-miterlimit="10"/>
<path d="M195.537 46.1486C196.742 45.9948 197.594 44.8934 197.44 43.6886C197.286 42.4838 196.185 41.6318 194.98 41.7856C193.775 41.9394 192.923 43.0408 193.077 44.2456C193.231 45.4504 194.332 46.3024 195.537 46.1486Z" stroke="#FFE8E8" stroke-miterlimit="10"/>
<path d="M173.934 43.3638L170.434 46.0276" stroke="#FFE8E8" stroke-miterlimit="10"/>
<path d="M168.962 49.5411C170.167 49.3873 171.019 48.2859 170.865 47.0811C170.711 45.8763 169.61 45.0243 168.405 45.1781C167.2 45.3319 166.348 46.4332 166.502 47.638C166.656 48.8428 167.757 49.6949 168.962 49.5411Z" stroke="#FFE8E8" stroke-miterlimit="10"/>
<path d="M188.05 32.6197L191.55 29.9558" stroke="#FFE8E8" stroke-miterlimit="10"/>
<path d="M193.579 30.8055C194.783 30.6517 195.635 29.5503 195.482 28.3455C195.328 27.1407 194.226 26.2887 193.022 26.4425C191.817 26.5963 190.965 27.6976 191.119 28.9024C191.272 30.1072 192.374 30.9593 193.579 30.8055Z" stroke="#FFE8E8" stroke-miterlimit="10"/>
</g>
<g clip-path="url(#clip8_245_1622)">
<path d="M225.238 370.922C226.996 370.697 228.239 369.09 228.015 367.333C227.79 365.575 226.183 364.332 224.426 364.556C222.668 364.78 221.425 366.387 221.649 368.145C221.873 369.903 223.48 371.146 225.238 370.922Z" stroke="#FFE8E8" stroke-miterlimit="10"/>
<path d="M231.195 377.142L230.966 375.353C230.608 372.548 228.044 370.564 225.238 370.922C222.433 371.28 220.449 373.845 220.807 376.65L221.035 378.439" stroke="#FFE8E8" stroke-miterlimit="10"/>
<path d="M223.868 360.193L223.312 355.83" stroke="#FFE8E8" stroke-miterlimit="10"/>
<path d="M228.949 359.545L218.789 360.842L214.832 370.289L221.035 378.439L231.195 377.142L235.152 367.695L228.949 359.545Z" stroke="#FFE8E8" stroke-miterlimit="10"/>
<path d="M223.312 355.83C224.516 355.676 225.369 354.575 225.215 353.37C225.061 352.165 223.96 351.313 222.755 351.467C221.55 351.621 220.698 352.722 220.852 353.927C221.006 355.132 222.107 355.984 223.312 355.83Z" stroke="#FFE8E8" stroke-miterlimit="10"/>
<path d="M226.115 377.79L226.672 382.153" stroke="#FFE8E8" stroke-miterlimit="10"/>
<path d="M227.229 386.516C228.434 386.363 229.286 385.261 229.132 384.056C228.978 382.852 227.877 382 226.672 382.153C225.467 382.307 224.615 383.409 224.769 384.613C224.923 385.818 226.024 386.67 227.229 386.516Z" stroke="#FFE8E8" stroke-miterlimit="10"/>
<path d="M216.81 365.565L212.753 363.866" stroke="#FFE8E8" stroke-miterlimit="10"/>
<path d="M211.003 365.198C212.208 365.044 213.06 363.943 212.906 362.738C212.753 361.533 211.651 360.681 210.446 360.835C209.242 360.989 208.39 362.09 208.543 363.295C208.697 364.5 209.799 365.352 211.003 365.198Z" stroke="#FFE8E8" stroke-miterlimit="10"/>
<path d="M233.173 372.418L237.23 374.118" stroke="#FFE8E8" stroke-miterlimit="10"/>
<path d="M239.537 377.149C240.742 376.995 241.594 375.893 241.44 374.689C241.286 373.484 240.185 372.632 238.98 372.786C237.775 372.939 236.923 374.041 237.077 375.246C237.231 376.45 238.332 377.302 239.537 377.149Z" stroke="#FFE8E8" stroke-miterlimit="10"/>
<path d="M217.934 374.364L214.434 377.028" stroke="#FFE8E8" stroke-miterlimit="10"/>
<path d="M212.962 380.541C214.167 380.387 215.019 379.286 214.865 378.081C214.711 376.876 213.61 376.024 212.405 376.178C211.2 376.332 210.348 377.433 210.502 378.638C210.656 379.843 211.757 380.695 212.962 380.541Z" stroke="#FFE8E8" stroke-miterlimit="10"/>
<path d="M232.05 363.62L235.55 360.956" stroke="#FFE8E8" stroke-miterlimit="10"/>
<path d="M237.579 361.805C238.783 361.652 239.635 360.55 239.482 359.345C239.328 358.141 238.226 357.289 237.022 357.442C235.817 357.596 234.965 358.698 235.119 359.902C235.272 361.107 236.374 361.959 237.579 361.805Z" stroke="#FFE8E8" stroke-miterlimit="10"/>
</g>
<path d="M77 297.5C77 302.747 72.7467 307 67.5 307C62.2533 307 58 302.747 58 297.5C58 292.253 62.2533 288 67.5 288C72.7467 288 77 292.253 77 297.5ZM60.2361 297.5C60.2361 301.512 63.4883 304.764 67.5 304.764C71.5117 304.764 74.7639 301.512 74.7639 297.5C74.7639 293.488 71.5117 290.236 67.5 290.236C63.4883 290.236 60.2361 293.488 60.2361 297.5Z" fill="#FFF3F3"/>
<path d="M19 690.5C19 695.747 14.7467 700 9.5 700C4.25329 700 0 695.747 0 690.5C0 685.253 4.25329 681 9.5 681C14.7467 681 19 685.253 19 690.5ZM2.23609 690.5C2.23609 694.512 5.48825 697.764 9.5 697.764C13.5117 697.764 16.7639 694.512 16.7639 690.5C16.7639 686.488 13.5117 683.236 9.5 683.236C5.48825 683.236 2.23609 686.488 2.23609 690.5Z" fill="#FFF3F3"/>
<path d="M186 136C186 141.523 181.523 146 176 146C170.477 146 166 141.523 166 136C166 130.477 170.477 126 176 126C181.523 126 186 130.477 186 136ZM168.354 136C168.354 140.223 171.777 143.646 176 143.646C180.223 143.646 183.646 140.223 183.646 136C183.646 131.777 180.223 128.354 176 128.354C171.777 128.354 168.354 131.777 168.354 136Z" fill="#FFF3F3"/>
<path d="M256 647C256 652.523 251.523 657 246 657C240.477 657 236 652.523 236 647C236 641.477 240.477 637 246 637C251.523 637 256 641.477 256 647ZM238.354 647C238.354 651.223 241.777 654.646 246 654.646C250.223 654.646 253.646 651.223 253.646 647C253.646 642.777 250.223 639.354 246 639.354C241.777 639.354 238.354 642.777 238.354 647Z" fill="#FFF3F3"/>
<path d="M36 10C36 15.5228 31.5228 20 26 20C20.4772 20 16 15.5228 16 10C16 4.47715 20.4772 0 26 0C31.5228 0 36 4.47715 36 10ZM18.3538 10C18.3538 14.2229 21.7771 17.6462 26 17.6462C30.2229 17.6462 33.6462 14.2229 33.6462 10C33.6462 5.77711 30.2229 2.35378 26 2.35378C21.7771 2.35378 18.3538 5.77711 18.3538 10Z" fill="#FFF3F3"/>
<path d="M112 480C112 485.523 107.523 490 102 490C96.4772 490 92 485.523 92 480C92 474.477 96.4772 470 102 470C107.523 470 112 474.477 112 480ZM94.3538 480C94.3538 484.223 97.7771 487.646 102 487.646C106.223 487.646 109.646 484.223 109.646 480C109.646 475.777 106.223 472.354 102 472.354C97.7771 472.354 94.3538 475.777 94.3538 480Z" fill="#FFF3F3"/>
<defs>
<clipPath id="clip0_245_1622">
<rect width="78.4016" height="73.944" fill="white" transform="translate(124.025 283) rotate(37.5103)"/>
</clipPath>
<clipPath id="clip1_245_1622">
<rect width="49.1772" height="49.1772" fill="white" transform="translate(163 237.247) rotate(-20.5303)"/>
</clipPath>
<clipPath id="clip2_245_1622">
<rect width="42.2399" height="42.2399" fill="white" transform="translate(48.2974 402) rotate(8.57411)"/>
</clipPath>
<clipPath id="clip3_245_1622">
<rect width="44.4332" height="44.4332" fill="white" transform="translate(80 622.053) rotate(-23.9721)"/>
</clipPath>
<clipPath id="clip4_245_1622">
<rect width="34.1648" height="34.1648" fill="white" transform="translate(56 23.2749) rotate(-0.461028)"/>
</clipPath>
<clipPath id="clip5_245_1622">
<rect width="57.3237" height="57.3237" fill="white" transform="translate(61.1489 717) rotate(15.3237)"/>
</clipPath>
<clipPath id="clip6_245_1622">
<rect width="30.967" height="30.967" fill="white" transform="translate(185.184 604) rotate(15.3237)"/>
</clipPath>
<clipPath id="clip7_245_1622">
<rect width="37.5329" height="37.5329" fill="white" transform="translate(160 21.7527) rotate(-7.27473)"/>
</clipPath>
<clipPath id="clip8_245_1622">
<rect width="37.5329" height="37.5329" fill="white" transform="translate(204 352.753) rotate(-7.27473)"/>
</clipPath>
</defs>
</svg>
