<svg width="24" height="24" viewBox="0 0 24 24" fill="none" xmlns="http://www.w3.org/2000/svg">
<path d="M11.875 20.5C11.9583 20.5 12.0542 20.4792 12.1625 20.4375C12.2708 20.3958 12.3583 20.3417 12.425 20.275L20.85 11.825C21.0667 11.6083 21.2292 11.3611 21.3375 11.0833C21.4458 10.8056 21.5 10.5278 21.5 10.25C21.5 9.96667 21.4458 9.68333 21.3375 9.4C21.2292 9.11667 21.0667 8.86667 20.85 8.65L16.35 4.15C16.1333 3.93333 15.8833 3.77083 15.6 3.6625C15.3167 3.55417 15.0333 3.5 14.75 3.5C14.4722 3.5 14.1944 3.55417 13.9167 3.6625C13.6389 3.77083 13.3917 3.93333 13.175 4.15L12.725 4.6L14.75 6.65C14.9667 6.88334 15.1583 7.15417 15.325 7.4625C15.4917 7.77083 15.575 8.10834 15.575 8.475C15.575 9.10834 15.3292 9.66667 14.8375 10.15C14.3458 10.6333 13.7833 10.875 13.15 10.875C12.7333 10.875 12.3875 10.8125 12.1125 10.6875C11.8375 10.5625 11.586 10.3847 11.3579 10.154L9.525 8.325L5 12.85C4.91667 12.9333 4.85833 13.0211 4.825 13.1132C4.79167 13.2053 4.775 13.304 4.775 13.4092C4.775 13.6197 4.84583 13.7958 4.9875 13.9375C5.12917 14.0792 5.30556 14.15 5.51668 14.15C5.62223 14.15 5.72083 14.125 5.8125 14.075C5.90417 14.025 5.98333 13.9667 6.05 13.9L9.5 10.45L10.55 11.5L7.125 14.925C7.04167 15.0083 6.98333 15.1 6.95 15.2C6.91667 15.3 6.9 15.4 6.9 15.5C6.9 15.7 6.975 15.875 7.125 16.025C7.275 16.175 7.45 16.25 7.65 16.25C7.75 16.25 7.84583 16.2292 7.9375 16.1875C8.02917 16.1458 8.10833 16.0917 8.175 16.025L11.625 12.575L12.675 13.625L9.25 17.05C9.18333 17.1167 9.12917 17.2028 9.0875 17.3083C9.04583 17.4139 9.025 17.5195 9.025 17.625C9.025 17.825 9.1 18 9.25 18.15C9.4 18.3 9.575 18.375 9.775 18.375C9.875 18.375 9.96667 18.3583 10.05 18.325C10.1333 18.2917 10.2167 18.2333 10.3 18.15L13.75 14.7L14.8 15.75L11.35 19.2C11.2667 19.2833 11.2083 19.375 11.175 19.475C11.1417 19.575 11.125 19.6667 11.125 19.75C11.125 19.9833 11.1917 20.1667 11.325 20.3C11.4583 20.4333 11.6417 20.5 11.875 20.5ZM11.8766 22C11.3255 22 10.8333 21.7958 10.4 21.3875C9.96667 20.9792 9.70833 20.474 9.625 19.872C9.05833 19.7907 8.58333 19.5583 8.2 19.175C7.81667 18.7917 7.58333 18.3167 7.5 17.75C6.93333 17.6667 6.4625 17.4292 6.0875 17.0375C5.7125 16.6458 5.48333 16.175 5.4 15.625C4.78333 15.5417 4.275 15.2917 3.875 14.875C3.475 14.4583 3.275 13.9583 3.275 13.375C3.275 13.0917 3.33103 12.8079 3.4431 12.5238C3.55517 12.2396 3.7158 11.99 3.925 11.775L9.525 6.175L12.275 8.925C12.4083 9.05833 12.5528 9.1625 12.7083 9.2375C12.8639 9.3125 13.0195 9.35 13.175 9.35C13.3917 9.35 13.5958 9.25417 13.7875 9.0625C13.9792 8.87083 14.075 8.66539 14.075 8.44615C14.075 8.34872 14.0458 8.2375 13.9875 8.1125C13.9292 7.9875 13.8333 7.85834 13.7 7.725L10.125 4.15C9.90833 3.93333 9.65833 3.77083 9.375 3.6625C9.09167 3.55417 8.80833 3.5 8.525 3.5C8.24722 3.5 7.96944 3.55417 7.69167 3.6625C7.41389 3.77083 7.16716 3.93214 6.95147 4.14643L3.15 7.95C2.91667 8.18333 2.75417 8.42917 2.6625 8.6875C2.57083 8.94584 2.51667 9.2375 2.5 9.5625C2.48333 9.8875 2.54583 10.2042 2.6875 10.5125C2.82917 10.8208 3 11.1 3.2 11.35L2.125 12.425C1.79167 12.0583 1.52083 11.6167 1.3125 11.1C1.10417 10.5833 1 10.0583 1 9.525C1 9.025 1.09583 8.54584 1.2875 8.0875C1.47917 7.62917 1.75 7.225 2.1 6.875L5.875 3.1C6.24167 2.73333 6.65661 2.4625 7.11982 2.2875C7.58306 2.1125 8.05806 2.025 8.54483 2.025C9.03161 2.025 9.50417 2.1125 9.9625 2.2875C10.4208 2.4625 10.8333 2.73333 11.2 3.1L11.65 3.55L12.1 3.1C12.4667 2.73333 12.8816 2.4625 13.3448 2.2875C13.8081 2.1125 14.2831 2.025 14.7698 2.025C15.2566 2.025 15.7292 2.1125 16.1875 2.2875C16.6458 2.4625 17.0583 2.73333 17.425 3.1L21.9 7.575C22.2667 7.94167 22.5417 8.35861 22.725 8.82583C22.9083 9.29304 23 9.76804 23 10.2508C23 10.7336 22.9083 11.2042 22.725 11.6625C22.5417 12.1208 22.2667 12.5333 21.9 12.9L13.475 21.325C13.2583 21.5417 13.0122 21.7083 12.7367 21.825C12.4612 21.9417 12.1745 22 11.8766 22Z" fill="black"/>
</svg>
