<svg width="21" height="21" viewBox="0 0 21 21" fill="none" xmlns="http://www.w3.org/2000/svg">
<path d="M11.1562 9.625C11.1562 9.26258 10.8624 8.96875 10.5 8.96875C10.1376 8.96875 9.84375 9.26258 9.84375 9.625V14.875C9.84375 15.2374 10.1376 15.5312 10.5 15.5312C10.8624 15.5312 11.1562 15.2374 11.1562 14.875V9.625Z" fill="black"/>
<path fill-rule="evenodd" clip-rule="evenodd" d="M10.5 1.09375C5.30507 1.09375 1.09375 5.30507 1.09375 10.5C1.09375 15.695 5.30507 19.9063 10.5 19.9063C15.695 19.9063 19.9063 15.695 19.9063 10.5C19.9063 5.30507 15.695 1.09375 10.5 1.09375ZM2.40625 10.5C2.40625 6.02995 6.02995 2.40625 10.5 2.40625C14.97 2.40625 18.5938 6.02995 18.5938 10.5C18.5938 14.97 14.97 18.5938 10.5 18.5938C6.02995 18.5938 2.40625 14.97 2.40625 10.5Z" fill="black"/>
<path d="M11.375 7C11.375 7.48325 10.9833 7.875 10.5 7.875C10.0167 7.875 9.625 7.48325 9.625 7C9.625 6.51676 10.0167 6.125 10.5 6.125C10.9833 6.125 11.375 6.51676 11.375 7Z" fill="black"/>
</svg>
