<svg width="24" height="24" viewBox="0 0 24 24" fill="none" xmlns="http://www.w3.org/2000/svg">
<path d="M22 12C22 13.9778 21.4135 15.9112 20.3147 17.5557C19.2159 19.2002 17.6541 20.4819 15.8268 21.2388C13.9996 21.9957 11.9889 22.1937 10.0491 21.8079C8.10929 21.422 6.32746 20.4696 4.92894 19.0711C3.53041 17.6725 2.578 15.8907 2.19215 13.9509C1.8063 12.0111 2.00433 10.0004 2.76121 8.17317C3.51809 6.3459 4.79981 4.78412 6.4443 3.6853C8.08879 2.58649 10.0222 2 12 2C14.6522 2 17.1957 3.05357 19.0711 4.92893C20.9464 6.8043 22 9.34784 22 12ZM10.843 17.295L18.262 9.876C18.3829 9.75505 18.4508 9.59102 18.4508 9.42C18.4508 9.24898 18.3829 9.08495 18.262 8.964L17.35 8.052C17.229 7.93109 17.065 7.86317 16.894 7.86317C16.723 7.86317 16.559 7.93109 16.438 8.052L10.387 14.102L7.562 11.277C7.44105 11.1561 7.27703 11.0882 7.106 11.0882C6.93498 11.0882 6.77096 11.1561 6.65 11.277L5.738 12.189C5.61709 12.31 5.54917 12.474 5.54917 12.645C5.54917 12.816 5.61709 12.98 5.738 13.101L9.932 17.295C10.053 17.4159 10.217 17.4838 10.388 17.4838C10.559 17.4838 10.722 17.4159 10.843 17.295Z" fill="#1CCF28"/>
</svg>
