<svg width="15" height="20" viewBox="0 0 15 20" fill="none" xmlns="http://www.w3.org/2000/svg">
<path d="M7.022 1.82775e-05C6.10112 -0.00208513 5.18886 0.17738 4.33739 0.528147C3.48593 0.878914 2.71197 1.3941 2.05979 2.04424C1.4076 2.69438 0.889987 3.46672 0.53655 4.31708C0.183112 5.16744 0.000786251 6.07913 0 7.00002C0 12.25 7.022 20 7.022 20C7.022 20 14.044 12.25 14.044 7.00002C14.0432 6.07913 13.8609 5.16744 13.5075 4.31708C13.154 3.46672 12.6364 2.69438 11.9842 2.04424C11.332 1.3941 10.5581 0.878914 9.70661 0.528147C8.85514 0.17738 7.94288 -0.00208513 7.022 1.82775e-05ZM7.022 9.50002C6.52785 9.49863 6.04519 9.35084 5.63499 9.07529C5.22479 8.79975 4.90544 8.40882 4.7173 7.95189C4.52915 7.49495 4.48064 6.99251 4.57789 6.50802C4.67515 6.02353 4.9138 5.57872 5.26371 5.22979C5.61361 4.88086 6.05908 4.64345 6.54384 4.54755C7.0286 4.45166 7.53091 4.50157 7.98732 4.691C8.44373 4.88042 8.83376 5.20085 9.10816 5.61182C9.38255 6.02279 9.529 6.50586 9.529 7.00002C9.529 7.32891 9.46411 7.65458 9.33803 7.95835C9.21196 8.26212 9.02718 8.53803 8.79429 8.77026C8.56141 9.0025 8.28498 9.18651 7.98086 9.31173C7.67674 9.43695 7.35089 9.50094 7.022 9.50002Z" fill="#ED1C24"/>
</svg>
