<svg width="85" height="66" viewBox="0 0 85 66" fill="none" xmlns="http://www.w3.org/2000/svg">
<g id="Felix Techlabs-01 6" clip-path="url(#clip0_208_786)">
<path id="Vector" d="M46.7592 65.142C47.0913 65.2051 47.4315 65.2141 47.7665 65.1686C48.1615 65.1056 48.5437 64.9798 48.8986 64.796C49.764 64.3694 50.5108 63.7379 51.0735 62.9568C51.6361 62.1758 51.9974 61.2692 52.1255 60.3167C52.1682 59.5573 52.0339 58.7984 51.7333 58.0992C51.5449 57.6411 51.301 57.2077 51.0068 56.8086C50.4588 56.0731 49.7541 55.4673 48.9432 55.0346C48.1988 54.671 47.606 54.5024 47.2985 53.8283C46.8528 52.8393 47.4679 51.4955 48.2657 50.7505C48.6445 50.4226 49.0864 50.1748 49.5646 50.0223C50.0427 49.8698 50.5471 49.8158 51.0469 49.8635C53.1551 50.0231 55.4193 51.9523 55.9898 53.9082C56.431 54.6996 56.714 55.5686 56.8232 56.4671C57.3001 60.605 53.6676 63.6695 53.1952 64.0554L52.8119 64.6319C52.8464 64.7455 52.9187 64.844 53.0169 64.9113C53.1644 64.9869 53.3321 65.0143 53.4961 64.9896C53.6601 64.965 53.8122 64.8895 53.9306 64.7738L81.6758 52.8216C82.3885 52.5183 83.0048 52.0277 83.4586 51.4024L83.4809 51.3758C83.8295 50.8806 84.0692 50.3179 84.1846 49.7244C84.2999 49.1308 84.2883 48.5197 84.1503 47.931C84.0124 47.3422 83.7513 46.7889 83.384 46.3073C83.0168 45.8257 82.5517 45.4265 82.019 45.1358C77.1162 42.426 69.6997 38.5277 63.8787 36.2659C54.4833 32.6292 52.0096 32.5671 48.1097 35.6716C44.3791 38.6386 43.3228 29.4626 47.2183 28.2873C51.916 26.846 57.9152 29.6178 68.2422 33.7424C73.1895 35.7248 75.6721 36.696 77.2677 37.4589C80.5303 39.0244 82.117 40.1509 82.9683 39.4457C83.7438 38.8071 83.6458 37.5298 82.7054 36.5541C77.9318 31.5958 76.0643 31.5337 74.5623 26.6996C74.2927 25.855 74.1574 24.9736 74.1612 24.0874C74.1612 22.6993 74.6381 21.1736 75.8504 18.0647C79.8617 7.70464 77.4148 2.83061 73.8358 0.817134C70.8139 -0.885895 64.9217 3.44707 62.4926 7.38089C61.7037 8.65816 60.3755 9.11053 58.869 9.07505L46.9018 9.14157C44.7669 9.09279 45.1547 8.99522 42.779 9.17705C40.1449 9.17705 40.3499 9.43872 38.2418 9.29236L26.2567 9.09279C24.7458 9.12827 23.48 8.6759 22.6911 7.39863C20.2575 3.46481 14.3653 -0.885895 11.3434 0.834874C7.77779 2.84835 5.30413 7.72238 9.32885 18.0825C10.5412 21.187 11.0092 22.717 11.0181 24.1052C11.0219 24.9914 10.8865 25.8727 10.6169 26.7174C9.11491 31.5515 7.2474 31.5958 2.4739 36.5719C1.53346 37.5476 1.4354 38.8248 2.21093 39.4635C3.06223 40.1686 4.64894 39.02 7.9115 37.4766C9.50713 36.7138 11.9897 35.7425 16.937 33.7601C27.2819 29.6223 33.2632 26.8637 37.961 28.3051C41.852 29.4981 40.7957 38.6563 37.0696 35.6893C33.1696 32.5848 30.696 32.6469 21.3005 36.2836C15.4796 38.5366 8.07642 42.4349 3.16028 45.1535C2.62758 45.4443 2.16244 45.8435 1.7952 46.3251C1.42795 46.8067 1.16685 47.3599 1.02891 47.9487C0.890973 48.5375 0.879298 49.1486 0.994649 49.7421C1.11 50.3357 1.34979 50.8984 1.69837 51.3935V51.4202C2.15217 52.0455 2.76847 52.5361 3.48119 52.8393L31.2264 64.7916C31.343 64.9024 31.491 64.975 31.6504 64.9996C31.8098 65.0242 31.9729 64.9996 32.1178 64.9291C32.216 64.8618 32.2883 64.7632 32.3228 64.6497L31.9395 64.0731C31.467 63.6873 27.8345 60.6227 28.3114 56.4849C28.4262 55.5769 28.7184 54.7 29.1717 53.9037C29.7422 51.9479 32.0063 50.0187 34.1145 49.859C34.6143 49.8113 35.1187 49.8654 35.5968 50.0179C36.075 50.1704 36.5169 50.4181 36.8957 50.746C37.6935 51.4911 38.2997 52.8349 37.8629 53.8239C37.5643 54.498 36.9715 54.6665 36.2183 55.0302C35.4074 55.4629 34.7027 56.0687 34.1546 56.8042C33.8617 57.2049 33.6192 57.6398 33.4326 58.0992C33.1319 58.7984 32.9977 59.5573 33.0404 60.3167C33.1664 61.2715 33.5267 62.1808 34.0895 62.9644C34.6523 63.7479 35.4002 64.3815 36.2673 64.8093C36.6221 64.9931 37.0044 65.1189 37.3994 65.1819C37.7344 65.2274 38.0746 65.2184 38.4067 65.1553" fill="#ED1C24"/>
<path id="Vector_2" d="M33.2857 41.5241C33.2866 42.1313 33.1065 42.7251 32.7681 43.2304C32.4298 43.7356 31.9484 44.1297 31.3849 44.3626C30.8214 44.5956 30.2011 44.657 29.6025 44.5391C29.0039 44.4212 28.4539 44.1292 28.0221 43.7002C27.5903 43.2712 27.2961 42.7243 27.1768 42.1289C27.0574 41.5335 27.1182 40.9162 27.3515 40.3551C27.5848 39.7941 27.9802 39.3145 28.4875 38.9771C28.9948 38.6396 29.5913 38.4595 30.2015 38.4595C30.6063 38.459 31.0073 38.5378 31.3814 38.6915C31.7556 38.8453 32.0957 39.0709 32.3821 39.3556C32.6686 39.6402 32.8958 39.9782 33.0509 40.3503C33.2059 40.7224 33.2857 41.1213 33.2857 41.5241Z" fill="black"/>
<path id="Vector_3" d="M55.5816 41.5241C55.5825 42.1315 55.4023 42.7254 55.0637 43.2308C54.7251 43.7362 54.2435 44.1302 53.6797 44.3631C53.116 44.5959 52.4955 44.6571 51.8967 44.5388C51.298 44.4205 50.7481 44.1281 50.3165 43.6986C49.8848 43.2692 49.591 42.7219 49.4721 42.1262C49.3533 41.5304 49.4147 40.913 49.6487 40.352C49.8827 39.7911 50.2787 39.3118 50.7866 38.9749C51.2945 38.638 51.8914 38.4587 52.5018 38.4595C53.3186 38.4595 54.102 38.7824 54.6796 39.3571C55.2572 39.9318 55.5816 40.7113 55.5816 41.5241Z" fill="black"/>
</g>
<defs>
<clipPath id="clip0_208_786">
<rect width="83.7926" height="65.6376" fill="white" transform="translate(0.643066)"/>
</clipPath>
</defs>
</svg>
