<svg width="26" height="26" viewBox="0 0 26 26" fill="none" xmlns="http://www.w3.org/2000/svg">
<path d="M4.3335 20.5832V18.9582H6.6085V10.6707C6.6085 9.154 7.05537 7.80435 7.94912 6.62171C8.84287 5.43907 10.021 4.69428 11.4835 4.38734V3.60192C11.4835 3.18664 11.6325 2.84359 11.9304 2.57275C12.2283 2.30192 12.5849 2.1665 13.0002 2.1665C13.4154 2.1665 13.772 2.30192 14.07 2.57275C14.3679 2.84359 14.5168 3.18664 14.5168 3.60192V4.38734C15.9793 4.69428 17.162 5.43907 18.0647 6.62171C18.9675 7.80435 19.4189 9.154 19.4189 10.6707V18.9582H21.6668V20.5832H4.3335ZM13.0002 23.8332C12.4224 23.8332 11.9168 23.621 11.4835 23.1967C11.0502 22.7724 10.8335 22.2623 10.8335 21.6665H15.1668C15.1668 22.2623 14.9547 22.7724 14.5304 23.1967C14.1061 23.621 13.596 23.8332 13.0002 23.8332ZM8.2335 18.9582H17.7939V10.6707C17.7939 9.33456 17.3335 8.19706 16.4127 7.25817C15.4918 6.31928 14.3634 5.84984 13.0272 5.84984C11.6911 5.84984 10.5581 6.31928 9.62829 7.25817C8.69843 8.19706 8.2335 9.33456 8.2335 10.6707V18.9582Z" fill="black"/>
</svg>
