<svg width="26" height="26" viewBox="0 0 26 26" fill="none" xmlns="http://www.w3.org/2000/svg">
<path d="M4.33325 20.5834V18.9584H6.60825V10.6709C6.60825 9.15419 7.05513 7.80453 7.94888 6.6219C8.84263 5.43926 10.0208 4.69446 11.4833 4.38752V3.6021C11.4833 3.18683 11.6322 2.84377 11.9301 2.57294C12.228 2.3021 12.5846 2.16669 12.9999 2.16669C13.4152 2.16669 13.7718 2.3021 14.0697 2.57294C14.3676 2.84377 14.5166 3.18683 14.5166 3.6021V4.38752C15.9791 4.69446 17.1617 5.43926 18.0645 6.6219C18.9673 7.80453 19.4187 9.15419 19.4187 10.6709V18.9584H21.6666V20.5834H4.33325ZM12.9999 23.8334C12.4221 23.8334 11.9166 23.6212 11.4833 23.1969C11.0499 22.7726 10.8333 22.2625 10.8333 21.6667H15.1666C15.1666 22.2625 14.9544 22.7726 14.5301 23.1969C14.1058 23.6212 13.5958 23.8334 12.9999 23.8334ZM8.23325 18.9584H17.7937V10.6709C17.7937 9.33474 17.3333 8.19724 16.4124 7.25835C15.4916 6.31946 14.3631 5.85002 13.027 5.85002C11.6909 5.85002 10.5579 6.31946 9.62804 7.25835C8.69818 8.19724 8.23325 9.33474 8.23325 10.6709V18.9584Z" fill="black"/>
<circle cx="18.5" cy="5.5" r="5.5" fill="#ED1C24"/>
</svg>
