<svg width="24" height="24" viewBox="0 0 24 24" fill="none" xmlns="http://www.w3.org/2000/svg">
<mask id="mask0_1791_4971" style="mask-type:alpha" maskUnits="userSpaceOnUse" x="0" y="0" width="24" height="24">
<rect width="24" height="24" fill="#ED1C24"/>
</mask>
<g mask="url(#mask0_1791_4971)">
<path d="M11.5 13.5C10.4688 13.5 9.58594 13.1328 8.85156 12.3984C8.11719 11.6641 7.75 10.7812 7.75 9.75C7.75 8.71875 8.11719 7.83594 8.85156 7.10156C9.58594 6.36719 10.4688 6 11.5 6C12.5312 6 13.4141 6.36719 14.1484 7.10156C14.8828 7.83594 15.25 8.71875 15.25 9.75C15.25 10.7812 14.8828 11.6641 14.1484 12.3984C13.4141 13.1328 12.5312 13.5 11.5 13.5ZM4 21V18.375C4 17.8438 4.13672 17.3555 4.41016 16.9102C4.68359 16.4648 5.04688 16.125 5.5 15.8906C6.46875 15.4062 7.45312 15.043 8.45312 14.8008C9.45312 14.5586 10.4688 14.4375 11.5 14.4375C12.5312 14.4375 13.5469 14.5586 14.5469 14.8008C15.5469 15.043 16.5313 15.4062 17.5 15.8906C17.9531 16.125 18.3164 16.4648 18.5898 16.9102C18.8633 17.3555 19 17.8438 19 18.375V21H4ZM5.875 19.125H17.125V18.375C17.125 18.2031 17.082 18.0469 16.9961 17.9062C16.9102 17.7656 16.7969 17.6562 16.6562 17.5781C15.8125 17.1562 14.9609 16.8398 14.1016 16.6289C13.2422 16.418 12.375 16.3125 11.5 16.3125C10.625 16.3125 9.75781 16.418 8.89844 16.6289C8.03906 16.8398 7.1875 17.1562 6.34375 17.5781C6.20312 17.6562 6.08984 17.7656 6.00391 17.9062C5.91797 18.0469 5.875 18.2031 5.875 18.375V19.125ZM11.5 11.625C12.0156 11.625 12.457 11.4414 12.8242 11.0742C13.1914 10.707 13.375 10.2656 13.375 9.75C13.375 9.23438 13.1914 8.79297 12.8242 8.42578C12.457 8.05859 12.0156 7.875 11.5 7.875C10.9844 7.875 10.543 8.05859 10.1758 8.42578C9.80859 8.79297 9.625 9.23438 9.625 9.75C9.625 10.2656 9.80859 10.707 10.1758 11.0742C10.543 11.4414 10.9844 11.625 11.5 11.625Z" fill="#ED1C24"/>
</g>
</svg>
