<svg width="24" height="24" viewBox="0 0 24 24" fill="none" xmlns="http://www.w3.org/2000/svg">
<mask id="mask0_1791_6120" style="mask-type:alpha" maskUnits="userSpaceOnUse" x="0" y="0" width="24" height="24">
<rect width="24" height="24" fill="#D9D9D9"/>
</mask>
<g mask="url(#mask0_1791_6120)">
<path d="M10.5 13.5C9.46875 13.5 8.58594 13.1328 7.85156 12.3984C7.11719 11.6641 6.75 10.7812 6.75 9.75C6.75 8.71875 7.11719 7.83594 7.85156 7.10156C8.58594 6.36719 9.46875 6 10.5 6C11.5312 6 12.4141 6.36719 13.1484 7.10156C13.8828 7.83594 14.25 8.71875 14.25 9.75C14.25 10.7812 13.8828 11.6641 13.1484 12.3984C12.4141 13.1328 11.5312 13.5 10.5 13.5ZM3 21V18.375C3 17.8438 3.13672 17.3555 3.41016 16.9102C3.68359 16.4648 4.04688 16.125 4.5 15.8906C5.46875 15.4062 6.45312 15.043 7.45312 14.8008C8.45312 14.5586 9.46875 14.4375 10.5 14.4375C11.5312 14.4375 12.5469 14.5586 13.5469 14.8008C14.5469 15.043 15.5313 15.4062 16.5 15.8906C16.9531 16.125 17.3164 16.4648 17.5898 16.9102C17.8633 17.3555 18 17.8438 18 18.375V21H3ZM4.875 19.125H16.125V18.375C16.125 18.2031 16.082 18.0469 15.9961 17.9062C15.9102 17.7656 15.7969 17.6562 15.6562 17.5781C14.8125 17.1562 13.9609 16.8398 13.1016 16.6289C12.2422 16.418 11.375 16.3125 10.5 16.3125C9.625 16.3125 8.75781 16.418 7.89844 16.6289C7.03906 16.8398 6.1875 17.1562 5.34375 17.5781C5.20312 17.6562 5.08984 17.7656 5.00391 17.9062C4.91797 18.0469 4.875 18.2031 4.875 18.375V19.125ZM10.5 11.625C11.0156 11.625 11.457 11.4414 11.8242 11.0742C12.1914 10.707 12.375 10.2656 12.375 9.75C12.375 9.23438 12.1914 8.79297 11.8242 8.42578C11.457 8.05859 11.0156 7.875 10.5 7.875C9.98438 7.875 9.54297 8.05859 9.17578 8.42578C8.80859 8.79297 8.625 9.23438 8.625 9.75C8.625 10.2656 8.80859 10.707 9.17578 11.0742C9.54297 11.4414 9.98438 11.625 10.5 11.625Z" fill="#1C1B1F"/>
</g>
</svg>
