<svg width="16" height="16" viewBox="0 0 16 16" fill="none" xmlns="http://www.w3.org/2000/svg">
<rect width="15.697" height="15.0814" fill="white"/>
<path d="M7.22386 1.27306C6.48807 1.33492 5.67256 1.55584 4.97662 1.8828C3.63073 2.51904 2.62207 3.48814 1.95986 4.78125C0.38403 7.86823 1.7054 11.6238 4.90611 13.1673C5.54073 13.4737 6.17842 13.6681 6.89888 13.7741C7.38022 13.8448 8.31223 13.8448 8.79969 13.7741C10.9764 13.4531 12.773 12.1865 13.7387 10.3013C14.8639 8.09504 14.5389 5.44696 12.9048 3.52938C11.5436 1.93287 9.41592 1.08749 7.22386 1.27306ZM8.10375 3.84161C8.30609 3.92409 8.37967 4.03602 8.83035 4.9845C9.07255 5.49114 9.27183 5.90941 9.27489 5.91236C9.27796 5.91825 9.7225 5.986 10.2651 6.06847C10.8078 6.14801 11.2953 6.23343 11.3504 6.25405C11.654 6.37776 11.8103 6.7165 11.6969 7.00517C11.6417 7.14361 11.6356 7.15245 10.4644 8.30712L10.1517 8.61641L10.3203 9.60318C10.5104 10.7137 10.5135 10.8344 10.3755 11.023C10.2437 11.2026 10.0567 11.2881 9.82674 11.2763C9.65199 11.2674 9.5876 11.238 8.75677 10.7873C8.27237 10.5251 7.86155 10.3101 7.84929 10.3101C7.83702 10.3101 7.42007 10.5251 6.92648 10.7873C6.04352 11.2557 6.02206 11.2674 5.84118 11.2674C5.61124 11.2674 5.45182 11.1938 5.33225 11.0377C5.16363 10.8138 5.16363 10.802 5.35985 9.6562L5.53766 8.61346L4.79267 7.87706C4.24082 7.33508 4.03541 7.11121 3.99862 7.0199C3.93118 6.84905 3.95264 6.63403 4.05688 6.4838C4.21017 6.26288 4.29294 6.23637 5.39357 6.07142C5.93929 5.98894 6.39916 5.91236 6.41142 5.90058C6.42368 5.88879 6.63522 5.46757 6.88049 4.96388C7.12882 4.46313 7.35876 4.02129 7.39861 3.983C7.56417 3.81215 7.87995 3.7503 8.10375 3.84161Z" fill="#FFCC15"/>
</svg>
