<svg width="21" height="13" viewBox="0 0 21 13" fill="none" xmlns="http://www.w3.org/2000/svg">
<path d="M3.51172 5.51469C4.34015 5.51469 5.01172 4.68418 5.01172 3.65969C5.01172 2.6352 4.34015 1.80469 3.51172 1.80469C2.68329 1.80469 2.01172 2.6352 2.01172 3.65969C2.01172 4.68418 2.68329 5.51469 3.51172 5.51469Z" fill="#ED1C24"/>
<path d="M5.56979 7.11122C5.11611 7.56258 4.7588 8.10136 4.51952 8.6949C4.28025 9.28845 4.16399 9.92441 4.17779 10.5642V10.8222H0.636789C0.452801 10.7994 0.284852 10.706 0.168283 10.5619C0.0517146 10.4177 -0.00438519 10.2339 0.0117888 10.0492V9.53422C-0.0529562 8.85577 0.150758 8.17897 0.579236 7.64898C1.00771 7.11899 1.62683 6.77802 2.30379 6.69922H4.38679C4.81551 6.70381 5.23096 6.8485 5.56979 7.11122Z" fill="#ED1C24"/>
<path d="M16.5117 5.51469C17.3401 5.51469 18.0117 4.68418 18.0117 3.65969C18.0117 2.6352 17.3401 1.80469 16.5117 1.80469C15.6833 1.80469 15.0117 2.6352 15.0117 3.65969C15.0117 4.68418 15.6833 5.51469 16.5117 5.51469Z" fill="#ED1C24"/>
<path d="M20.0111 9.53422V10.0492C20.0273 10.2339 19.9712 10.4177 19.8546 10.5619C19.7381 10.706 19.5701 10.7994 19.3861 10.8222H15.8451V10.5642C15.8589 9.92441 15.7427 9.28845 15.5034 8.6949C15.2641 8.10136 14.9068 7.56258 14.4531 7.11122C14.792 6.8485 15.2074 6.70381 15.6361 6.69922H17.7231C18.3994 6.77899 19.0175 7.12036 19.4451 7.65025C19.8728 8.18013 20.0759 8.85639 20.0111 9.53422Z" fill="#ED1C24"/>
<path d="M10.0117 6.184C11.3924 6.184 12.5117 4.79966 12.5117 3.092C12.5117 1.38434 11.3924 0 10.0117 0C8.63101 0 7.51172 1.38434 7.51172 3.092C7.51172 4.79966 8.63101 6.184 10.0117 6.184Z" fill="#ED1C24"/>
<path d="M12.3044 7.73047H7.72141C7.04487 7.81025 6.42638 8.15148 5.99809 8.68123C5.56981 9.21098 5.36571 9.88723 5.42941 10.5655V12.1115C5.41194 12.2964 5.46756 12.4809 5.58437 12.6253C5.70118 12.7698 5.86989 12.8628 6.05441 12.8845H13.9714C14.1559 12.8628 14.3246 12.7698 14.4414 12.6253C14.5582 12.4809 14.6139 12.2964 14.5964 12.1115V10.5655C14.6601 9.88723 14.456 9.21098 14.0277 8.68123C13.5994 8.15148 12.9809 7.81025 12.3044 7.73047Z" fill="#ED1C24"/>
</svg>
