<svg width="20" height="21" viewBox="0 0 20 21" fill="none" xmlns="http://www.w3.org/2000/svg">
<g clip-path="url(#clip0_2_26761)">
<path d="M3.33203 1.3335V6.3335H8.33203" stroke="#555555" stroke-width="1.5" stroke-linecap="round" stroke-linejoin="round"/>
<path d="M2.92578 13C3.46611 14.5337 4.49023 15.8502 5.84383 16.7512C7.19743 17.6522 8.80718 18.0889 10.4305 17.9954C12.0539 17.902 13.6029 17.2835 14.8442 16.2332C16.0855 15.1828 16.9518 13.7575 17.3126 12.172C17.6734 10.5865 17.5092 8.92667 16.8446 7.44262C16.1801 5.95857 15.0512 4.7307 13.6281 3.94401C12.2051 3.15732 10.5649 2.85442 8.95468 3.08097C7.34449 3.30751 5.85154 4.05122 4.70078 5.20004" stroke="#555555" stroke-width="1.5" stroke-linecap="round" stroke-linejoin="round"/>
</g>
<defs>
<clipPath id="clip0_2_26761">
<rect width="20" height="20" fill="white" transform="translate(0 0.5)"/>
</clipPath>
</defs>
</svg>
