<svg width="24" height="24" viewBox="0 0 24 24" fill="none" xmlns="http://www.w3.org/2000/svg">
<path d="M17.158 4.5065H14.025C14.025 3.84173 13.7609 3.2042 13.2909 2.73414C12.8208 2.26408 12.1833 2 11.5185 2C10.8537 2 10.2162 2.26408 9.74614 2.73414C9.27608 3.2042 9.012 3.84173 9.012 4.5065H5.88C5.3821 4.50597 4.90436 4.70318 4.55182 5.05479C4.19928 5.40639 4.0008 5.8836 4 6.3815V20.1315C4.0008 20.6294 4.19928 21.1066 4.55182 21.4582C4.90436 21.8098 5.3821 22.007 5.88 22.0065H17.158C17.6559 22.007 18.1336 21.8098 18.4862 21.4582C18.8387 21.1066 19.0372 20.6294 19.038 20.1315V6.3815C19.0372 5.8836 18.8387 5.40639 18.4862 5.05479C18.1336 4.70318 17.6559 4.50597 17.158 4.5065ZM7.758 18.5695C7.57257 18.5691 7.39141 18.5138 7.23742 18.4104C7.08343 18.3071 6.96352 18.1605 6.89283 17.9891C6.82214 17.8176 6.80385 17.6291 6.84027 17.4473C6.87669 17.2655 6.96618 17.0985 7.09744 16.9675C7.2287 16.8365 7.39584 16.7474 7.57774 16.7114C7.75964 16.6753 7.94814 16.694 8.11942 16.7651C8.2907 16.8361 8.43708 16.9564 8.54006 17.1106C8.64304 17.2648 8.698 17.4461 8.698 17.6315C8.69826 17.7548 8.67415 17.877 8.62704 17.991C8.57993 18.105 8.51076 18.2085 8.4235 18.2957C8.33624 18.3829 8.23261 18.4519 8.11858 18.4989C8.00454 18.5459 7.88234 18.5699 7.759 18.5695H7.758ZM7.758 14.8195C7.57252 14.8191 7.39133 14.7637 7.23732 14.6604C7.08331 14.557 6.96339 14.4103 6.89273 14.2388C6.82207 14.0674 6.80384 13.8788 6.84034 13.6969C6.87684 13.5151 6.96643 13.3481 7.0978 13.2172C7.22916 13.0862 7.39639 12.9972 7.57835 12.9613C7.76032 12.9253 7.94885 12.9442 8.12011 13.0154C8.29137 13.0866 8.43768 13.207 8.54054 13.3613C8.6434 13.5157 8.6982 13.697 8.698 13.8825C8.69813 14.0058 8.67392 14.1278 8.62675 14.2417C8.57959 14.3556 8.51039 14.459 8.42315 14.5461C8.3359 14.6331 8.23232 14.7021 8.11834 14.749C8.00437 14.7959 7.88225 14.8199 7.759 14.8195H7.758ZM7.758 11.0695C7.57252 11.0691 7.39133 11.0137 7.23732 10.9104C7.08331 10.807 6.96339 10.6603 6.89273 10.4888C6.82207 10.3174 6.80384 10.1288 6.84034 9.94691C6.87684 9.76506 6.96643 9.59812 7.0978 9.46718C7.22916 9.33623 7.39639 9.24718 7.57835 9.21126C7.76032 9.17534 7.94885 9.19417 8.12011 9.26538C8.29137 9.33659 8.43768 9.45697 8.54054 9.61131C8.6434 9.76565 8.6982 9.94702 8.698 10.1325C8.69813 10.2558 8.67392 10.3778 8.62675 10.4917C8.57959 10.6056 8.51039 10.709 8.42315 10.7961C8.3359 10.8831 8.23232 10.9521 8.11834 10.999C8.00437 11.0459 7.88225 11.0699 7.759 11.0695H7.758ZM11.517 3.5695C11.7025 3.5699 11.8837 3.62527 12.0377 3.72862C12.1917 3.83198 12.3116 3.97867 12.3823 4.15016C12.4529 4.32165 12.4712 4.51024 12.4347 4.69209C12.3982 4.87394 12.3086 5.04088 12.1772 5.17182C12.0458 5.30276 11.8786 5.39182 11.6966 5.42774C11.5147 5.46366 11.3262 5.44482 11.1549 5.37362C10.9836 5.30241 10.8373 5.18203 10.7345 5.02769C10.6316 4.87335 10.5768 4.69198 10.577 4.5065C10.5769 4.38299 10.6012 4.26068 10.6485 4.14661C10.6959 4.03254 10.7653 3.92897 10.8529 3.84187C10.9405 3.75477 11.0444 3.68586 11.1587 3.63911C11.2731 3.59237 11.3955 3.56871 11.519 3.5695H11.517ZM16.53 17.9445C16.5297 18.0274 16.4967 18.1069 16.438 18.1655C16.3794 18.2242 16.2999 18.2572 16.217 18.2575H10.579C10.4961 18.2572 10.4166 18.2242 10.358 18.1655C10.2993 18.1069 10.2663 18.0274 10.266 17.9445V17.3195C10.2663 17.2366 10.2993 17.1571 10.358 17.0985C10.4166 17.0398 10.4961 17.0068 10.579 17.0065H16.218C16.3009 17.0068 16.3804 17.0398 16.439 17.0985C16.4977 17.1571 16.5307 17.2366 16.531 17.3195L16.53 17.9445ZM16.53 14.1945C16.5297 14.2774 16.4967 14.3569 16.438 14.4155C16.3794 14.4742 16.2999 14.5072 16.217 14.5075H10.579C10.4962 14.5072 10.4169 14.4743 10.3583 14.4159C10.2997 14.3575 10.2665 14.2783 10.266 14.1955V13.5705C10.2663 13.4876 10.2993 13.4081 10.358 13.3495C10.4166 13.2908 10.4961 13.2578 10.579 13.2575H16.218C16.3009 13.2578 16.3804 13.2908 16.439 13.3495C16.4977 13.4081 16.5307 13.4876 16.531 13.5705L16.53 14.1945ZM16.53 10.4445C16.5297 10.5274 16.4967 10.6069 16.438 10.6655C16.3794 10.7242 16.2999 10.7572 16.217 10.7575H10.579C10.4962 10.7572 10.4169 10.7243 10.3583 10.6659C10.2997 10.6075 10.2665 10.5283 10.266 10.4455V9.8195C10.2663 9.73657 10.2993 9.65711 10.358 9.59847C10.4166 9.53982 10.4961 9.50676 10.579 9.5065H16.218C16.3009 9.50676 16.3804 9.53982 16.439 9.59847C16.4977 9.65711 16.5307 9.73657 16.531 9.8195L16.53 10.4445Z" fill="#ED1C24"/>
</svg>
