<svg width="12" height="16" viewBox="0 0 12 16" fill="none" xmlns="http://www.w3.org/2000/svg">
<path d="M10.892 2.263C11.0045 2.263 11.1123 2.21833 11.1918 2.13881C11.2713 2.0593 11.316 1.95145 11.316 1.839V0.424C11.316 0.311548 11.2713 0.203702 11.1918 0.124187C11.1123 0.0446713 11.0045 0 10.892 0H0.424C0.311548 0 0.203702 0.0446713 0.124187 0.124187C0.0446713 0.203702 0 0.311548 0 0.424L0 2.007C0 2.11945 0.0446713 2.2273 0.124187 2.30681C0.203702 2.38633 0.311548 2.431 0.424 2.431H3.44C3.85112 2.40535 4.26233 2.47965 4.63848 2.64752C5.01464 2.8154 5.34454 3.07187 5.6 3.395H0.424C0.311548 3.395 0.203702 3.43967 0.124187 3.51919C0.0446713 3.5987 0 3.70655 0 3.819L0 5.234C0 5.34645 0.0446713 5.4543 0.124187 5.53381C0.203702 5.61333 0.311548 5.658 0.424 5.658H6.039C5.94707 6.27623 5.62177 6.83574 5.12999 7.2215C4.63822 7.60726 4.01733 7.78995 3.395 7.732H0.424C0.36832 7.732 0.313184 7.74297 0.261742 7.76428C0.2103 7.78558 0.163559 7.81681 0.124187 7.85619C0.0848147 7.89556 0.0535831 7.9423 0.0322751 7.99374C0.0109671 8.04518 0 8.10032 0 8.156L0 10.031C1.39655e-05 10.0897 0.0121967 10.1477 0.0357781 10.2014C0.0593594 10.2551 0.0938264 10.3033 0.137 10.343L5.974 15.731C6.05234 15.8036 6.15519 15.844 6.262 15.844H9.182C9.26744 15.8442 9.35093 15.8185 9.42155 15.7705C9.49216 15.7224 9.54661 15.6541 9.57774 15.5745C9.60887 15.4949 9.61524 15.4078 9.59602 15.3246C9.57679 15.2413 9.53287 15.1659 9.47 15.108L4.133 10.182C5.37233 10.1967 6.57019 9.73596 7.48015 8.89445C8.39011 8.05294 8.94297 6.8947 9.025 5.658H10.893C11.0055 5.658 11.1133 5.61333 11.1928 5.53381C11.2723 5.4543 11.317 5.34645 11.317 5.234V3.819C11.317 3.70655 11.2723 3.5987 11.1928 3.51919C11.1133 3.43967 11.0055 3.395 10.893 3.395H8.817C8.69942 2.99784 8.53138 2.6174 8.317 2.263H10.892Z" fill="#ED1C24"/>
</svg>
