<svg width="18" height="18" viewBox="0 0 18 18" fill="none" xmlns="http://www.w3.org/2000/svg">
<path d="M9 0C7.21997 0 5.47991 0.527841 3.99987 1.51677C2.51983 2.50571 1.36628 3.91131 0.685088 5.55585C0.00389951 7.20038 -0.17433 9.00998 0.172937 10.7558C0.520203 12.5016 1.37737 14.1053 2.63604 15.364C3.89472 16.6226 5.49836 17.4798 7.24419 17.8271C8.99002 18.1743 10.7996 17.9961 12.4442 17.3149C14.0887 16.6337 15.4943 15.4802 16.4832 14.0001C17.4722 12.5201 18 10.78 18 9C18 7.8181 17.7672 6.64778 17.3149 5.55585C16.8626 4.46392 16.1997 3.47177 15.364 2.63604C14.5282 1.80031 13.5361 1.13738 12.4442 0.685084C11.3522 0.232792 10.1819 0 9 0ZM9 3.992C9.30138 3.9922 9.59593 4.08175 9.84642 4.24933C10.0969 4.41691 10.2921 4.65499 10.4073 4.93348C10.5225 5.21197 10.5525 5.51837 10.4936 5.81393C10.4347 6.10949 10.2895 6.38095 10.0763 6.59398C9.86311 6.80702 9.59155 6.95207 9.29595 7.01079C9.00035 7.06951 8.69398 7.03927 8.41556 6.9239C8.13715 6.80852 7.89919 6.61318 7.73178 6.36258C7.56436 6.11199 7.475 5.81738 7.475 5.516C7.47487 5.3157 7.51423 5.11733 7.59082 4.93225C7.66741 4.74717 7.77974 4.579 7.92137 4.43737C8.06301 4.29573 8.23118 4.18341 8.41626 4.10682C8.60134 4.03022 8.7997 3.99187 9 3.992ZM11.032 13.21C11.0317 13.3253 10.9858 13.4358 10.9043 13.5173C10.8228 13.5988 10.7123 13.6447 10.597 13.645H7.403C7.28772 13.6447 7.17723 13.5988 7.0957 13.5173C7.01418 13.4358 6.96827 13.3253 6.968 13.21V12.337C6.96827 12.2217 7.01418 12.1112 7.0957 12.0297C7.17723 11.9482 7.28772 11.9023 7.403 11.902H7.837V9.58H7.403C7.28772 9.57974 7.17723 9.53382 7.0957 9.4523C7.01418 9.37078 6.96827 9.26029 6.968 9.145V8.274C6.96787 8.21674 6.97902 8.16002 7.00081 8.10707C7.0226 8.05413 7.0546 8.00599 7.095 7.96541C7.13539 7.92483 7.18338 7.8926 7.23623 7.87057C7.28908 7.84854 7.34575 7.83713 7.403 7.837H9.726C9.84129 7.83726 9.95178 7.88318 10.0333 7.9647C10.1148 8.04622 10.1607 8.15671 10.161 8.272V11.901H10.596C10.7113 11.9013 10.8218 11.9472 10.9033 12.0287C10.9848 12.1102 11.0307 12.2207 11.031 12.336L11.032 13.21Z" fill="#ED1C24"/>
</svg>
