<svg width="24" height="24" viewBox="0 0 24 24" fill="none" xmlns="http://www.w3.org/2000/svg">
<path d="M23.0498 20.0001V17.6501C23.0498 17.0668 22.8998 16.5376 22.5998 16.0626C22.2998 15.5876 21.8831 15.2334 21.3498 15.0001C20.1331 14.4668 19.0373 14.0834 18.0623 13.8501C17.0873 13.6168 16.0831 13.5001 15.0498 13.5001C14.0165 13.5001 13.0165 13.6168 12.0498 13.8501C11.0831 14.0834 9.99147 14.4668 8.7748 15.0001C8.24147 15.2334 7.82064 15.5876 7.5123 16.0626C7.20397 16.5376 7.0498 17.0668 7.0498 17.6501V20.0001H23.0498ZM5.5498 20.0001V17.6501C5.5498 16.6001 5.81647 15.7376 6.3498 15.0626C6.88314 14.3876 7.58314 13.8418 8.4498 13.4251C7.2998 13.5584 6.21647 13.7543 5.1998 14.0126C4.18314 14.2709 3.35814 14.5668 2.7248 14.9001C2.1748 15.2168 1.74147 15.6084 1.4248 16.0751C1.10814 16.5418 0.949804 17.0668 0.949804 17.6501V20.0001H5.5498ZM15.0498 11.9751C16.1498 11.9751 17.0498 11.6251 17.7498 10.9251C18.4498 10.2251 18.7998 9.3251 18.7998 8.2251C18.7998 7.1251 18.4498 6.2251 17.7498 5.5251C17.0498 4.8251 16.1498 4.4751 15.0498 4.4751C13.9498 4.4751 13.0498 4.8251 12.3498 5.5251C11.6498 6.2251 11.2998 7.1251 11.2998 8.2251C11.2998 9.3251 11.6498 10.2251 12.3498 10.9251C13.0498 11.6251 13.9498 11.9751 15.0498 11.9751ZM6.0498 8.2251C6.0498 9.3251 6.39981 10.2251 7.0998 10.9251C7.7998 11.6251 8.6998 11.9751 9.7998 11.9751C9.98314 11.9751 10.1873 11.9626 10.4123 11.9376C10.6373 11.9126 10.8415 11.8668 11.0248 11.8001C10.6248 11.3834 10.3206 10.8709 10.1123 10.2626C9.90397 9.65426 9.7998 8.9751 9.7998 8.2251C9.7998 7.4751 9.90397 6.8126 10.1123 6.2376C10.3206 5.6626 10.6248 5.13343 11.0248 4.6501C10.8415 4.6001 10.6373 4.55843 10.4123 4.5251C10.1873 4.49176 9.98314 4.4751 9.7998 4.4751C8.6998 4.4751 7.7998 4.8251 7.0998 5.5251C6.39981 6.2251 6.0498 7.1251 6.0498 8.2251ZM21.5498 18.5001H8.5498V17.6501C8.5498 17.3834 8.62897 17.1251 8.7873 16.8751C8.94564 16.6251 9.14147 16.4501 9.3748 16.3501C10.5748 15.8168 11.5831 15.4584 12.3998 15.2751C13.2165 15.0918 14.0998 15.0001 15.0498 15.0001C15.9998 15.0001 16.8873 15.0918 17.7123 15.2751C18.5373 15.4584 19.5498 15.8168 20.7498 16.3501C20.9831 16.4501 21.1748 16.6251 21.3248 16.8751C21.4748 17.1251 21.5498 17.3834 21.5498 17.6501V18.5001ZM15.0498 10.4751C14.3998 10.4751 13.8623 10.2626 13.4373 9.8376C13.0123 9.4126 12.7998 8.8751 12.7998 8.2251C12.7998 7.5751 13.0123 7.0376 13.4373 6.6126C13.8623 6.1876 14.3998 5.9751 15.0498 5.9751C15.6998 5.9751 16.2373 6.1876 16.6623 6.6126C17.0873 7.0376 17.2998 7.5751 17.2998 8.2251C17.2998 8.8751 17.0873 9.4126 16.6623 9.8376C16.2373 10.2626 15.6998 10.4751 15.0498 10.4751Z" fill="#ED1C24"/>
</svg>
