<svg width="24" height="24" viewBox="0 0 24 24" fill="none" xmlns="http://www.w3.org/2000/svg">
<path d="M23.0498 20V17.65C23.0498 17.0666 22.8998 16.5375 22.5998 16.0625C22.2998 15.5875 21.8831 15.2333 21.3498 15C20.1331 14.4666 19.0373 14.0833 18.0623 13.85C17.0873 13.6166 16.0831 13.5 15.0498 13.5C14.0165 13.5 13.0165 13.6166 12.0498 13.85C11.0831 14.0833 9.99147 14.4666 8.7748 15C8.24147 15.2333 7.82064 15.5875 7.5123 16.0625C7.20397 16.5375 7.0498 17.0666 7.0498 17.65V20H23.0498ZM5.5498 20V17.65C5.5498 16.6 5.81647 15.7375 6.3498 15.0625C6.88314 14.3875 7.58314 13.8416 8.4498 13.425C7.2998 13.5583 6.21647 13.7541 5.1998 14.0125C4.18314 14.2708 3.35814 14.5666 2.7248 14.9C2.1748 15.2166 1.74147 15.6083 1.4248 16.075C1.10814 16.5416 0.949804 17.0666 0.949804 17.65V20H5.5498ZM15.0498 11.975C16.1498 11.975 17.0498 11.625 17.7498 10.925C18.4498 10.225 18.7998 9.32498 18.7998 8.22498C18.7998 7.12498 18.4498 6.22498 17.7498 5.52498C17.0498 4.82498 16.1498 4.47498 15.0498 4.47498C13.9498 4.47498 13.0498 4.82498 12.3498 5.52498C11.6498 6.22498 11.2998 7.12498 11.2998 8.22498C11.2998 9.32498 11.6498 10.225 12.3498 10.925C13.0498 11.625 13.9498 11.975 15.0498 11.975ZM6.0498 8.22498C6.0498 9.32498 6.39981 10.225 7.0998 10.925C7.7998 11.625 8.6998 11.975 9.7998 11.975C9.98314 11.975 10.1873 11.9625 10.4123 11.9375C10.6373 11.9125 10.8415 11.8666 11.0248 11.8C10.6248 11.3833 10.3206 10.8708 10.1123 10.2625C9.90397 9.65414 9.7998 8.97498 9.7998 8.22498C9.7998 7.47498 9.90397 6.81248 10.1123 6.23748C10.3206 5.66248 10.6248 5.13331 11.0248 4.64998C10.8415 4.59998 10.6373 4.55831 10.4123 4.52498C10.1873 4.49164 9.98314 4.47498 9.7998 4.47498C8.6998 4.47498 7.7998 4.82498 7.0998 5.52498C6.39981 6.22498 6.0498 7.12498 6.0498 8.22498ZM21.5498 18.5H8.5498V17.65C8.5498 17.3833 8.62897 17.125 8.7873 16.875C8.94564 16.625 9.14147 16.45 9.3748 16.35C10.5748 15.8166 11.5831 15.4583 12.3998 15.275C13.2165 15.0916 14.0998 15 15.0498 15C15.9998 15 16.8873 15.0916 17.7123 15.275C18.5373 15.4583 19.5498 15.8166 20.7498 16.35C20.9831 16.45 21.1748 16.625 21.3248 16.875C21.4748 17.125 21.5498 17.3833 21.5498 17.65V18.5ZM15.0498 10.475C14.3998 10.475 13.8623 10.2625 13.4373 9.83748C13.0123 9.41248 12.7998 8.87498 12.7998 8.22498C12.7998 7.57498 13.0123 7.03748 13.4373 6.61248C13.8623 6.18748 14.3998 5.97498 15.0498 5.97498C15.6998 5.97498 16.2373 6.18748 16.6623 6.61248C17.0873 7.03748 17.2998 7.57498 17.2998 8.22498C17.2998 8.87498 17.0873 9.41248 16.6623 9.83748C16.2373 10.2625 15.6998 10.475 15.0498 10.475Z" fill="black"/>
</svg>
