<svg width="75" height="73" viewBox="0 0 75 73" fill="none" xmlns="http://www.w3.org/2000/svg">
<g clip-path="url(#clip0_578_3571)">
<path fill-rule="evenodd" clip-rule="evenodd" d="M7.32698 2.67115C6.09661 2.67115 4.9165 3.1573 4.04571 4.02288C3.17518 4.88819 2.68489 6.06202 2.68235 7.28684V51.759C2.68235 52.4966 2.08189 53.0946 1.34118 53.0946C0.600465 53.0946 0 52.4966 0 51.759L2.23833e-06 7.28314C0.00352481 5.35031 0.777027 3.49785 2.15072 2.13238C3.52441 0.766903 5.38605 -3.18425e-06 7.32698 0H49.673C51.614 -3.18425e-06 53.4756 0.766902 54.8493 2.13238C56.223 3.49785 56.9965 5.35032 57 7.28314L57 7.28556L57 13.8846C57 14.6223 56.3995 15.2202 55.6588 15.2202C54.9181 15.2202 54.3176 14.6223 54.3176 13.8846L54.3176 7.28799L54.3176 7.28556C54.3176 7.28637 54.3176 7.28718 54.3176 7.28799M54.3176 7.28556C54.3148 6.0612 53.8245 4.88789 52.9543 4.02288C52.0835 3.1573 50.9034 2.67115 49.673 2.67115H7.32698M55.6588 57.5165C56.3995 57.5165 57 58.1145 57 58.8521V65.7036C57 67.6387 56.2281 69.4946 54.854 70.8629C53.4799 72.2313 51.6163 73 49.673 73H23.0465C22.3058 73 21.7053 72.402 21.7053 71.6644C21.7053 70.9268 22.3058 70.3288 23.0465 70.3288H49.673C50.9049 70.3288 52.0862 69.8415 52.9573 68.9742C53.8283 68.1068 54.3176 66.9303 54.3176 65.7036V58.8521C54.3176 58.1145 54.9181 57.5165 55.6588 57.5165Z" fill="#ED1C24"/>
<path fill-rule="evenodd" clip-rule="evenodd" d="M55.5 19.6897C51.0416 19.6897 46.7658 21.4607 43.6133 24.6133C40.4607 27.7658 38.6897 32.0416 38.6897 36.5C38.6897 39.8248 39.6756 43.0749 41.5227 45.8393C43.3698 48.6038 45.9953 50.7584 49.067 52.0307C52.1386 53.3031 55.5186 53.636 58.7795 52.9873C62.0404 52.3387 65.0357 50.7377 67.3867 48.3867C69.7377 46.0357 71.3387 43.0404 71.9873 39.7795C72.636 36.5186 72.3031 33.1386 71.0307 30.067C69.7584 26.9953 67.6038 24.3698 64.8393 22.5227C62.0749 20.6756 58.8248 19.6897 55.5 19.6897ZM41.7114 22.7114C45.3684 19.0545 50.3283 17 55.5 17C59.3567 17 63.1269 18.1437 66.3336 20.2863C69.5404 22.429 72.0397 25.4745 73.5156 29.0377C74.9916 32.6008 75.3777 36.5216 74.6253 40.3043C73.8729 44.0869 72.0157 47.5614 69.2886 50.2886C66.5615 53.0157 63.0869 54.8729 59.3043 55.6253C55.5216 56.3777 51.6008 55.9916 48.0377 54.5156C44.4745 53.0397 41.429 50.5404 39.2863 47.3336C37.1437 44.1269 36 40.3567 36 36.5C36 31.3283 38.0545 26.3684 41.7114 22.7114Z" fill="#ED1C24"/>
<path fill-rule="evenodd" clip-rule="evenodd" d="M10 12.2698C10 11.5685 10.5926 11 11.3236 11H44.6764C45.4074 11 46 11.5685 46 12.2698C46 12.9711 45.4074 13.5396 44.6764 13.5396H11.3236C10.5926 13.5396 10 12.9711 10 12.2698ZM10 19C10 18.2987 10.5926 17.7302 11.3236 17.7302H38.8407C39.5716 17.7302 40.1642 18.2987 40.1642 19C40.1642 19.7013 39.5716 20.2698 38.8407 20.2698H11.3236C10.5926 20.2698 10 19.7013 10 19ZM10 25.7302C10 25.0289 10.5926 24.4604 11.3236 24.4604H33.9555C34.6865 24.4604 35.2791 25.0289 35.2791 25.7302C35.2791 26.4315 34.6865 27 33.9555 27H11.3236C10.5926 27 10 26.4315 10 25.7302Z" fill="#ED1C24"/>
<path fill-rule="evenodd" clip-rule="evenodd" d="M64.3564 27.1928C64.986 27.5748 65.1883 28.3974 64.8081 29.0301L54.8598 45.5898C54.4886 46.2077 53.6967 46.4184 53.0698 46.0661L46.34 42.2839C45.6982 41.9232 45.4688 41.1078 45.8278 40.4627C46.1867 39.8176 46.9981 39.5871 47.6399 39.9479L53.2456 43.0983L62.5282 27.6468C62.9083 27.014 63.7269 26.8108 64.3564 27.1928ZM0.0911274 51.2408C0.290543 50.7272 0.783027 50.389 1.33167 50.389H14.3253L14.3364 50.389C16.9759 50.4111 19.4988 51.4852 21.3509 53.3754C23.2018 55.2645 24.2314 57.8143 24.2139 60.4652V71.6617C24.2139 72.1929 23.9013 72.6738 23.4173 72.8872C22.9332 73.1006 22.3694 73.0061 21.9805 72.6464L0.429866 52.7119C0.0261877 52.3385 -0.108288 51.7545 0.0911274 51.2408ZM4.74471 53.0655L21.5507 68.6111V60.4605L21.5507 60.451C21.5645 58.5076 20.8101 56.6381 19.4532 55.2533C18.0976 53.8698 16.2514 53.083 14.3195 53.0655H4.74471Z" fill="#ED1C24"/>
</g>
<defs>
<clipPath id="clip0_578_3571">
<rect width="75" height="73" fill="white"/>
</clipPath>
</defs>
</svg>
