<svg width="25" height="24" viewBox="0 0 25 24" fill="none" xmlns="http://www.w3.org/2000/svg">
<mask id="mask0_1_234" style="mask-type:alpha" maskUnits="userSpaceOnUse" x="0" y="0" width="25" height="24">
<rect x="0.912109" width="24" height="24" fill="#D9D9D9"/>
</mask>
<g mask="url(#mask0_1_234)">
<path d="M11.9121 19H13.9121V14.825L15.5121 16.425L16.9121 15L12.9121 11L8.91211 15L10.3371 16.4L11.9121 14.825V19ZM6.91211 22C6.36211 22 5.89128 21.8042 5.49961 21.4125C5.10794 21.0208 4.91211 20.55 4.91211 20V4C4.91211 3.45 5.10794 2.97917 5.49961 2.5875C5.89128 2.19583 6.36211 2 6.91211 2H14.9121L20.9121 8V20C20.9121 20.55 20.7163 21.0208 20.3246 21.4125C19.9329 21.8042 19.4621 22 18.9121 22H6.91211ZM13.9121 9V4H6.91211V20H18.9121V9H13.9121Z" fill="#ED1C24"/>
</g>
</svg>
